<svg width="40" height="56" viewBox="0 0 40 56" fill="none" xmlns="http://www.w3.org/2000/svg">
<path d="M34.9095 29.9562C34.2773 27.8043 32.6374 26.2101 31.6074 24.2507C29.9451 21.0884 29.8575 16.9589 27.5293 14.348C26.361 13.0379 24.7745 12.297 23.2323 11.5884C20.5445 10.3534 17.8568 9.1187 15.1691 7.88374C14.1515 7.41625 13.1099 6.94225 12.0084 6.86864C10.0281 6.73593 8.16947 7.91254 6.63154 9.28471C5.94971 9.89293 5.29053 10.5645 4.87151 11.4111C3.923 13.3276 4.38479 15.6871 4.0353 17.833C3.47699 21.26 1.94202 21.4968 0.972696 25.091C0.529201 27.4087 2.11906 29.4782 3.40997 31.3783C4.70088 33.2783 6.27885 34.991 7.14868 37.1592C7.801 38.7852 8.02446 40.6014 8.79251 42.1656C10.0201 44.6658 12.6753 46.2326 15.2578 45.9807C16.9303 45.8174 18.4799 44.9746 20.1161 44.5622C21.2973 44.2644 22.5255 44.1933 23.7286 44.3531C24.8057 44.496 25.8626 44.8221 26.9467 44.8701C30.6299 45.0339 33.9809 41.7262 34.8665 37.8087C35.1741 36.4473 35.2331 35.0343 35.2528 33.6321C35.2707 32.3949 35.2556 31.1341 34.9095 29.9562Z" fill="#D2D2E1" fill-opacity="0.5"/>
<path d="M28.911 14.8535C28.4793 13.6588 26.5427 11.9229 25.1105 9.26758L24.1254 9.74812C24.1254 9.74812 26.6663 15.6857 27.1956 16.3304C27.2023 16.3362 27.2091 16.3425 27.2158 16.3483C28.0134 17.0562 29.1942 16.2878 28.9995 15.1841C28.9802 15.0757 28.9514 14.9656 28.911 14.8535Z" fill="#EF8D72"/>
<path d="M23.7091 9.31797L22.8148 8.10846C22.7879 8.07162 22.7922 8.01793 22.8249 7.9874C22.8562 7.95845 22.9028 7.96003 22.9321 7.99161L23.6187 8.72795L22.9706 7.86687C22.9393 7.82582 22.9446 7.76476 22.9821 7.73055C23.0172 7.69897 23.0682 7.70108 23.1009 7.73582L23.7966 8.48479L23.1374 7.61792C23.1057 7.57634 23.1119 7.51423 23.1509 7.4816C23.1855 7.45265 23.2341 7.45581 23.2653 7.48897L24.0043 8.28478L23.497 7.47475C23.4706 7.43265 23.4802 7.37475 23.5182 7.34528C23.5518 7.31949 23.597 7.32317 23.6264 7.3537L24.6918 8.46215L24.5379 9.13638L23.7091 9.31797Z" fill="#EF8781"/>
<path d="M25.1105 9.26778C25.1105 9.26778 25.072 8.98935 24.9787 8.74986C24.9691 8.7246 24.9585 8.70092 24.9475 8.67723C24.7624 8.28459 24.3557 8.14143 24.0287 8.39985L23.884 8.51459C23.6129 8.72881 23.5571 9.15935 23.7821 9.42989C23.7912 9.44094 23.8008 9.45147 23.8105 9.46147C24.0037 9.65831 24.1254 9.74832 24.1254 9.74832L25.1105 9.26778Z" fill="#EF8781"/>
<path d="M25.1105 9.26772C25.1105 9.26772 25.084 9.01982 25.0412 8.76402C25.0018 8.52875 24.8499 8.33454 24.6436 8.25769C24.5047 8.20611 24.509 8.21611 24.509 8.21611L24.1653 8.36191C24.1374 8.37401 24.1263 8.41085 24.1422 8.43875L24.1576 8.46507C24.2004 8.53875 24.2826 8.57296 24.3595 8.54928L24.5403 8.49296L24.5557 8.52086C24.6095 8.6177 24.5835 8.74402 24.4965 8.80666C24.298 8.94929 24.0105 9.2493 24.197 9.71405L25.1105 9.26772Z" fill="#EF8D72"/>
<path d="M33.6596 52.8851C33.6528 53.0519 33.648 53.2203 33.6452 53.3914C32.887 53.4598 32.123 53.2477 31.7403 53.1177C31.7389 53.0035 31.737 52.8882 31.7346 52.7729C31.7418 52.7761 31.7495 52.7787 31.7567 52.7808C32.3057 52.9477 33.2384 52.9119 33.6596 52.8851Z" fill="#EF8D72"/>
<path d="M38.1072 52.9508C38.0928 53.074 38.0793 53.1845 38.0678 53.2814C37.1582 53.4124 36.5188 53.254 36.2327 53.1556C36.2312 53.0445 36.2288 52.9324 36.2264 52.8203C36.2462 52.8282 36.2663 52.8351 36.287 52.8403C36.6904 52.9503 37.3197 53.0751 37.9317 53.0024C37.9933 52.9951 38.0524 52.9772 38.1072 52.9508Z" fill="#EF8D72"/>
<path d="M28.2245 20.2701C28.2245 20.2701 30.2485 23.6586 30.9827 25.7087C32.4515 25.3671 32.0024 23.5439 32.0024 23.5439C32.0024 23.5439 30.6298 20.6543 30.5197 20.5406C30.4096 20.4269 29.7519 19.9253 29.7519 19.9253L28.9038 19.7559C28.6331 19.8901 28.2245 20.2701 28.2245 20.2701Z" fill="#576F9B"/>
<path d="M39.0962 43.1791C38.976 45.4197 38.4746 49.8425 38.1981 52.1873C38.1448 52.6394 38.0996 53.0142 38.0674 53.281C38.0323 53.5684 38.0126 53.7305 38.0126 53.7305L36.6423 54.5695L36.2366 53.7305C36.2366 53.5405 36.2351 53.3484 36.2322 53.1552C36.2289 52.9147 36.2236 52.6721 36.2164 52.4279C36.0423 46.5835 34.8005 39.7759 34.8005 39.7759H38.3847C38.3847 39.7759 38.9467 41.2512 39.0962 43.1791Z" fill="#FBA284"/>
<path d="M31.7172 28.1592L30.4181 40.1759H34.1734C34.1734 40.1759 37.3687 34.1888 37.3687 28.1592H31.7172Z" fill="white"/>
<path d="M34.1809 40.1907H30.4034L30.4053 40.1743L31.7058 28.145H37.3819V28.1592C37.3819 31.2762 36.5126 34.3794 35.7833 36.4337C34.9934 38.6596 34.1929 40.168 34.1847 40.1833L34.1809 40.1907ZM30.4327 40.1622H34.1655C34.2261 40.047 34.9972 38.569 35.7588 36.4237C36.4857 34.3747 37.3525 31.282 37.3554 28.1745H31.7289L30.4327 40.1622Z" fill="black"/>
<path d="M34.5895 43.8001C34.5895 46.747 33.9866 48.996 33.7433 51.6356C33.6909 52.1993 33.6558 52.7809 33.6457 53.3914C33.6443 53.504 33.6433 53.6172 33.6433 53.7314L32.1284 54.0062L31.7443 53.7314C31.7452 53.5288 31.7438 53.3246 31.7414 53.1177C31.7356 52.6324 31.7212 52.1366 31.7001 51.6356C31.4688 46.2133 30.4188 40.1763 30.4188 40.1763H34.1741C34.1732 40.1763 34.5895 42.1832 34.5895 43.8001Z" fill="#FBA284"/>
<path d="M33.7823 53.9472C33.94 54.592 34.0155 55.1483 34.0155 55.781H29.3375V55.7799C29.3375 55.3568 29.5827 54.982 29.9471 54.8394C30.3697 54.6746 31.1337 54.3136 31.7443 53.7315C32.7813 53.9625 32.8755 53.4814 33.4188 53.4814C33.7111 53.4814 33.7823 53.9472 33.7823 53.9472Z" fill="#4E254F"/>
<path d="M29.0432 15.8398L31.5269 14.4587C30.611 13.1686 30.41 12.0796 30.41 12.0796C30.1269 11.4644 29.4519 11.2012 28.8769 11.4817C28.3019 11.7623 27.973 12.5065 28.2009 13.1486C28.2009 13.1486 28.835 14.6034 29.0432 15.8398Z" fill="#FBA284"/>
<path d="M38.3193 28.1595H31.7173C31.6105 27.0837 31.4009 26.1611 31.1423 25.3663C30.4235 23.1599 29.3235 21.9483 28.9802 21.2335C28.8245 20.9093 28.6884 20.6083 28.5692 20.3277C27.4514 17.6992 27.8374 16.9345 27.8374 16.9345C28.4086 16.2455 29.2057 15.6776 29.9129 15.2607C29.9538 15.2365 29.9942 15.2128 30.0341 15.1902C30.8557 14.7186 31.5269 14.4586 31.5269 14.4586C31.5269 14.4586 31.5605 14.447 31.6211 14.4281C32.7505 14.0738 33.4034 14.6923 34.1053 15.7234C34.6029 16.4544 36.7673 19.6824 38.3193 28.1595Z" fill="#B9E5FE"/>
<path d="M30.6014 17.5941C30.1625 16.6083 29.1769 16.0656 28.1918 16.2635C27.1196 16.4788 24.5384 17.4773 23.8874 17.6225C23.0273 17.8141 22.5215 18.7952 22.8172 19.7005C22.8696 19.8616 23.0023 19.9737 23.1576 19.9895C23.9624 20.0695 27.7278 19.8637 29.7495 19.4536C30.524 19.2963 30.9466 18.3699 30.6014 17.5941Z" fill="#FBA284"/>
<path d="M23.0523 19.9625C23.0523 19.9625 22.4657 19.8451 21.797 19.243C21.5176 18.903 20.6777 17.0877 19.947 15.4492L19.9465 15.4487C19.5431 14.5434 18.4479 12.6612 18.4479 12.6612L19.7123 12.1807C19.7907 12.3259 19.8705 12.4686 19.9522 12.6086C20.0902 12.8475 20.2321 13.0786 20.3758 13.3018C21.6854 15.3387 23.1451 16.7492 23.5129 17.7661C23.9441 18.9614 23.0523 19.9625 23.0523 19.9625Z" fill="#FBA284"/>
<path d="M38.4572 52.4563C38.425 52.6805 38.2895 52.8637 38.1072 52.951C38.0524 52.9774 37.9938 52.9953 37.9318 53.0021C37.3197 53.0747 36.6904 52.9505 36.287 52.84C36.2664 52.8347 36.2462 52.8279 36.2265 52.82C36.0019 52.7305 35.8457 52.5016 35.8351 52.2363C35.6923 48.6041 35.2928 44.386 34.8644 40.6264C34.8567 40.557 34.8486 40.4875 34.8404 40.418C34.2005 34.8426 33.5048 30.3277 33.5048 30.3277C33.5048 30.3277 33.537 30.3145 33.6014 30.2882C33.9889 30.1303 35.5341 29.4898 38.1044 28.3134C38.2149 28.2629 38.3274 28.2108 38.4419 28.1587C38.451 28.2103 38.4601 28.2619 38.4688 28.3134C38.5202 28.6129 38.5664 28.9192 38.6077 29.2298C38.6486 29.5345 38.6851 29.8435 38.7173 30.1551C38.7524 30.4893 38.7823 30.8267 38.8087 31.1646C39.1332 35.3405 38.8337 39.6027 38.8337 39.6027C38.8337 39.6027 39.0231 41.2991 39.0962 42.9744C39.163 45.1382 38.7371 50.5089 38.4572 52.4563Z" fill="#7494CE"/>
<path d="M33.411 17.7035L33.3514 17.7419L32.9649 17.993C32.2783 16.7267 31.3663 16.0082 30.2548 15.8566C29.5903 15.7656 29.0442 15.914 28.8422 15.9808C28.8422 15.9808 28.8249 15.754 29.0124 15.5319C29.1418 15.3782 29.3225 15.2887 29.5129 15.2729C29.611 15.2645 29.7144 15.2598 29.8235 15.2598C29.9716 15.2598 30.1293 15.2682 30.2932 15.2898C31.1807 15.404 32.4423 15.9156 33.411 17.7035Z" fill="#576F9B"/>
<path d="M38.4419 28.1594C38.44 28.2109 38.4376 28.2625 38.4352 28.3141C38.4207 28.6083 38.3957 28.9073 38.3616 29.2089C38.3217 29.5599 38.2693 29.9163 38.2063 30.2742C37.4039 34.8269 34.8875 39.7623 34.6991 40.9366C34.6842 41.0276 34.6837 41.0961 34.6991 41.1398C35.5241 44.3667 34.1837 51.3585 33.9217 52.657C33.8962 52.7828 33.7981 52.8743 33.6808 52.8822C33.6741 52.8828 33.6673 52.8833 33.6606 52.8838C33.239 52.9107 32.3067 52.947 31.7582 52.7796C31.7505 52.7775 31.7433 52.7749 31.7361 52.7717C31.6385 52.7317 31.5712 52.6306 31.5668 52.5149C31.4659 49.87 30.3235 43.6909 30.3 40.175C30.2832 37.5954 30.9154 32.3337 31.2769 29.551C31.3611 28.9004 31.4308 28.3852 31.474 28.0715C31.5038 27.852 31.5212 27.7314 31.5212 27.7314C31.5212 27.7314 35.9741 27.7914 38.4419 28.1594Z" fill="#7494CE"/>
<path d="M34.8332 17.0577L34.3562 17.2819C33.7284 15.6808 33.0043 14.9766 32.5077 14.6681C32.1942 14.4729 31.9298 14.4081 31.7673 14.3876C31.7673 14.3876 31.8178 14.2202 32.0216 14.1044C32.2221 13.9907 32.4615 13.9986 32.662 14.1118C33.3144 14.4802 34.1404 15.2908 34.8332 17.0577Z" fill="#576F9B"/>
<path d="M38.4419 28.1593L38.4414 28.1598C38.4063 28.183 36.7226 29.2588 31.8538 28.2156C31.7019 28.183 31.5826 28.0546 31.5509 27.8888C31.5221 27.7398 31.4903 27.5882 31.4562 27.4366C31.4038 27.2061 31.3461 26.9761 31.2879 26.7577C31.1788 26.3487 31.0673 25.9777 30.9831 25.7087C30.9076 25.4682 30.9961 25.2024 31.1956 25.0729C32.0903 24.4918 34.2745 22.5533 32.887 18.0621C32.8529 17.9516 32.8937 17.83 32.9856 17.7711C33.0822 17.7095 33.199 17.6385 33.3331 17.5637C33.4019 17.5248 33.4745 17.4853 33.5514 17.4458C33.9086 17.2616 34.3529 17.0711 34.8404 16.9495C34.9144 16.9311 34.9899 16.9684 35.0264 17.0411L35.0269 17.0421C35.0269 17.0432 35.0279 17.0442 35.0279 17.0442C35.0485 17.0842 35.0692 17.1263 35.0904 17.1684C35.1062 17.2005 35.1226 17.2326 35.1389 17.2658C35.1466 17.2811 35.1543 17.2974 35.162 17.3132C35.1745 17.3384 35.1875 17.3642 35.2 17.3905C35.2149 17.4211 35.2303 17.4527 35.2457 17.4848C35.2582 17.51 35.2702 17.5358 35.2827 17.5621C35.2913 17.5795 35.2995 17.5969 35.3082 17.6142C35.3346 17.6695 35.361 17.7258 35.3885 17.7837C35.4043 17.8179 35.4207 17.8527 35.437 17.8874C35.4548 17.9253 35.4726 17.9637 35.4904 18.0021C35.5062 18.0369 35.5231 18.0727 35.5394 18.1085C35.5562 18.1458 35.574 18.1837 35.5913 18.2222C35.6 18.2411 35.6087 18.2606 35.6173 18.2801C35.7135 18.4932 35.8135 18.7206 35.9154 18.9606C35.9341 19.0043 35.9529 19.0485 35.9712 19.0927C35.999 19.1596 36.0274 19.2269 36.0558 19.2959C36.0654 19.3185 36.0745 19.3417 36.0841 19.3648C36.0937 19.388 36.1034 19.4111 36.113 19.4343C36.1226 19.4575 36.1317 19.4811 36.1413 19.5043C36.1606 19.5517 36.1803 19.5996 36.1995 19.648C36.2149 19.6869 36.2303 19.7259 36.2462 19.7654C36.3505 20.0291 36.4567 20.3048 36.5625 20.5917C36.5865 20.6564 36.6106 20.7228 36.6346 20.7891C36.6539 20.8428 36.6736 20.897 36.6928 20.9512C36.7082 20.9954 36.724 21.0396 36.7399 21.0838C36.7606 21.1422 36.7813 21.2007 36.8015 21.2601C36.8115 21.2896 36.8216 21.3191 36.8322 21.3491C36.8428 21.3791 36.8529 21.4091 36.863 21.4386C36.9457 21.6802 37.0274 21.9286 37.1082 22.1828C37.1279 22.2444 37.1471 22.306 37.1664 22.3681C37.1765 22.4002 37.1865 22.4323 37.1962 22.4644C37.2668 22.6933 37.3365 22.9276 37.4048 23.166C37.4404 23.2897 37.475 23.4149 37.5101 23.5413C37.5212 23.5813 37.5322 23.6213 37.5428 23.6618C37.5673 23.7523 37.5914 23.8429 37.6154 23.9339C37.6279 23.9818 37.6404 24.0297 37.6529 24.0781C37.6572 24.095 37.662 24.1118 37.6659 24.1292C37.6793 24.1823 37.6928 24.2355 37.7067 24.2892C37.7423 24.4308 37.7769 24.5734 37.8111 24.7171C37.8159 24.7366 37.8207 24.756 37.825 24.776C37.8375 24.8281 37.8495 24.8813 37.862 24.9339C37.8779 25.0039 37.8942 25.0734 37.9096 25.1439C37.925 25.2129 37.9404 25.2824 37.9558 25.3524C37.9861 25.4924 38.0164 25.634 38.0452 25.7761C38.0558 25.8282 38.0664 25.8808 38.0769 25.9334C38.0803 25.9508 38.0842 25.9687 38.0875 25.9861C38.1015 26.0577 38.1154 26.1292 38.1293 26.2008C38.1414 26.264 38.1534 26.3266 38.1649 26.3898C38.1664 26.3987 38.1683 26.4077 38.1697 26.4171C38.1832 26.4898 38.1962 26.5619 38.2092 26.6345C38.2217 26.705 38.2337 26.7756 38.2457 26.8461C38.2467 26.8519 38.2476 26.8577 38.2486 26.8635C38.2606 26.9335 38.2721 27.0035 38.2837 27.074C38.2957 27.1472 38.3072 27.2209 38.3188 27.2945L38.3193 27.2961C38.3635 27.5809 38.4048 27.8682 38.4419 28.1593Z" fill="#7494CE"/>
<path d="M30.7442 18.2808C30.7442 18.2866 30.7437 18.294 30.7437 18.3029C30.7418 18.4235 30.7317 18.5371 30.7124 18.645C30.4634 20.0709 28.7908 20.4167 26.9797 20.5056C26.4018 20.534 25.8095 20.5367 25.2451 20.5393C24.8624 20.0919 24.646 19.5388 24.5254 19.0208C24.322 18.1471 24.3903 17.3734 24.3903 17.3734C29.248 15.0907 30.422 16.5039 30.6956 17.7713C30.7062 17.8198 30.7153 17.8676 30.723 17.915C30.7379 18.0377 30.7446 18.154 30.7446 18.2656C30.7446 18.2656 30.7446 18.2713 30.7442 18.2808Z" fill="#D5EFFE"/>
<path d="M38.5452 28.7902C34.6985 29.8276 31.3403 29.0544 31.3403 29.0544C31.3403 29.0544 31.2312 28.3586 31.3918 27.6664C31.4096 27.5896 31.4302 27.5122 31.4557 27.4359C34.5803 27.958 38.3192 27.2959 38.3192 27.2959C38.3192 27.2959 38.6741 28.1154 38.5452 28.7902Z" fill="#576F9B"/>
<path opacity="0.25" d="M38.7178 30.1558C38.7068 30.0505 38.6953 29.9453 38.6832 29.8405C38.6808 29.821 38.6789 29.8021 38.6765 29.7826C38.6549 29.5974 38.6323 29.4131 38.6078 29.2305H38.6073C38.5876 29.0831 38.5669 28.9363 38.5452 28.791C34.6986 29.8284 31.3404 29.0547 31.3404 29.0547C31.3197 29.2094 31.2985 29.3758 31.2755 29.5516C31.5639 29.6884 32.3986 30.05 33.601 30.289C33.9813 30.3647 34.3981 30.4279 34.8467 30.4679C36.5933 30.6237 37.7327 32.5501 37.1337 34.3528C36.2673 36.9586 35.225 39.2656 34.8399 40.4187C34.7683 40.6335 34.7192 40.8082 34.6986 40.9372C34.6986 40.9372 34.7577 40.8282 34.864 40.6272C35.4813 39.4535 37.6746 35.1475 38.8087 31.1653C38.7828 30.8274 38.7525 30.49 38.7178 30.1558Z" fill="#576F9B"/>
<path opacity="0.25" d="M38.3193 27.2969C38.3193 27.2969 34.5808 27.959 31.4558 27.4369C31.4034 27.2063 31.3457 26.9763 31.2875 26.7579L31.3043 26.7021C31.3043 26.7021 35.1322 27.9532 36.4837 25.8794C37.8183 23.8315 35.0962 17.2102 35.0274 17.0444C35.0481 17.0844 35.0688 17.1265 35.0899 17.1686C35.1058 17.2008 35.1221 17.2329 35.1385 17.266C35.1462 17.2813 35.1539 17.2976 35.1616 17.3134C35.1741 17.3387 35.1871 17.3644 35.1996 17.3908C35.2145 17.4213 35.2298 17.4529 35.2452 17.485C35.2577 17.5102 35.2697 17.536 35.2822 17.5623C35.2909 17.5797 35.2991 17.5971 35.3077 17.6145C35.3342 17.6697 35.3606 17.726 35.388 17.7839C35.4039 17.8181 35.4202 17.8529 35.4366 17.8876C35.4544 17.9255 35.4722 17.9639 35.4899 18.0024C35.5058 18.0376 35.5221 18.0729 35.539 18.1087C35.5558 18.146 35.5736 18.1839 35.5909 18.2224C35.5996 18.2413 35.6082 18.2608 35.6169 18.2803C35.713 18.4934 35.813 18.7208 35.9149 18.9608C35.9337 19.0045 35.9524 19.0487 35.9707 19.0929C35.9986 19.1598 36.027 19.2271 36.0553 19.2961C36.0649 19.3187 36.0741 19.3419 36.0837 19.365C36.0933 19.3882 36.1029 19.4113 36.1125 19.4345C36.1222 19.4577 36.1313 19.4814 36.1409 19.5045C36.1601 19.5519 36.1798 19.5998 36.1991 19.6482C36.2145 19.6871 36.2298 19.7261 36.2457 19.7656C36.35 20.0293 36.4563 20.3051 36.5621 20.5919C36.5861 20.6566 36.6101 20.723 36.6342 20.7893C36.6534 20.843 36.6731 20.8972 36.6924 20.9514C36.7082 20.9956 36.7236 21.0398 36.7395 21.084C36.7601 21.1425 36.7808 21.2009 36.801 21.2604C36.8111 21.2898 36.8212 21.3193 36.8318 21.3493C36.8424 21.3793 36.8525 21.4093 36.8625 21.4388C36.9452 21.6804 37.027 21.9288 37.1077 22.183C37.1275 22.2446 37.1467 22.3062 37.1659 22.3683C37.176 22.4004 37.1861 22.4325 37.1957 22.4646C37.2664 22.6936 37.3361 22.9278 37.4044 23.1662C37.44 23.2899 37.4746 23.4152 37.5097 23.5415C37.5207 23.5815 37.5318 23.6215 37.5424 23.662C37.5669 23.7525 37.5909 23.8431 37.615 23.9341C37.6275 23.982 37.64 24.0299 37.6525 24.0783C37.6568 24.0952 37.6616 24.112 37.6654 24.1294C37.6789 24.1825 37.6924 24.2357 37.7063 24.2894C37.7419 24.431 37.7765 24.5736 37.8106 24.7173C37.8154 24.7368 37.8202 24.7563 37.8246 24.7763C37.8371 24.8284 37.8491 24.8815 37.8616 24.9342C37.8775 25.0042 37.8938 25.0736 37.9092 25.1442C37.9246 25.2131 37.94 25.2826 37.9553 25.3526C37.9856 25.4926 38.0159 25.6342 38.0448 25.7763C38.0553 25.8284 38.0659 25.881 38.0765 25.9337C38.0799 25.951 38.0837 25.9689 38.0871 25.9863C38.101 26.0579 38.115 26.1295 38.1289 26.201C38.1409 26.2642 38.1529 26.3268 38.1645 26.39C38.1659 26.3989 38.1679 26.4079 38.1693 26.4174C38.1828 26.49 38.1957 26.5621 38.2087 26.6347C38.2212 26.7053 38.2332 26.7758 38.2452 26.8463C38.2462 26.8521 38.2472 26.8579 38.2481 26.8637C38.2602 26.9337 38.2717 27.0037 38.2832 27.0742C38.2953 27.1474 38.3068 27.2211 38.3183 27.2948C38.3188 27.2958 38.3193 27.2969 38.3193 27.2969Z" fill="#576F9B"/>
<path d="M25.2446 20.5404C24.8619 20.0931 24.6456 19.5399 24.5249 19.022C25.6672 19.1878 29.1225 19.5178 30.6952 17.7725C30.7057 17.8209 30.7149 17.8688 30.7226 17.9161C31.0379 20.5262 27.847 20.5268 25.2446 20.5404Z" fill="#B9E5FE"/>
<path opacity="0.25" d="M31.4 25.2726L31.1423 25.3663C30.4235 23.1599 29.3235 21.9483 28.9802 21.2335C28.8245 20.9093 28.6884 20.6082 28.5692 20.3277C29.6826 20.1035 30.5399 19.634 30.7125 18.645C30.6879 18.8213 30.6437 19.0466 30.5663 19.294C30.0932 20.803 30.1629 22.4525 30.7918 23.8915C31.1379 24.6847 31.4 25.2726 31.4 25.2726Z" fill="#7494CE"/>
<path opacity="0.25" d="M33.551 17.4454C33.4741 17.4849 33.4015 17.5244 33.3327 17.5633C32.375 15.8885 31.1572 15.4011 30.2933 15.2896C30.1615 15.2727 30.0341 15.2638 29.9125 15.2606C29.9533 15.2364 29.9937 15.2127 30.0336 15.1901C30.4577 15.1543 31.6173 15.1427 32.399 15.9501C33.0111 16.5812 33.3692 17.1275 33.551 17.4454Z" fill="#7494CE"/>
<path d="M38.0125 53.7312L38.1053 53.9491C38.3481 54.5207 38.4347 55.1565 38.3539 55.7807H34.801C34.801 55.3202 34.9942 54.8849 35.3255 54.6007C35.563 54.397 36.1067 53.858 36.237 53.7312C36.6928 53.8933 37.3399 53.5659 37.6313 53.5659C37.9217 53.5659 38.0125 53.7312 38.0125 53.7312Z" fill="#4E254F"/>
<path d="M25.8624 1.06494H0.896797V8.09305H25.8624V1.06494Z" fill="#F8EFF2"/>
<path d="M25.8629 8.09277C25.8629 8.8449 25.697 9.47229 25.5052 9.94652H1.25496C1.08188 9.51808 0.929476 8.96438 0.902071 8.30646C0.899187 8.23646 0.897743 8.16541 0.897743 8.0933H25.8629V8.09277Z" fill="#C8B5BB"/>
<path d="M1.37513 9.74726C1.20253 9.28462 1.10446 8.79776 1.08331 8.29774C1.08331 8.29616 1.08331 8.29406 1.08331 8.29248H25.6768C25.6561 8.79407 25.5585 9.28251 25.385 9.74726H1.37513Z" fill="#AA7E7E"/>
<path d="M17.1229 5.83912H10.0132C9.93677 5.83912 9.87476 5.77122 9.87476 5.68753V4.10959C9.87476 4.0259 9.93677 3.95801 10.0132 3.95801H17.1229C17.1993 3.95801 17.2614 4.0259 17.2614 4.10959V5.68753C17.2614 5.77122 17.1993 5.83912 17.1229 5.83912Z" fill="#C8B5BB"/>
<path d="M10.0132 5.71923C9.99735 5.71923 9.98438 5.70502 9.98438 5.68765V4.10971C9.98438 4.09234 9.99735 4.07812 10.0132 4.07812H17.1229C17.1388 4.07812 17.1518 4.09234 17.1518 4.10971V5.68765C17.1518 5.70502 17.1388 5.71923 17.1229 5.71923H10.0132Z" fill="#4A485E"/>
<path d="M25.8629 1.0649H0.897263C0.897263 0.988051 0.908326 0.913838 0.927076 0.84331C1.03285 0.449614 1.37323 0.1875 1.74775 0.1875H25.0124C25.3869 0.1875 25.7273 0.449614 25.8331 0.84331C25.8513 0.913838 25.8629 0.988051 25.8629 1.0649Z" fill="#FBF5F7"/>
<path d="M6.75072 0.521911H2.85597C2.81174 0.521911 2.81077 0.482435 2.85356 0.434012C2.89587 0.38559 2.9651 0.347168 3.00837 0.347168H6.84687C6.89014 0.347168 6.90457 0.386116 6.8786 0.434012C6.85216 0.481908 6.79495 0.521911 6.75072 0.521911Z" fill="#C8B5BB"/>
<path d="M6.51654 0.948643H2.48429C2.43862 0.948643 2.43862 0.90601 2.48429 0.853903C2.52948 0.802322 2.60256 0.760742 2.64727 0.760742H6.61942C6.66462 0.760742 6.67856 0.802322 6.65068 0.853903C6.62231 0.90601 6.56221 0.948643 6.51654 0.948643Z" fill="#C8B5BB"/>
<path d="M11.0392 0.521911H7.14445C7.10022 0.521911 7.08532 0.482435 7.1108 0.434012C7.1358 0.38559 7.19157 0.347168 7.23484 0.347168H11.0733C11.1171 0.347168 11.145 0.386116 11.1358 0.434012C11.1262 0.481908 11.083 0.521911 11.0392 0.521911Z" fill="#C8B5BB"/>
<path d="M10.956 0.948643H6.92377C6.87809 0.948643 6.86319 0.90601 6.89012 0.853903C6.91704 0.802322 6.97521 0.760742 7.0204 0.760742H10.9926C11.0377 0.760742 11.0661 0.802322 11.0565 0.853903C11.0469 0.90601 11.0022 0.948643 10.956 0.948643Z" fill="#C8B5BB"/>
<path d="M15.3272 0.521911H11.4325C11.3882 0.521911 11.3594 0.482435 11.3671 0.434012C11.3752 0.38559 11.4171 0.347168 11.4603 0.347168H15.2988C15.3421 0.347168 15.3839 0.386116 15.3921 0.434012C15.4008 0.481908 15.3714 0.521911 15.3272 0.521911Z" fill="#C8B5BB"/>
<path d="M15.396 0.948643H11.3637C11.3181 0.948643 11.2883 0.90601 11.2969 0.853903C11.3056 0.802322 11.3488 0.760742 11.394 0.760742H15.3662C15.4114 0.760742 15.4546 0.802322 15.4633 0.853903C15.4715 0.90601 15.4417 0.948643 15.396 0.948643Z" fill="#C8B5BB"/>
<path d="M19.6157 0.521911H15.721C15.6767 0.521911 15.6335 0.482435 15.6243 0.434012C15.6152 0.38559 15.6436 0.347168 15.6868 0.347168H19.5253C19.5686 0.347168 19.6244 0.386116 19.6494 0.434012C19.6748 0.481908 19.6595 0.521911 19.6157 0.521911Z" fill="#C8B5BB"/>
<path d="M19.8359 0.948643H15.8037C15.758 0.948643 15.7128 0.90601 15.7032 0.853903C15.6936 0.802322 15.7224 0.760742 15.7672 0.760742H19.7393C19.7845 0.760742 19.8427 0.802322 19.8696 0.853903C19.8965 0.90601 19.8816 0.948643 19.8359 0.948643Z" fill="#C8B5BB"/>
<path d="M23.9037 0.521911H20.009C19.9647 0.521911 19.9075 0.482435 19.8811 0.434012C19.8551 0.38559 19.8691 0.347168 19.9128 0.347168H23.7513C23.7946 0.347168 23.8638 0.386116 23.9061 0.434012C23.9489 0.481908 23.948 0.521911 23.9037 0.521911Z" fill="#C8B5BB"/>
<path d="M24.2759 0.948643H20.2436C20.1979 0.948643 20.1378 0.90601 20.1095 0.853903C20.0816 0.802322 20.0955 0.760742 20.1407 0.760742H24.1129C24.1581 0.760742 24.2307 0.802322 24.2759 0.853903C24.3211 0.90601 24.3215 0.948643 24.2759 0.948643Z" fill="#C8B5BB"/>
<path d="M25.8624 2.39111H0.896797V2.55796H25.8624V2.39111Z" fill="#C8B5BB"/>
<path d="M9.05795 7.31388H1.305C1.23529 7.31388 1.17903 7.2523 1.17903 7.17598C1.17903 7.09967 1.23529 7.03809 1.305 7.03809H9.05795C9.12767 7.03809 9.18392 7.09967 9.18392 7.17598C9.18392 7.2523 9.12767 7.31388 9.05795 7.31388Z" fill="#C8B5BB"/>
<path d="M25.4547 7.31388H17.7018C17.6321 7.31388 17.5758 7.2523 17.5758 7.17598C17.5758 7.09967 17.6321 7.03809 17.7018 7.03809H25.4547C25.5244 7.03809 25.5807 7.09967 25.5807 7.17598C25.5807 7.2523 25.5244 7.31388 25.4547 7.31388Z" fill="#C8B5BB"/>
<path d="M9.05795 6.47843H1.305C1.23529 6.47843 1.17903 6.41685 1.17903 6.34054C1.17903 6.26422 1.23529 6.20264 1.305 6.20264H9.05795C9.12767 6.20264 9.18392 6.26422 9.18392 6.34054C9.18392 6.41685 9.12767 6.47843 9.05795 6.47843Z" fill="#C8B5BB"/>
<path d="M25.4547 6.47843H17.7018C17.6321 6.47843 17.5758 6.41685 17.5758 6.34054C17.5758 6.26422 17.6321 6.20264 17.7018 6.20264H25.4547C25.5244 6.20264 25.5807 6.26422 25.5807 6.34054C25.5807 6.41685 25.5244 6.47843 25.4547 6.47843Z" fill="#C8B5BB"/>
<path d="M25.3038 8.78302H1.45594C1.34104 8.78302 1.25979 8.65933 1.29633 8.53986L1.37277 8.29248H25.3869L25.4634 8.53986C25.4999 8.65933 25.4187 8.78302 25.3038 8.78302Z" fill="#F8EFF2"/>
<path d="M25.3038 9.26544H1.45598C1.34107 9.26544 1.25982 9.14176 1.29636 9.02228L1.3728 8.7749H25.387L25.4634 9.02228C25.5 9.14176 25.4187 9.26544 25.3038 9.26544Z" fill="#F8EFF2"/>
<path d="M25.3038 9.74738H1.45598C1.34107 9.74738 1.25982 9.62369 1.29636 9.50421L1.3728 9.25684H25.387L25.4634 9.50421C25.5 9.62369 25.4187 9.74738 25.3038 9.74738Z" fill="#F8EFF2"/>
<path d="M18.5047 4.23907C18.5047 4.39434 18.3898 4.52013 18.2479 4.52013C18.1061 4.52013 17.9912 4.39434 17.9912 4.23907C17.9912 4.0838 18.1061 3.95801 18.2479 3.95801C18.3898 3.95801 18.5047 4.0838 18.5047 4.23907Z" fill="#B5C1E9"/>
<path d="M19.5494 4.23907C19.5494 4.39434 19.4345 4.52013 19.2926 4.52013C19.1508 4.52013 19.0359 4.39434 19.0359 4.23907C19.0359 4.0838 19.1508 3.95801 19.2926 3.95801C19.4345 3.95801 19.5494 4.0838 19.5494 4.23907Z" fill="#EDC489"/>
<path d="M25.3037 8.80206H1.45592C1.4463 8.80206 1.43861 8.79363 1.43861 8.78311C1.43861 8.77258 1.4463 8.76416 1.45592 8.76416H25.3037C25.3134 8.76416 25.3211 8.77258 25.3211 8.78311C25.3211 8.79363 25.3134 8.80206 25.3037 8.80206Z" fill="#C8B5BB"/>
<path d="M25.3037 9.28399H1.45592C1.4463 9.28399 1.43861 9.27557 1.43861 9.26504C1.43861 9.25451 1.4463 9.24609 1.45592 9.24609H25.3037C25.3134 9.24609 25.3211 9.25451 25.3211 9.26504C25.3211 9.27557 25.3134 9.28399 25.3037 9.28399Z" fill="#C8B5BB"/>
<path d="M17.9397 12.1685L16.6734 10.48C16.6412 10.4321 16.6464 10.3653 16.6859 10.3237C16.7301 10.2774 16.8003 10.28 16.8416 10.3295L17.6195 11.2685L16.8604 10.0437C16.8291 9.99316 16.8388 9.92421 16.8835 9.88684C16.9267 9.85053 16.9878 9.85579 17.0253 9.89843L17.8936 10.8979L17.0902 9.70158C17.057 9.6521 17.0614 9.58421 17.1003 9.54052C17.146 9.48947 17.2214 9.48999 17.2657 9.5421L18.2517 10.6958L17.4513 9.53052C17.42 9.48473 17.4291 9.41946 17.4724 9.38683L17.4743 9.38525C17.5104 9.35735 17.5589 9.36051 17.5916 9.39209C17.8763 9.66736 19.1527 10.8985 19.1527 10.8985L18.4835 11.5611L17.9397 12.1685Z" fill="#EF8D72"/>
<path d="M19.7118 12.1811C19.7118 12.1811 19.5666 11.6526 19.4426 11.3342C19.4296 11.3011 19.4156 11.269 19.4012 11.2379C19.1556 10.7158 18.6147 10.5252 18.1796 10.8695L17.9873 11.0216C17.6272 11.3068 17.6921 11.879 17.9916 12.2385C18.0036 12.2532 18.0166 12.2674 18.0291 12.28C18.2863 12.5411 18.4474 12.6616 18.4474 12.6616L19.7118 12.1811Z" fill="#FBA284"/>
<path d="M27.2803 9.96736L25.2384 9.36523C25.2384 9.36523 24.6687 9.92525 27.2879 10.6558L27.2803 9.96736Z" fill="#E68759"/>
<path d="M27.8159 14.299C28.0572 14.3305 28.4034 14.3532 28.7918 14.0737L28.351 12.53L28.3673 11.8826L28.9096 11.571L30.0332 12.3368L30.3462 13.5463C30.9173 13.0884 31.3808 12.4258 31.588 11.5463C31.9957 9.81883 31.1145 8.22931 29.725 8.04509C28.3351 7.86035 27.15 9.17828 27.0111 11.061C26.551 12.9089 27.3159 14.0432 27.8159 14.299Z" fill="#FBA284"/>
<path d="M32.1457 11.0789C32.1034 11.5479 31.9471 12.0121 31.5683 12.5695C31.2995 12.9642 31.2082 13.4606 31.2841 13.9453C31.2856 13.9558 31.287 13.9658 31.288 13.9764C31.3168 14.3232 30.6298 14.4427 30.1082 14.2848C28.8658 13.9074 29.0442 12.9037 28.8255 12.2816C28.8014 12.211 28.7711 12.1458 28.7336 12.0868C28.6615 11.9721 28.5601 11.8816 28.4105 11.8258C28.2048 11.7484 27.9495 12.1695 27.8187 12.2274L27.7413 12.1784C27.6264 12.1052 27.5701 11.9589 27.6019 11.8179C27.6817 11.4637 27.7341 10.7194 27.162 9.75676C27.7447 8.81883 28.0009 8.03039 29.2505 7.86249C30.4529 7.7009 30.9985 8.47619 30.9985 8.47619C30.9985 8.47619 31.0582 8.51935 31.15 8.5983C31.8428 9.18779 32.2322 10.122 32.1457 11.0789Z" fill="#4E254F"/>
<path d="M28.7226 12.2518C28.6735 12.5792 28.4788 12.8271 28.261 12.8629C28.2245 12.8692 28.1865 12.8692 28.1485 12.8624C27.8894 12.8155 27.7254 12.4666 27.7827 12.0829C27.8394 11.7007 28.0942 11.4286 28.3524 11.4718C28.3538 11.4718 28.3553 11.4718 28.3562 11.4723C28.6158 11.5192 28.7798 11.8681 28.7226 12.2518Z" fill="#FBA284"/>
<path d="M28.8255 12.2811C28.7605 12.6469 28.5125 12.9043 28.261 12.8627C28.4788 12.8269 28.6735 12.579 28.7226 12.2517C28.7312 12.1953 28.7346 12.1401 28.7341 12.0869C28.7711 12.1453 28.8014 12.2106 28.8255 12.2811Z" fill="#EF8D72"/>
<path d="M31.9005 12.1312C31.8548 12.2306 31.7303 12.2459 31.6649 12.1606C31.6043 12.0822 31.5375 12.0075 31.4649 11.9354C31.0745 11.549 30.5202 11.2522 29.9351 11.0274C28.9168 10.6353 27.8053 10.4579 27.3043 10.3927C27.3043 10.3927 27.3038 10.3927 27.3029 10.3927C27.1322 10.3706 27.0327 10.3611 27.0327 10.3611C27.0005 10.229 27.0057 10.0706 27.0428 9.89688C27.2668 8.85264 28.6442 7.26627 29.9404 7.7005C32.5981 8.52789 32.6885 10.4101 31.9005 12.1312Z" fill="#FFCC59"/>
<path d="M27.3033 10.3932C27.2567 10.3932 25.8735 10.3816 25.2389 9.36523L27.0432 9.89735C27.0062 10.071 27.0009 10.2295 27.0331 10.3616C27.0331 10.3616 27.1322 10.3705 27.3033 10.3932Z" fill="#FFCC59"/>
<path d="M31.5188 11.8256C31.4995 11.894 31.4832 11.935 31.4832 11.935L31.4649 11.9361C30.9438 11.9919 30.464 11.7829 29.9351 11.0282C29.9351 11.0282 29.999 10.9487 30.1082 10.8555C30.1928 10.7829 30.3043 10.7019 30.4337 10.6429C30.6481 10.5455 30.912 10.5092 31.1837 10.6734C31.4947 10.8619 31.576 11.1613 31.5765 11.4213C31.5765 11.5835 31.5452 11.7303 31.5188 11.8256Z" fill="#4E254F"/>
<path d="M31.5188 11.8253C31.0736 11.2195 30.3212 10.9279 30.1082 10.8547C30.1928 10.7821 30.3043 10.701 30.4336 10.6421C30.7365 10.771 31.2048 11.0168 31.576 11.4205C31.5764 11.5832 31.5452 11.73 31.5188 11.8253Z" fill="#FFCC59"/>
</svg>
