<svg width="40" height="45" viewBox="0 0 40 45" fill="none" xmlns="http://www.w3.org/2000/svg">
<path d="M37.3985 25.8396C36.7663 23.6876 35.1263 22.0934 34.0964 20.134C32.434 16.9717 32.3464 12.8422 30.0183 10.2313C28.8499 8.92122 27.2635 8.1803 25.7212 7.47167C23.0335 6.23671 20.3458 5.002 17.658 3.76704C16.6405 3.29955 15.5989 2.82555 14.4973 2.75194C12.517 2.61923 10.6584 3.79584 9.1205 5.16802C8.43867 5.77623 7.77949 6.4478 7.36047 7.29439C6.41196 9.21093 6.87375 11.5704 6.52426 13.7163C5.96595 17.1433 4.43098 17.3801 3.46166 20.9743C3.01816 23.292 4.60802 25.3615 5.89893 27.2616C7.18984 29.1616 8.76781 30.8743 9.63764 33.0425C10.29 34.6686 10.5134 36.4847 11.2815 38.0489C12.509 40.5491 15.1643 42.1159 17.7468 41.864C19.4192 41.7007 20.9688 40.8579 22.6051 40.4455C23.7862 40.1477 25.0145 40.0766 26.2176 40.2364C27.2946 40.3794 28.3515 40.7054 29.4357 40.7534C33.1188 40.9172 36.4698 37.6095 37.3555 33.692C37.6631 32.3306 37.7221 30.9176 37.7418 29.5154C37.7596 28.2782 37.7445 27.0174 37.3985 25.8396Z" fill="#D2D2E1" fill-opacity="0.5"/>
<path d="M39.0519 42.4469C38.8698 41.3075 37.577 40.2614 35.8129 39.6151C34.0488 38.9688 31.8587 38.7012 29.7215 38.7387C25.5805 38.5049 21.99 38.4315 17.8488 38.1976C13.4941 37.9517 8.91437 37.7226 4.89181 38.6476C4.132 38.8224 3.38544 39.0445 2.85641 39.3845C1.74298 40.1001 1.87335 41.2086 2.80014 41.9964C3.72693 42.7844 5.29048 43.2975 6.89863 43.654C9.15888 44.1548 11.5923 44.3985 14.0266 44.5302C19.8894 44.8477 25.8005 44.5339 31.6643 44.2204C33.125 44.1423 34.5856 44.0642 36.0462 43.986C37.0251 43.9337 38.129 43.8441 38.6934 43.4131C39.0532 43.1387 39.1051 42.7809 39.0519 42.4469Z" fill="#B0D4EA"/>
<path d="M24.1858 39.1009C24.4074 38.4303 24.4006 37.6268 24.4559 36.9226C24.5332 35.9393 24.5979 34.9553 24.6608 33.971C24.7718 32.2342 24.8541 30.4877 25.0508 28.7592C25.1448 27.9334 25.2425 27.1081 25.3381 26.2825C25.3884 25.8491 25.4387 25.4157 25.4891 24.9822C25.5295 24.6334 25.6352 24.2398 25.4934 23.9075C25.4831 23.8835 25.4458 23.8777 25.4303 23.8985C25.2654 24.1214 25.2551 24.3965 25.2249 24.6727C25.1842 25.0443 25.1437 25.4157 25.103 25.7872C25.0215 26.5302 24.9403 27.2733 24.8589 28.0163C24.7661 28.8651 24.6867 29.7127 24.6281 30.5653C24.4937 32.5294 24.3878 34.4963 24.2807 36.4622C24.2544 36.9459 24.2247 37.4295 24.1911 37.9127C24.1643 38.2993 24.1245 38.7115 24.1613 39.0974C24.1627 39.1124 24.181 39.1159 24.1858 39.1009Z" fill="#273047"/>
<path d="M31.425 39.0969C31.4948 38.3643 31.3708 37.5803 31.3278 36.8469C31.2697 35.8598 31.216 34.8722 31.1595 33.8852C31.0593 32.1351 30.9854 30.3766 30.7951 28.6348C30.705 27.8093 30.6144 26.9837 30.5241 26.1582C30.4767 25.7247 30.4292 25.2913 30.3818 24.8579C30.3461 24.5316 30.353 24.1638 30.1561 23.8981C30.1405 23.8773 30.1032 23.8828 30.0929 23.9071C29.972 24.1908 30.041 24.496 30.0758 24.7963C30.1188 25.1678 30.162 25.5392 30.205 25.9108C30.2912 26.6537 30.3775 27.3969 30.4637 28.1398C30.5602 28.9711 30.64 29.8022 30.7023 30.6375C30.8486 32.6039 30.9511 34.574 31.1009 36.5401C31.1375 37.0196 31.1737 37.4994 31.2183 37.9782C31.2526 38.347 31.285 38.7516 31.4006 39.1009C31.4054 39.1157 31.4234 39.1125 31.425 39.0969Z" fill="#273047"/>
<path d="M31.2158 23.8607C31.2158 24.3044 30.9281 24.6642 27.7092 24.6642C24.4904 24.6642 24.3706 24.3044 24.3706 23.8607C24.3706 23.417 24.4904 23.0571 27.7092 23.0571C30.9281 23.0571 31.2158 23.417 31.2158 23.8607Z" fill="#BAD4ED"/>
<path d="M15.7146 39.1009C15.9362 38.4303 15.9294 37.6268 15.9847 36.9226C16.062 35.9393 16.1267 34.9553 16.1896 33.971C16.3006 32.2342 16.3829 30.4877 16.5796 28.7592C16.6736 27.9334 16.7713 27.1081 16.8669 26.2825C16.9172 25.8491 16.9675 25.4157 17.0178 24.9822C17.0583 24.6334 17.164 24.2398 17.0222 23.9075C17.0119 23.8835 16.9746 23.8777 16.9591 23.8985C16.7939 24.1214 16.7839 24.3965 16.7537 24.6727C16.713 25.0443 16.6725 25.4157 16.6318 25.7872C16.5503 26.5302 16.4691 27.2733 16.3877 28.0163C16.2949 28.8651 16.2153 29.7127 16.1569 30.5653C16.0224 32.5294 15.9165 34.4963 15.8095 36.4622C15.7832 36.9459 15.7535 37.4295 15.7198 37.9127C15.6931 38.2993 15.6533 38.7115 15.6901 39.0974C15.6915 39.1124 15.7096 39.1159 15.7146 39.1009Z" fill="#273047"/>
<path d="M22.9536 39.0969C23.0234 38.3643 22.8994 37.5803 22.8564 36.8469C22.7983 35.8598 22.7446 34.8722 22.6881 33.8852C22.5879 32.1351 22.514 30.3766 22.3237 28.6348C22.2336 27.8093 22.143 26.9837 22.0527 26.1582C22.0053 25.7247 21.9578 25.2913 21.9104 24.8579C21.8747 24.5316 21.8816 24.1638 21.6847 23.8981C21.6691 23.8773 21.6318 23.8828 21.6215 23.9071C21.5005 24.1908 21.5696 24.496 21.6044 24.7963C21.6474 25.1678 21.6906 25.5392 21.7336 25.9108C21.8198 26.6537 21.9061 27.3969 21.9923 28.1398C22.0888 28.9711 22.1686 29.8022 22.2309 30.6375C22.3772 32.6039 22.4797 34.574 22.6295 36.5401C22.6661 37.0196 22.7023 37.4994 22.7469 37.9782C22.7812 38.347 22.8136 38.7516 22.9291 39.1009C22.934 39.1157 22.9523 39.1125 22.9536 39.0969Z" fill="#273047"/>
<path d="M22.7444 23.8607C22.7444 24.3044 22.4567 24.6642 19.2378 24.6642C16.019 24.6642 15.8992 24.3044 15.8992 23.8607C15.8992 23.417 16.019 23.0571 19.2378 23.0571C22.4567 23.0571 22.7444 23.417 22.7444 23.8607Z" fill="#BAD4ED"/>
<path d="M7.24307 39.1009C7.4647 38.4303 7.45784 37.6268 7.51319 36.9226C7.5905 35.9393 7.65523 34.9553 7.71813 33.971C7.82906 32.2342 7.9114 30.4877 8.1081 28.7592C8.20211 27.9334 8.29977 27.1081 8.39538 26.2825C8.4457 25.8491 8.49602 25.4157 8.54634 24.9822C8.58682 24.6334 8.69249 24.2398 8.55068 23.9075C8.54039 23.8835 8.50311 23.8777 8.48755 23.8985C8.32242 24.1214 8.31235 24.3965 8.28216 24.6727C8.24145 25.0443 8.20074 25.4157 8.16025 25.7872C8.07883 26.5302 7.99763 27.2733 7.9162 28.0163C7.82334 28.8651 7.74375 29.7127 7.68542 30.5653C7.55093 32.5294 7.44503 34.4963 7.33799 36.4622C7.31169 36.9459 7.28195 37.4295 7.24833 37.9127C7.22157 38.2993 7.18177 38.7115 7.2186 39.0974C7.21997 39.1124 7.23804 39.1159 7.24307 39.1009Z" fill="#273047"/>
<path d="M14.4821 39.0969C14.5519 38.3643 14.4279 37.5803 14.3849 36.8469C14.3268 35.8598 14.2731 34.8722 14.2166 33.8852C14.1164 32.1351 14.0425 30.3766 13.8522 28.6348C13.7621 27.8093 13.6715 26.9837 13.5812 26.1582C13.5338 25.7247 13.4863 25.2913 13.4389 24.8579C13.4032 24.5316 13.4101 24.1638 13.2132 23.8981C13.1976 23.8773 13.1603 23.8828 13.15 23.9071C13.029 24.1908 13.0981 24.496 13.1329 24.7963C13.1759 25.1678 13.2191 25.5392 13.2621 25.9108C13.3483 26.6537 13.4346 27.3969 13.5208 28.1398C13.6173 28.9711 13.6971 29.8022 13.7594 30.6375C13.9057 32.6039 14.0082 34.574 14.158 36.5401C14.1946 37.0196 14.2308 37.4994 14.2754 37.9782C14.3097 38.347 14.3421 38.7516 14.4577 39.1009C14.4625 39.1157 14.4808 39.1125 14.4821 39.0969Z" fill="#273047"/>
<path d="M14.2729 23.8607C14.2729 24.3044 13.9852 24.6642 10.7663 24.6642C7.54752 24.6642 7.42767 24.3044 7.42767 23.8607C7.42767 23.417 7.54752 23.0571 10.7663 23.0571C13.9852 23.0571 14.2729 23.417 14.2729 23.8607Z" fill="#BAD4ED"/>
<path d="M5.95994 24.5992L5.01211 39.7981L3.75162 40.0981C3.75162 40.0981 3.90555 37.3812 3.70953 35.8123C3.51352 34.2435 3.04532 32.349 3.41722 29.9808C3.78913 27.6125 3.58991 24.3896 3.58991 24.3896L5.95994 24.5992Z" fill="#FAC3D2"/>
<path d="M10.4031 24.6479L11.3322 39.8481H10.1192C10.1192 39.8481 9.93854 37.616 9.55154 36.0903C9.16454 34.5647 8.46762 32.7566 8.54516 30.355C8.62247 27.9534 8.02893 24.7892 8.02893 24.7892L10.4031 24.6479Z" fill="#FAC3D2"/>
<path d="M3.27773 33.3867C3.38385 34.2746 3.54602 35.0802 3.64597 35.8116C3.86028 37.3803 3.69194 40.0974 3.69194 40.0974L5.06977 39.7974L5.50686 33.3867H3.27773Z" fill="white"/>
<path d="M8.78035 33.3867C9.00839 34.3961 9.31099 35.2845 9.5253 36.0903C9.93128 37.6159 10.1207 39.848 10.1207 39.848H11.3926L10.9784 33.3867H8.78035Z" fill="white"/>
<path d="M3.49473 19.5986L3.02768 37.7248C3.02768 37.7248 3.58874 38.3378 5.50681 37.7872C5.50681 37.7872 6.54567 24.8684 6.68565 23.7957C6.82563 22.723 7.27095 22.723 7.27095 22.723L9.27891 37.7664C9.27891 37.7664 10.7523 37.9058 11.6453 37.4639L10.3557 19.2886L3.49473 19.5986Z" fill="#BE7667"/>
<g opacity="0.1">
<path d="M6.3986 21.1671C8.36493 20.9317 9.49391 20.4121 10.4237 20.3032L10.3557 19.2886L3.49473 19.5986L3.46637 20.6966C3.90895 20.9617 4.83299 21.3546 6.3986 21.1671Z" fill="black"/>
</g>
<path d="M11.5355 13.2842C11.5355 13.2842 11.4308 18.6184 12.4827 23.5255C12.4827 23.5255 12.044 24.1903 12.6968 24.6427C13.3498 25.0949 14.2759 24.327 14.1162 23.8993C13.9563 23.4719 13.697 23.4346 13.697 23.4346C13.697 23.4346 13.9991 22.8531 13.5266 22.8982C13.5266 22.8982 13.2487 16.7657 13.3594 12.8726L11.5355 13.2842Z" fill="#FAC3D2"/>
<path d="M11.5725 13.9969C11.8914 14.0798 12.5842 14.2125 13.3239 14.0655C13.5153 14.0274 13.7095 13.9728 13.9012 13.8912C13.9012 13.8912 14.0647 11.2227 13.0014 9.86081C11.938 8.4989 9.50441 7.6756 9.50441 7.6756C6.98593 6.90463 6.15247 6.87583 4.10837 7.91097C3.42266 8.25827 2.37213 9.02875 2.37213 9.02875C2.37213 9.02875 2.20997 10.0003 2.64088 10.7605C2.91969 11.2523 3.0782 11.6096 3.77626 12.002L4.8922 11.2277C4.8922 11.2277 4.29889 13.1205 3.94071 14.8337C3.66259 16.1643 3.30829 19.8048 3.32956 20.2528C3.32956 20.2528 3.84579 20.5716 5.18771 20.7491C7.38711 21.04 9.44585 19.7245 10.4067 20.0187C10.4067 20.0187 10.4234 16.6376 11.3715 13.2342L11.387 13.943C11.387 13.943 11.4563 13.9668 11.5725 13.9969Z" fill="#ECA157"/>
<path d="M9.10809 9.26149C9.54701 9.39595 9.85922 9.37817 10.0779 9.3033C10.3354 9.21541 10.5269 8.97704 10.5994 8.69284L10.7265 8.19455C10.0452 7.85952 9.51522 7.56905 9.51522 7.56905C8.98367 7.40629 7.96608 7.25781 7.96608 7.25781C7.80414 7.89132 8.04728 8.69609 8.56991 9.02085C8.71858 9.11375 8.8963 9.19688 9.10809 9.26149Z" fill="#E0964C"/>
<path d="M4.98946 39.4312C5.22436 39.4042 5.19806 38.5581 5.50478 38.6387C5.81149 38.7193 5.77467 39.1358 5.62737 39.4312C5.48007 39.7267 5.56607 39.9686 5.56607 39.9686C5.56607 39.9686 5.71108 40.2455 6.33687 40.3932C6.96266 40.541 7.31077 40.4388 7.31077 40.4388C7.31077 40.4388 7.66667 40.694 7.44572 41.2849H3.14915C3.14915 41.2849 3.17226 39.4793 3.41905 39.3776C3.66584 39.2757 3.7093 39.7482 3.7093 39.7482L4.98946 39.4312Z" fill="#ECA157"/>
<path d="M3.14905 41.7837H7.44585V41.2859H3.14905V41.7837Z" fill="#39496D"/>
<path d="M5.68117 39.922C5.61393 39.9411 5.58946 40.0042 5.55469 40.0665C5.51192 40.1431 5.47052 40.2162 5.44971 40.3036C5.44376 40.3287 5.46892 40.3505 5.48973 40.3374C5.58786 40.2751 5.75711 40.081 5.7196 39.9461C5.7148 39.928 5.6981 39.9173 5.68117 39.922Z" fill="#273047"/>
<path d="M5.98047 40.1039C5.91894 40.183 5.86542 40.3049 5.843 40.4063C5.82928 40.4682 5.89584 40.5078 5.93792 40.4667C6.01798 40.3888 6.06852 40.2401 6.05228 40.1244C6.04725 40.0906 5.99991 40.0786 5.98047 40.1039Z" fill="#273047"/>
<path d="M6.33254 40.1926C6.24837 40.2461 6.17769 40.4112 6.15299 40.5121C6.13812 40.5729 6.20308 40.604 6.24265 40.5692C6.32545 40.4965 6.41442 40.3403 6.39887 40.2221C6.39452 40.1898 6.35518 40.1783 6.33254 40.1926Z" fill="#273047"/>
<path d="M5.36135 39.7752C5.45947 39.8425 5.62553 39.7546 5.71999 39.7075C5.78586 39.6747 5.92561 39.6136 5.89725 39.5067C5.87072 39.4066 5.76367 39.4526 5.70603 39.4907C5.58504 39.5703 5.46519 39.7085 5.40503 39.8478C5.39863 39.8625 5.41235 39.8821 5.42699 39.8718C5.4963 39.8235 5.55531 39.7644 5.61592 39.704C5.67218 39.6479 5.76047 39.5833 5.80393 39.5345C5.74194 39.6039 5.62141 39.6464 5.54112 39.6747C5.47731 39.6973 5.40572 39.702 5.35929 39.7581C5.35494 39.7634 5.35563 39.7714 5.36135 39.7752Z" fill="#273047"/>
<path d="M11.3372 39.4312C11.5721 39.4042 11.5458 38.5581 11.8526 38.6387C12.1593 38.7193 12.1224 39.1358 11.9751 39.4312C11.8279 39.7267 11.9138 39.9686 11.9138 39.9686C11.9138 39.9686 12.0589 40.2455 12.6846 40.3932C13.3104 40.541 13.6586 40.4388 13.6586 40.4388C13.6586 40.4388 14.0144 40.694 13.7935 41.2849H9.49693C9.49693 41.2849 9.52003 39.4793 9.76683 39.3776C10.0136 39.2757 10.0571 39.7482 10.0571 39.7482L11.3372 39.4312Z" fill="#ECA157"/>
<path d="M9.49694 41.7837H13.7937V41.2859H9.49694V41.7837Z" fill="#39496D"/>
<path d="M12.0291 39.922C11.9618 39.9411 11.9373 40.0042 11.9026 40.0665C11.8598 40.1431 11.8184 40.2162 11.7976 40.3036C11.7916 40.3287 11.8168 40.3505 11.8376 40.3374C11.9357 40.2751 12.105 40.081 12.0675 39.9461C12.0625 39.928 12.0458 39.9173 12.0291 39.922Z" fill="#273047"/>
<path d="M12.3283 40.1039C12.2667 40.183 12.2132 40.3049 12.1908 40.4063C12.1771 40.4682 12.2436 40.5078 12.2857 40.4667C12.3658 40.3888 12.4161 40.2401 12.4001 40.1244C12.3953 40.0906 12.3479 40.0786 12.3283 40.1039Z" fill="#273047"/>
<path d="M12.6805 40.1926C12.5963 40.2461 12.5256 40.4112 12.5009 40.5121C12.486 40.5729 12.551 40.604 12.5906 40.5692C12.6734 40.4965 12.7623 40.3403 12.747 40.2221C12.7424 40.1898 12.7029 40.1783 12.6805 40.1926Z" fill="#273047"/>
<path d="M11.7091 39.7752C11.8072 39.8425 11.9733 39.7546 12.0677 39.7075C12.1336 39.6747 12.2733 39.6136 12.245 39.5067C12.2184 39.4066 12.1112 39.4526 12.0538 39.4907C11.9328 39.5703 11.8129 39.7085 11.7528 39.8478C11.7464 39.8625 11.7601 39.8821 11.7747 39.8718C11.844 39.8235 11.903 39.7644 11.9637 39.704C12.0199 39.6479 12.1082 39.5833 12.1517 39.5345C12.0897 39.6039 11.9691 39.6464 11.8889 39.6747C11.825 39.6973 11.7532 39.702 11.707 39.7581C11.7029 39.7634 11.7036 39.7714 11.7091 39.7752Z" fill="#273047"/>
<path d="M11.7581 36.936C11.9065 37.0172 11.9465 37.7984 11.9351 37.9046C11.9237 38.0107 11.45 38.1545 10.5651 38.342C9.68035 38.5296 9.23503 38.5108 9.20644 38.4169C9.17785 38.3232 8.94844 37.387 9.08659 37.3732C9.22474 37.3597 11.646 36.8747 11.7581 36.936Z" fill="#995247"/>
<path d="M5.63696 37.2686C5.76482 37.3843 5.64291 38.1553 5.60997 38.2559C5.57704 38.3566 5.08574 38.3799 4.18526 38.3441C3.28455 38.3085 2.85477 38.1803 2.84631 38.0819C2.83785 37.9835 2.80697 37.0147 2.94443 37.0355C3.08167 37.0565 5.54067 37.1812 5.63696 37.2686Z" fill="#995247"/>
<path d="M9.76083 4.7651L8.31644 7.39527C8.27664 7.46789 8.25674 7.55077 8.26383 7.63515C8.28419 7.87979 8.40587 8.39486 9.03372 8.80801C9.60461 9.18361 9.95318 9.0817 10.1218 8.97252C10.1888 8.92921 10.2423 8.86685 10.2823 8.79399L10.9641 7.55252C10.9641 7.55252 12.0295 8.2962 12.586 7.28259C13.1425 6.26898 14.8465 3.16606 14.8465 3.16606L11.7558 1.13184L9.92711 2.21806L9.24506 4.46813L9.76083 4.7651Z" fill="#FAC3D2"/>
<path d="M12.5128 4.76985C12.4884 4.91183 12.4854 5.05079 12.4758 5.19427C12.4698 5.28266 12.4584 5.38633 12.38 5.43566C12.2887 5.493 12.1537 5.44417 12.0581 5.42289C12.0048 5.41112 11.9625 5.497 12.0186 5.52554C12.1849 5.61093 12.4138 5.65325 12.5199 5.44242C12.6142 5.25537 12.5744 4.96992 12.5474 4.76985C12.5446 4.75082 12.516 4.75157 12.5128 4.76985Z" fill="#273047"/>
<path opacity="0.1" d="M10.9642 7.55266C10.9642 7.55266 10.2588 7.19785 10.1667 6.08984C10.1667 6.08984 9.85148 7.12198 10.8425 7.77451L10.9642 7.55266Z" fill="black"/>
<path d="M13.121 4.84074C13.0492 4.9717 13.0437 5.11243 13.1087 5.15525C13.1736 5.19806 13.2846 5.1267 13.3564 4.99575C13.4282 4.86479 13.4339 4.72406 13.3687 4.6815C13.3038 4.63843 13.1928 4.70979 13.121 4.84074Z" fill="#273047"/>
<path d="M12.1337 4.19146C12.0618 4.32242 12.0561 4.46314 12.1213 4.50571C12.1863 4.54853 12.2972 4.47717 12.369 4.34621C12.4408 4.21525 12.4466 4.07453 12.3814 4.03196C12.3166 3.98914 12.2057 4.0605 12.1337 4.19146Z" fill="#273047"/>
<path d="M10.0138 0.85222C10.2608 0.462352 10.7533 0.14986 11.1849 0.191175C12.148 0.283071 13.3998 1.46645 13.8383 1.75265C14.406 2.12324 15.2443 1.72711 15.4453 2.14302C15.6953 2.66009 14.8529 4.22582 14.7095 4.45669C14.6285 4.5869 14.5293 4.70708 14.4035 4.78321C14.0771 4.98052 13.6084 4.78446 13.4851 4.39935L13.1029 3.9932C12.9689 3.9316 12.8292 3.88303 12.7082 3.79564C12.6078 3.72327 12.5234 3.62587 12.4191 3.56052C12.2297 3.44183 11.9925 3.44333 11.7839 3.51369C11.5753 3.58405 11.1636 4.2108 11.2098 3.85273C11.251 3.53322 11.3756 3.28032 11.1565 3.1386C10.9372 2.99687 10.6069 3.16989 10.5772 3.44683C10.5625 3.58455 10.611 3.72879 10.5705 3.86C10.5003 4.08786 10.2041 4.15671 10.1357 4.38533C10.1099 4.47146 10.1222 4.56636 10.103 4.65475C10.049 4.90264 9.7645 5.04312 9.74575 5.29702C9.45253 5.10146 9.25857 4.75842 9.16822 4.39584C9.07765 4.03327 9.08177 3.65016 9.11447 3.27582C9.1545 2.81859 9.23844 2.36061 9.41867 1.94545C9.59868 1.53029 9.7748 1.22982 10.0138 0.85222Z" fill="#1D2873"/>
<path d="M11.8713 6.21961C11.6433 5.98599 11.4143 5.85078 11.2924 5.95194C11.1705 6.0531 11.2686 6.57768 11.4271 6.73994C11.5854 6.90194 12.372 6.73192 11.8713 6.21961Z" fill="white"/>
<path d="M27.6294 31.4058L28.4011 40.0923C28.4011 40.3362 29.3977 40.534 30.6271 40.534C31.8565 40.534 32.853 40.3362 32.853 40.0923L33.6256 31.4058H27.6294Z" fill="#BE7667"/>
<path d="M33.2922 31.3917C32.7069 31.2249 31.7321 31.1157 30.6273 31.1157C29.5226 31.1157 28.5478 31.2249 27.9625 31.3917H27.3857V31.7562C27.3857 32.11 28.8369 32.397 30.6273 32.397C32.4176 32.397 33.8688 32.11 33.8688 31.7562V31.3917H33.2922Z" fill="#995247"/>
<path d="M33.869 31.3922C33.869 31.746 32.4178 32.033 30.6276 32.033C28.8373 32.033 27.3859 31.746 27.3859 31.3922C27.3859 31.0384 28.8371 30.7515 30.6276 30.7515C32.4178 30.7515 33.869 31.0384 33.869 31.3922Z" fill="#BE7667"/>
<path d="M30.6275 31.0762C28.9999 31.0762 27.6804 31.3368 27.6804 31.6586C28.1925 31.8792 29.319 32.0324 30.6275 32.0324C31.936 32.0324 33.0627 31.8792 33.5746 31.6586C33.5746 31.3371 32.2551 31.0762 30.6275 31.0762Z" fill="#7C3831"/>
<path d="M18.9972 39.915C18.9826 39.8429 18.97 39.7701 18.9526 39.6987C18.9482 39.6807 18.9446 39.6619 18.9412 39.6434C18.9608 39.749 18.9391 39.6236 18.9267 39.582C18.9123 39.5334 18.8961 39.4853 18.8805 39.437C18.8389 39.3063 18.7971 39.1756 18.7552 39.0449C18.4451 38.0766 18.131 37.1098 17.8158 36.1436C17.233 34.3572 16.6487 32.5721 16.0471 30.7931C15.1135 28.0327 14.151 25.2841 13.1915 22.5345C11.8482 18.6844 10.4969 14.8375 9.14402 10.9914C8.94252 10.4188 8.73095 9.84935 8.55026 9.26843C8.41302 8.82698 7.82978 9.08063 8.00475 9.52008C8.44916 10.6348 8.82335 11.7887 9.22568 12.9222C9.59026 13.9491 9.95439 14.9762 10.3183 16.0034C10.9729 17.8518 11.6264 19.7007 12.2784 21.5502C13.2855 24.4069 14.2773 27.2705 15.2914 30.1245C15.9586 32.0022 16.6169 33.884 17.3035 35.7532C17.6857 36.7936 18.0516 37.8412 18.4199 38.8874C18.5102 39.1438 18.5935 39.4045 18.69 39.6581C18.7113 39.714 18.7653 39.8968 18.8348 39.9751C18.8373 39.9779 18.8387 39.9836 18.8403 39.9872C18.886 40.0858 19.0175 40.0152 18.9972 39.915Z" fill="#273047"/>
<path d="M2.34405 9.57178C0.882282 11.0827 0.324883 12.1363 1.78803 13.681C3.64823 15.6449 9.73822 14.569 9.73822 14.569C9.73822 14.569 9.73593 14.8304 10.0722 14.9939C10.4903 15.1974 10.7183 15.1394 10.7265 14.128C10.7295 13.7567 10.5413 13.5869 10.1254 13.3991C9.74302 13.2263 9.45963 13.5348 9.45963 13.5348C9.45963 13.5348 3.53341 13.4717 3.48401 11.8181C3.14207 11.5371 2.81065 11.0599 2.64116 10.7609C2.41701 10.3658 2.35366 9.91507 2.34405 9.57178Z" fill="#FAC3D2"/>
<path d="M17.4231 41.1409C17.3305 41.2521 17.1372 41.2558 17.0999 41.4003C17.0848 41.4587 17.1034 41.5202 17.1217 41.5773C17.2068 41.8438 17.2916 42.1102 17.3767 42.3766C17.4563 42.626 17.556 42.9007 17.7749 43.0119C17.8051 43.0271 17.8383 43.0389 17.8712 43.0341C17.9094 43.0286 17.9421 43.0019 17.973 42.9766C18.5697 42.4838 19.2511 42.1322 19.9075 41.7411C20.6536 41.2966 21.3725 40.7976 22.0577 40.2482C22.1149 40.2024 22.1735 40.1543 22.2082 40.0867C22.2613 39.9836 22.248 39.8514 22.1982 39.7464C22.1483 39.6415 22.0667 39.5591 21.9827 39.4848C21.7803 39.3055 21.5557 39.1595 21.3318 39.014C21.2865 38.9845 21.2389 38.9544 21.1863 38.9502C21.1241 38.9454 21.0649 38.978 21.01 39.0105C20.8146 39.1257 20.6237 39.2502 20.4382 39.3836" fill="#ECA157"/>
<path d="M21.4248 39.1674C21.4127 39.1339 21.3834 39.1121 21.356 39.0923C21.2498 39.0164 21.1435 38.9406 21.0373 38.8647C20.9523 38.8038 20.8601 38.7407 20.7585 38.7432C20.6709 38.7455 20.5916 38.7961 20.5163 38.8452C20.1638 39.0758 19.8116 39.3064 19.4594 39.537C19.4123 39.4509 19.3649 39.365 19.31 39.2846C19.2506 39.1977 19.1762 39.1081 19.0776 39.0971C19.0266 39.0913 18.9759 39.1078 18.9269 39.1243C18.7968 39.1679 18.6669 39.2112 18.5367 39.2548C18.4782 39.2743 18.415 39.2976 18.3812 39.3535C18.3343 39.4308 18.3636 39.534 18.3942 39.6206C18.453 39.7869 18.5118 39.9529 18.5706 40.1192C18.1776 40.3766 17.7844 40.6337 17.3915 40.8911C17.3204 40.8548 17.2344 40.9275 17.2179 41.0116C17.2012 41.0965 17.2321 41.1829 17.2623 41.263C17.3327 41.45 17.4366 41.6656 17.6204 41.6854C17.7211 41.6962 17.8169 41.6421 17.9059 41.5895C18.8986 41.0021 19.8832 40.3981 20.8592 39.7776C21.0572 39.6517 21.2613 39.5187 21.3914 39.3124C21.4179 39.2696 21.4422 39.2157 21.4248 39.1674Z" fill="#39496D"/>
<path d="M20.5665 41.7536C21.1662 41.7536 21.3851 41.3582 21.9123 41.2183C22.3761 41.0951 23.0543 41.3875 23.4257 41.0595C23.8443 40.6897 24.2302 40.2758 24.5767 39.8253C24.8591 39.458 25.1219 39.0596 25.4861 38.7919C25.8502 38.5243 26.3532 38.4146 26.7246 38.6697C27.0851 38.9174 27.2134 39.4117 27.3929 39.8341C27.9371 41.1131 29.1973 41.8888 30.5155 41.8888" fill="white"/>
</svg>
