<svg width="42" height="56" viewBox="0 0 42 56" fill="none" xmlns="http://www.w3.org/2000/svg">
<path opacity="0.1" d="M33.4003 26.5161L0.453983 47.3402L14.1963 53.1403L41.546 35.8541V32.3167L33.4003 26.5161Z" fill="black"/>
<path d="M14.513 18.5322L12.8364 17.4727L40.1834 0.1875L41.86 1.24746L14.513 18.5322Z" fill="#EFE1BC"/>
<path d="M14.513 53.1401L12.8364 52.0806V17.4727L14.513 18.5321V53.1401Z" fill="#CAA58B"/>
<path d="M14.513 53.1398V18.5318L41.86 1.24707V35.855L14.513 53.1398Z" fill="#DEBE97"/>
<path d="M17.3602 44.4991L16.2656 45.1908C16.2269 45.2152 16.1918 45.2181 16.166 45.2025C16.1397 45.1865 16.1232 45.1514 16.1232 45.1007V43.7173C16.1232 43.6179 16.1869 43.4971 16.2656 43.4475L17.3602 42.7558C17.3994 42.7309 17.435 42.7285 17.4608 42.7445C17.4866 42.7606 17.5026 42.7957 17.5026 42.8454V44.2288C17.5026 44.3286 17.439 44.4495 17.3602 44.4991Z" fill="#F8F4F5"/>
<path d="M17.0612 42.4918C17.0354 42.4757 16.9998 42.4777 16.9606 42.5025L15.8661 43.1942C15.7873 43.2439 15.7237 43.3647 15.7237 43.4641L16.1237 43.7169C16.1237 43.6175 16.1873 43.4967 16.2661 43.447L17.3607 42.7553C17.3998 42.7305 17.4354 42.7281 17.4612 42.7441C17.4612 42.7441 17.087 42.5084 17.0612 42.4918Z" fill="#E6DFE0"/>
<path d="M16.1237 45.1011V43.7177L15.7237 43.4648V44.8482C15.7237 44.8979 15.7397 44.933 15.7655 44.9491C15.7913 44.9652 16.1664 45.2024 16.1664 45.2024C16.1402 45.1868 16.1237 45.1512 16.1237 45.1011Z" fill="#D6C7CA"/>
<path d="M17.3464 42.8862L16.2794 43.5609L16.2799 45.0592L17.3464 44.3851V42.8862Z" fill="#3E333B"/>
<path d="M16.8912 44.0437L17.3388 43.7593L17.6031 44.3248L17.1559 44.6093L16.8912 44.0437Z" fill="#FEB938"/>
<path d="M17.0162 43.4476L17.4634 43.1626L17.3388 43.7593L16.8912 44.0438L17.0162 43.4476Z" fill="#FB7610"/>
<path d="M16.8377 43.2811L17.2849 42.9966L17.4633 43.1627L17.0161 43.4476L16.8377 43.2811Z" fill="#FEB938"/>
<path d="M16.8378 43.2808L17.0162 43.4473L16.8912 44.0436L17.1559 44.6091L16.8338 44.6344L16.8378 43.2808Z" fill="#E0660B"/>
<path d="M16.3964 44.3567L16.844 44.0723L17.1088 44.6378L16.6612 44.9223L16.3964 44.3567Z" fill="#FEB938"/>
<path d="M16.5215 43.7605L16.9691 43.4756L16.844 44.0723L16.3964 44.3568L16.5215 43.7605Z" fill="#FB7610"/>
<path d="M16.3429 43.5941L16.7901 43.3096L16.969 43.4757L16.5214 43.7606L16.3429 43.5941Z" fill="#FEB938"/>
<path d="M16.343 43.5942L16.5214 43.7608L16.3964 44.357L16.6612 44.9226L16.339 44.9474L16.343 43.5942Z" fill="#FC9617"/>
<path opacity="0.2" d="M35.1391 42.918L29.9332 46.2079L33.5653 48.5037L35.4029 48.4136L38.7708 46.2849V45.2133L35.1391 42.918Z" fill="black"/>
<path opacity="0.3" d="M28.916 21.9618L29.943 17.1949L17.5987 24.997L17.3963 29.0619L24.519 24.5601L24.3473 28.3303L38.5995 19.3221L38.9897 15.5947L28.916 21.9618Z" fill="black"/>
<path d="M41.1842 16.4982L32.1152 22.23L29.9429 20.8569L39.0119 15.125L41.1842 16.4982Z" fill="#D46D17"/>
<path d="M41.1842 16.9705L32.1152 22.7024V22.2299L41.1842 16.498V16.9705Z" fill="#C75123"/>
<path d="M29.943 20.8564V21.3289L32.1152 22.7021V22.2296L29.943 20.8564Z" fill="#C75123"/>
<path d="M32.1152 22.2296L29.2186 24.0607L27.0463 22.6875L29.9429 20.8564L32.1152 22.2296Z" fill="#D46D17"/>
<path d="M32.1152 22.702L29.2186 24.5331V24.0606L32.1152 22.2295V22.702Z" fill="#C75123"/>
<path d="M27.0463 22.6875V23.16L29.2186 24.5332V24.0607L27.0463 22.6875Z" fill="#C75123"/>
<path d="M31.7414 19.2769V22.466L29.5687 21.0928V20.65L31.7414 19.2769Z" fill="#AD3D2B"/>
<path d="M32.1152 19.0405V22.2297L31.7414 22.4659V19.2768L32.1152 19.0405Z" fill="#C75123"/>
<path d="M32.1152 18.568L28.8448 20.6348L26.6726 19.2617L29.9429 17.1948L32.1152 18.568Z" fill="#D46D17"/>
<path d="M32.1152 19.0404L28.8448 21.1072V20.6347L32.1152 18.5679V19.0404Z" fill="#C75123"/>
<path d="M28.8448 20.6349L19.7758 26.3672L17.6031 24.9941L26.6726 19.2617L28.8448 20.6349Z" fill="#D46D17"/>
<path d="M28.8448 21.1073L19.7758 26.8396V26.3671L28.8448 20.6348V21.1073Z" fill="#C75123"/>
<path d="M17.6031 24.9946V25.4671L19.7758 26.8403V26.3678L17.6031 24.9946Z" fill="#AD3D2B"/>
<path d="M28.8448 21.1074V24.7695L26.6726 23.3964V22.4806L28.8448 21.1074Z" fill="#AD3D2B"/>
<path d="M29.2186 20.8711V24.5332L28.8448 24.7695V21.1073L29.2186 20.8711Z" fill="#C75123"/>
<path d="M19.9054 22.9667C19.7785 23.0466 19.6762 23.2414 19.6762 23.4012V23.7845L20.1345 23.4947V23.1114C20.1345 23.032 20.1091 22.9759 20.0682 22.9491C20.0264 22.9233 19.969 22.9267 19.9054 22.9667ZM19.9054 23.3978C19.8435 23.4367 19.7937 23.4051 19.7937 23.3271C19.7937 23.2492 19.8435 23.1542 19.9054 23.1152C19.9672 23.0763 20.017 23.1079 20.017 23.1859C20.017 23.2638 19.9672 23.3588 19.9054 23.3978Z" fill="#E6DFE0"/>
<path d="M19.9053 22.9669C19.969 22.9265 20.0264 22.9231 20.0682 22.9499C20.0682 22.9499 20.0286 22.9236 19.9859 22.8977C19.9445 22.8729 19.888 22.8773 19.8257 22.9167C19.6989 22.9966 19.5965 23.1915 19.5965 23.3512V23.7346L19.6762 23.7848V23.4014C19.6762 23.2416 19.7785 23.0473 19.9053 22.9669Z" fill="#F8F4F5"/>
<path d="M19.9374 23.1357C19.9374 23.2136 19.8875 23.3086 19.8257 23.3476C19.8159 23.3539 19.8066 23.3583 19.7972 23.3607C19.8097 23.4133 19.8533 23.4304 19.9053 23.3978C19.9672 23.3588 20.017 23.2638 20.017 23.1859C20.017 23.1201 19.9814 23.0875 19.9338 23.1021C19.936 23.1123 19.9374 23.1235 19.9374 23.1357Z" fill="#D6C7CA"/>
<path d="M19.9672 23.3867C20.0108 23.414 20.0811 23.3697 20.1247 23.2874C20.1683 23.205 20.1683 23.1159 20.1247 23.0886C20.0811 23.0613 20.0108 23.1057 19.9672 23.188C19.9236 23.2703 19.9236 23.359 19.9672 23.3867Z" fill="#363636"/>
<path d="M19.9258 23.1618C19.9694 23.0795 20.0397 23.0347 20.0834 23.0624C20.0963 23.0707 20.1247 23.0887 20.1247 23.0887C20.0811 23.0615 20.0108 23.1058 19.9672 23.1881C19.9236 23.2704 19.9236 23.3596 19.9672 23.3868C19.9672 23.3868 19.9414 23.3708 19.9258 23.3605C19.8822 23.3333 19.8822 23.2441 19.9258 23.1618Z" fill="#666666"/>
<path d="M19.9356 23.1016C19.9258 23.104 19.9156 23.1089 19.9054 23.1152C19.8827 23.1293 19.8618 23.1512 19.8444 23.1766C19.8644 23.1892 19.8849 23.2019 19.9045 23.2146C19.9098 23.197 19.9165 23.179 19.9258 23.1615C19.9352 23.1439 19.9454 23.1284 19.957 23.1147C19.9499 23.1103 19.9427 23.1059 19.9356 23.1016Z" fill="#363636"/>
<path d="M27.6782 18.0544C27.5514 18.1343 27.449 18.3292 27.449 18.4889V18.8723L27.9073 18.5825V18.1991C27.9073 18.1197 27.882 18.0637 27.841 18.0369C27.7992 18.0106 27.7418 18.014 27.6782 18.0544ZM27.6782 18.485C27.6163 18.524 27.5665 18.4923 27.5665 18.4144C27.5665 18.3365 27.6163 18.2415 27.6782 18.2025C27.74 18.1635 27.7899 18.1952 27.7899 18.2731C27.7899 18.3516 27.7396 18.4466 27.6782 18.485Z" fill="#E6DFE0"/>
<path d="M27.6782 18.0543C27.7418 18.0139 27.7996 18.0105 27.841 18.0373C27.841 18.0373 27.8014 18.011 27.7587 17.9852C27.7173 17.9603 27.6608 17.9647 27.5985 18.0037C27.4717 18.0836 27.3694 18.2784 27.3694 18.4382V18.8215L27.449 18.8722V18.4888C27.449 18.3291 27.5514 18.1342 27.6782 18.0543Z" fill="#F8F4F5"/>
<path d="M27.7102 18.2231C27.7102 18.301 27.6604 18.396 27.5985 18.435C27.5887 18.4413 27.5794 18.4457 27.57 18.4481C27.5825 18.5007 27.6261 18.5183 27.6782 18.4852C27.74 18.4462 27.7898 18.3512 27.7898 18.2733C27.7898 18.2075 27.7542 18.1749 27.7066 18.1895C27.7089 18.1997 27.7102 18.2109 27.7102 18.2231Z" fill="#D6C7CA"/>
<path d="M27.74 18.4746C27.7836 18.5019 27.8539 18.4576 27.8975 18.3752C27.9411 18.2929 27.9411 18.2038 27.8975 18.1765C27.8539 18.1492 27.7836 18.1935 27.74 18.2759C27.6964 18.3582 27.6964 18.4473 27.74 18.4746Z" fill="#363636"/>
<path d="M27.6986 18.2495C27.7422 18.1672 27.8125 18.1229 27.8561 18.1501C27.8691 18.1584 27.8975 18.1764 27.8975 18.1764C27.8539 18.1492 27.7836 18.1935 27.74 18.2758C27.6964 18.3581 27.6964 18.4473 27.74 18.4746C27.74 18.4746 27.7142 18.4585 27.6986 18.4482C27.655 18.421 27.655 18.3318 27.6986 18.2495Z" fill="#666666"/>
<path d="M27.7084 18.1895C27.6986 18.1919 27.6884 18.1968 27.6782 18.2031C27.6555 18.2172 27.6346 18.2391 27.6172 18.2645C27.6372 18.2771 27.6577 18.2898 27.6773 18.3025C27.6826 18.2849 27.6893 18.2669 27.6986 18.2494C27.708 18.2318 27.7182 18.2162 27.7298 18.2026C27.7227 18.1982 27.7155 18.1938 27.7084 18.1895Z" fill="#363636"/>
<path d="M32.5446 18.6399C32.4178 18.7198 32.3154 18.9146 32.3154 19.0744V19.4577L32.7737 19.1679V18.7846C32.7737 18.7052 32.7484 18.6491 32.7074 18.6223C32.6656 18.596 32.6082 18.5995 32.5446 18.6399ZM32.5446 19.0705C32.4827 19.1095 32.4329 19.0778 32.4329 18.9999C32.4329 18.9219 32.4827 18.8269 32.5446 18.788C32.6064 18.749 32.6563 18.7807 32.6563 18.8586C32.6563 18.937 32.606 19.0315 32.5446 19.0705Z" fill="#E6DFE0"/>
<path d="M32.5446 18.6403C32.6082 18.5999 32.6656 18.5964 32.7074 18.6232C32.7074 18.6232 32.6678 18.5969 32.6251 18.5711C32.5837 18.5463 32.5272 18.5507 32.4649 18.5896C32.3381 18.6695 32.2358 18.8644 32.2358 19.0241V19.4075L32.3154 19.4581V19.0748C32.315 18.915 32.4178 18.7202 32.5446 18.6403Z" fill="#F8F4F5"/>
<path d="M32.5762 18.8085C32.5762 18.8865 32.5263 18.9815 32.4645 19.0204C32.4547 19.0268 32.4454 19.0312 32.436 19.0336C32.4485 19.0862 32.4921 19.1032 32.5441 19.0706C32.606 19.0316 32.6558 18.9366 32.6558 18.8587C32.6558 18.793 32.6207 18.7603 32.5726 18.7749C32.5753 18.7852 32.5762 18.7964 32.5762 18.8085Z" fill="#D6C7CA"/>
<path d="M32.606 19.0601C32.6496 19.0873 32.7199 19.043 32.7635 18.9607C32.8071 18.8784 32.8071 18.7892 32.7635 18.7619C32.7199 18.7347 32.6496 18.779 32.606 18.8613C32.5628 18.9436 32.5628 19.0328 32.606 19.0601Z" fill="#363636"/>
<path d="M32.5646 18.8345C32.6082 18.7521 32.6785 18.7078 32.7221 18.7351C32.735 18.7434 32.7635 18.7614 32.7635 18.7614C32.7199 18.7341 32.6496 18.7784 32.606 18.8608C32.5624 18.9431 32.5624 19.0322 32.606 19.0595C32.606 19.0595 32.5802 19.0429 32.5646 19.0332C32.5214 19.0059 32.5214 18.9168 32.5646 18.8345Z" fill="#666666"/>
<path d="M32.5748 18.7749C32.5651 18.7773 32.5553 18.7817 32.5446 18.7885C32.5219 18.8027 32.501 18.8246 32.4836 18.8499C32.5036 18.8626 32.5241 18.8752 32.5437 18.8879C32.549 18.8704 32.5557 18.8524 32.565 18.8348C32.5744 18.8173 32.5846 18.8017 32.5962 18.7881C32.5886 18.7837 32.582 18.7793 32.5748 18.7749Z" fill="#363636"/>
<path d="M37.3278 15.6168C37.2015 15.6967 37.0987 15.8915 37.0987 16.0513V16.4347L37.557 16.1448V15.7615C37.557 15.6821 37.5316 15.626 37.4907 15.5992C37.4488 15.5729 37.3914 15.5768 37.3278 15.6168ZM37.3278 16.0479C37.266 16.0868 37.2161 16.0552 37.2161 15.9772C37.2161 15.8993 37.266 15.8043 37.3278 15.7654C37.3897 15.7264 37.4395 15.758 37.4395 15.836C37.4395 15.9139 37.3892 16.0089 37.3278 16.0479Z" fill="#E6DFE0"/>
<path d="M37.3278 15.6163C37.3914 15.5759 37.4488 15.5725 37.4907 15.5993C37.4907 15.5993 37.4506 15.573 37.4083 15.5472C37.367 15.5223 37.3105 15.5267 37.2482 15.5662C37.1218 15.646 37.019 15.8409 37.019 16.0007V16.384L37.0987 16.4342V16.0508C37.0987 15.8911 37.201 15.6967 37.3278 15.6163Z" fill="#F8F4F5"/>
<path d="M37.3594 15.7856C37.3594 15.8635 37.3096 15.9585 37.2477 15.9975C37.2379 16.0038 37.2286 16.0082 37.2193 16.0106C37.2317 16.0632 37.2753 16.0803 37.3274 16.0477C37.3892 16.0087 37.4391 15.9137 37.4391 15.8358C37.4391 15.77 37.4039 15.7374 37.3558 15.752C37.3585 15.7617 37.3594 15.7729 37.3594 15.7856Z" fill="#D6C7CA"/>
<path d="M37.3892 16.0371C37.4328 16.0644 37.5031 16.0201 37.5467 15.9377C37.5904 15.8554 37.5904 15.7663 37.5467 15.739C37.5031 15.7117 37.4328 15.7561 37.3892 15.8384C37.3461 15.9202 37.3461 16.0093 37.3892 16.0371Z" fill="#363636"/>
<path d="M37.3479 15.8122C37.3915 15.7299 37.4618 15.6851 37.5054 15.7128C37.5183 15.7206 37.5468 15.7391 37.5468 15.7391C37.5032 15.7118 37.4329 15.7562 37.3893 15.8385C37.3456 15.9208 37.3456 16.01 37.3893 16.0372C37.3893 16.0372 37.3634 16.0212 37.3479 16.0109C37.3047 15.9837 37.3047 15.8945 37.3479 15.8122Z" fill="#666666"/>
<path d="M37.3581 15.751C37.3483 15.7534 37.3385 15.7578 37.3278 15.7646C37.3052 15.7787 37.2842 15.8007 37.2669 15.826C37.2869 15.8387 37.3074 15.8513 37.327 15.864C37.3323 15.8465 37.339 15.8284 37.3483 15.8109C37.3577 15.7934 37.3679 15.7778 37.3795 15.7641C37.3723 15.7597 37.3652 15.7554 37.3581 15.751Z" fill="#363636"/>
<path d="M35.4029 45.7814V48.4138L35.6695 48.2452V45.645L35.4287 45.7975L35.4029 45.7814Z" fill="#D46D17"/>
<path d="M33.9124 46.3901L33.6725 47.3205L33.9395 47.152L34.1019 46.5212L34.0992 46.5085L33.9124 46.3901Z" fill="#A14D02"/>
<path d="M32.6091 44.0151V46.648L33.6725 47.3202L33.9124 46.3898L34.0992 46.5082L34.3391 47.7416L35.4029 48.4138V45.7814L32.6091 44.0151Z" fill="#BF5902"/>
<g opacity="0.3">
<path d="M35.6695 45.645L35.4287 45.7975L32.6091 44.0151V46.648L33.6725 47.3202L33.9395 47.1517L34.0663 46.6587L34.1219 46.6236L34.3391 47.7416L35.4029 46.362L35.6695 46.1935V45.645Z" fill="black"/>
</g>
<path d="M36.9118 44.8599L36.785 45.3529L37.0515 45.1844L37.1787 44.6909L36.9118 44.8599Z" fill="#A14D02"/>
<path d="M38.5149 46.4465L38.7815 46.2774V43.6777L38.5149 43.8463V46.4465Z" fill="#D46D17"/>
<path d="M36.4584 45.1468L36.785 45.3533L36.9118 44.8604L37.2339 44.6563L37.4511 45.7742L38.5149 46.4469V43.8467L36.4584 45.1468Z" fill="#BF5902"/>
<g opacity="0.5">
<path d="M38.7814 43.6777L36.4584 45.1464L36.785 45.3529L37.0515 45.1844L37.1787 44.6909L37.2339 44.6559L37.4511 45.7738L38.5149 44.3948L38.7814 44.2262V43.6777Z" fill="black"/>
</g>
<path d="M31.8718 43.0718V43.5492L35.4288 45.7972V45.3198L31.8718 43.0718Z" fill="#BF5902"/>
<path d="M39.5187 42.7354V43.2127L35.4287 45.7978V45.3205L39.5187 42.7354Z" fill="#D46D17"/>
<path d="M35.9622 40.4868L31.8718 43.0719L35.4287 45.32L39.5187 42.7349L35.9622 40.4868Z" fill="#E38030"/>
<path opacity="0.4" d="M34.5544 44.768C35.3981 44.7392 36.3841 44.445 37.2041 43.9262C38.0954 43.3626 38.5683 42.6758 38.5376 42.1151L36.9127 41.0878C36.0254 41.0683 34.9384 41.3674 34.0472 41.931C33.2272 42.4493 32.7608 43.0728 32.7159 43.6057L34.5544 44.768Z" fill="black"/>
<path d="M31.5506 19.2666C31.5563 19.2295 31.5777 19.213 31.5884 19.21C31.6996 19.1784 31.8202 19.2519 31.8967 19.346C31.9288 19.3849 31.9862 19.4785 32.0075 19.5252C32.0444 19.3966 32.0289 19.286 32.0409 19.1876C32.0569 19.0576 32.0556 18.9826 32.0191 18.8145C31.9995 18.7244 31.9657 18.6255 32.0048 18.5432C32.0129 18.5261 32.0244 18.5106 32.0396 18.5008C32.0694 18.4823 32.1067 18.4901 32.1392 18.5018C32.2473 18.5417 32.4289 18.6338 32.5517 18.796C32.6959 18.987 32.7586 19.138 32.7937 19.212C32.8707 19.3732 32.9059 19.5554 32.9246 19.7357C32.9437 19.9159 32.925 20.1054 32.8449 20.2642C32.8356 20.2832 32.767 20.3475 32.743 20.3577C32.6362 20.4045 32.5197 20.4395 32.4071 20.4152C32.3599 20.4049 32.3145 20.385 32.2714 20.3616C32.0453 20.2383 31.8647 20.0191 31.7757 19.7605C31.7543 19.6981 31.7374 19.6329 31.7001 19.5807C31.6698 19.5389 31.6275 19.5082 31.5968 19.4663C31.5563 19.4117 31.5394 19.3367 31.5506 19.2666Z" fill="#FFCEA1"/>
<path d="M32.1348 20.3504C32.1855 20.2081 32.2731 20.08 32.3946 19.9845C32.5343 19.8749 32.6967 19.8258 32.856 19.8321C32.9294 19.835 33.0024 19.8501 33.0718 19.8759C33.2124 19.9285 33.3406 20.0289 33.434 20.1711C33.434 20.1711 35.1012 22.7153 35.1021 22.7163C35.4741 23.2833 35.0274 24.0963 34.3933 23.9984C34.1927 23.9677 34.0098 23.8459 33.8919 23.6662L32.2246 21.1215C32.0716 20.8896 32.0471 20.5988 32.1348 20.3504Z" fill="#D9B9AE"/>
<path d="M34.9869 22.6391C34.6607 22.3649 34.1935 22.4316 33.9426 22.7886C33.6921 23.1457 33.863 23.7565 34.1887 24.0313L36.2559 25.6889C36.582 25.9632 37.0497 25.8964 37.3002 25.5394C37.5507 25.1823 37.4897 24.6708 37.1636 24.3961L34.9869 22.6391Z" fill="#D9B9AE"/>
<path d="M35.8047 41.7422C35.8047 41.2887 36.2924 41.0388 37.0168 41.2482L37.7532 41.0631C37.9966 41.0022 38.2288 41.2044 38.2288 41.4777V42.5401L38.2221 42.5376C38.2319 42.638 38.1817 42.7398 38.0606 42.8167C37.8359 42.9585 37.472 42.9585 37.2473 42.8167L35.9738 42.0115C35.8568 41.9375 35.8038 41.8396 35.8092 41.7427L35.8047 41.7422Z" fill="black"/>
<path d="M37.7096 36.5306L35.7108 36.5599L35.71 36.5116L35.6793 33.9923L35.6401 30.7968L37.5409 30.7671C37.5409 30.7671 37.8617 31.4159 37.8617 32.6108C37.8617 33.6357 37.6784 34.2436 37.7038 36.064L37.7096 36.5306Z" fill="#0258BF"/>
<path d="M35.7113 36.5126C35.7536 36.119 36.0156 35.4473 36.3671 35.3518C36.6581 35.2724 36.9411 35.3474 37.2179 35.5837C37.4951 35.8199 37.7051 36.2145 37.7091 36.5311C37.7273 37.4839 37.9908 39.3637 38.324 41.4076C38.3396 41.5664 38.2595 41.7359 38.0798 41.8791C37.7207 42.166 37.1004 42.2391 36.6937 42.0418C36.4904 41.9434 36.3792 41.7963 36.3636 41.6375C36.2888 41.4183 35.669 36.9062 35.7113 36.5126Z" fill="#0258BF"/>
<path d="M38.1149 40.0791L38.0513 39.6533C38.0687 39.8131 38.005 39.9802 37.8253 40.1273C37.4657 40.4215 36.8401 40.5028 36.4277 40.3095C36.2283 40.2159 36.1224 40.0747 36.0993 39.9212L36.1567 40.3319C36.1798 40.4951 36.2773 40.6383 36.4833 40.7352C36.8958 40.9291 37.5214 40.8472 37.8809 40.553C38.0611 40.4049 38.1398 40.2427 38.1149 40.0791Z" fill="#FFC50C"/>
<path opacity="0.2" d="M36.6408 33.6172C36.1798 34.2524 35.8781 35.9164 35.875 38.2151C35.8163 37.6252 35.7398 37.3738 35.7095 36.5116L35.6788 33.9923C36.0259 33.9918 36.3729 33.8593 36.6408 33.6172Z" fill="#1D1D1B"/>
<path d="M33.2116 43.3972C33.2116 42.9442 33.6992 42.6938 34.4236 42.9033L35.0283 42.7513C35.3389 42.6733 35.6356 42.9315 35.6356 43.2808V44.1956L35.629 44.1931C35.6388 44.2935 35.5885 44.3953 35.4674 44.4722C35.2427 44.614 34.8788 44.614 34.6541 44.4722L33.3806 43.667C33.2636 43.593 33.2107 43.4951 33.216 43.3982L33.2116 43.3972Z" fill="black"/>
<path d="M34.1276 31.7925L33.5494 37.522L35.5362 37.7622L36.1143 32.0328L34.1276 31.7925Z" fill="#0258BF"/>
<path d="M33.5377 37.5703C33.6089 37.1816 33.903 36.8854 34.2603 36.8211C34.5562 36.768 34.8352 36.9122 35.0915 37.1275C35.3478 37.3428 35.4301 37.5571 35.528 37.7642C35.4559 38.8826 35.6352 41.3225 35.7398 43.1248C35.7304 43.2841 35.625 43.4361 35.4256 43.5438C35.027 43.7591 34.4045 43.7143 34.0347 43.4444C33.8501 43.3095 33.7633 43.1434 33.7731 42.9841C33.7139 42.7585 33.4665 37.9595 33.5377 37.5703Z" fill="#0258BF"/>
<path d="M35.6303 41.3198C35.6285 41.4859 35.5475 41.6491 35.3518 41.7733C34.9602 42.0222 34.3297 42.0149 33.943 41.7572C33.7562 41.633 33.6654 41.4893 33.6556 41.3145L33.6801 41.7475C33.6903 41.9195 33.7562 42.0714 33.9506 42.2C34.3399 42.4577 34.9753 42.465 35.3696 42.2161C35.5667 42.0919 35.6641 41.9345 35.6574 41.768L35.6303 41.3198Z" fill="#FFC50C"/>
<path d="M37.6183 31.1209C37.7469 32.1726 34.097 33.5555 34.0636 32.306C34.0084 30.246 33.7993 29.3288 33.7179 28.1168C33.628 27.0038 33.5564 26.1075 33.5564 26.1075C33.7281 25.5999 34.0538 25.1805 35.2467 24.6004C35.9097 24.2779 36.2194 24.2258 36.7048 24.2482C37.5903 24.2891 37.674 25.4689 37.7047 26.2074C37.738 27.016 37.6375 27.789 37.5761 28.5898C37.5115 29.433 37.5467 30.2796 37.6183 31.1209Z" fill="#0258BF"/>
<path d="M34.5918 25.6139C35.229 25.9866 35.1208 26.8512 35.1262 27.6257C35.1315 28.3997 34.6229 28.4675 34.0552 28.2677C33.9346 28.2263 33.7842 28.1762 33.7184 28.1172C33.62 27.0149 33.5568 26.1079 33.5568 26.1079C33.6093 25.953 33.6805 25.8059 33.7824 25.6602C33.9951 25.5019 34.267 25.424 34.5918 25.6139Z" fill="#E4C6BB"/>
<path opacity="0.4" d="M34.6269 27.2453C34.2821 27.3077 34.2852 27.8226 34.178 27.94C34.0707 28.0574 33.9902 28.221 33.7179 28.1168L33.6187 26.9351L34.6269 27.2453Z" fill="#1D1D1B"/>
<path d="M34.1237 25.2866C34.3733 25.0738 34.7257 24.8536 35.2472 24.5998C35.6352 24.4113 35.9008 24.3217 36.1527 24.2788C36.2034 24.3075 36.2532 24.3377 36.3062 24.3616C36.8197 24.5896 37.0421 25.064 37.1302 25.538C37.1734 25.7694 37.0648 26.0037 36.8779 26.1216L36.5126 26.3525C36.1522 26.5804 35.6686 26.4562 35.4376 26.0772L35.3113 25.8697C35.0514 25.445 34.6915 25.2087 34.2265 25.2623C34.1927 25.2662 34.1571 25.2779 34.1237 25.2866Z" fill="#E4C6BB"/>
<path d="M36.053 22.7393C36.041 22.9804 36.029 23.2225 35.9792 23.4577C35.9293 23.6925 35.8399 23.9225 35.6909 24.0998C35.5227 24.299 35.2806 24.4188 35.0337 24.4339C34.9562 24.4393 34.8784 24.4339 34.8018 24.4174C34.7258 24.4008 34.6501 24.3735 34.5874 24.3234C34.4895 24.2454 34.4339 24.1222 34.3943 23.995V23.9941C34.3854 23.9658 34.3774 23.9371 34.3698 23.9088C34.2804 23.5717 34.2296 23.2249 34.2069 22.8747C34.1994 22.7573 34.2519 22.6759 34.2501 22.558C34.2488 22.4694 34.1923 22.3442 34.1936 22.2555C34.1958 22.1308 34.2007 22.0062 34.2078 21.8815C34.2136 21.7806 34.2212 21.6783 34.2501 21.5824C34.3355 21.2984 34.6016 21.1108 34.873 21.0738C35.1445 21.0368 35.4181 21.1269 35.6655 21.255C35.7331 21.2901 35.8012 21.3291 35.8555 21.3861C35.9071 21.4406 35.944 21.5093 35.9916 21.5677C36.0508 21.6398 36.0713 22.3773 36.053 22.7393Z" fill="#FFCEA1"/>
<path opacity="0.1" d="M35.0808 23.8657C35.0813 24.0109 35.0777 24.1566 35.0746 24.3017C35.0737 24.3329 35.0732 24.3655 35.0612 24.3938C35.055 24.4094 35.0452 24.4225 35.0341 24.4337C34.9567 24.4391 34.8788 24.4337 34.8023 24.4172C34.7262 24.4006 34.6505 24.3733 34.5878 24.3231C34.4899 24.2452 34.4343 24.122 34.3947 23.9948V23.9939C34.6501 24.2637 34.8143 24.0338 34.8739 23.2661C34.9175 23.6256 35.0804 23.5028 35.0808 23.8657Z" fill="#1D1D1B"/>
<path d="M36.4139 22.6147V24.7965C36.4139 24.9212 36.3387 25.0464 36.1883 25.1414C35.8875 25.3319 35.4003 25.3319 35.0995 25.1414C34.9491 25.0459 34.8739 24.9212 34.8739 24.7965V22.6147H36.4139Z" fill="#FFCEA1"/>
<path opacity="0.1" d="M36.4139 24.1428C36.4139 24.2665 36.3485 24.3805 36.2448 24.4292C36.0802 24.5066 35.8857 24.5476 35.7496 24.5495C35.5663 24.5519 35.3736 24.5422 35.2156 24.4404C35.0292 24.3201 34.9198 24.1481 34.8739 23.9309V23.4097H36.4139V24.1428Z" fill="#1D1D1B"/>
<path d="M34.5268 22.1021C34.7538 22.2458 34.8557 22.5162 34.8797 22.8021C34.9037 23.088 34.865 23.3764 34.8881 23.6623C34.9113 23.9483 35.0256 24.168 35.2512 24.3141C35.4092 24.4164 35.6018 24.4261 35.7851 24.4232C36.0254 24.4198 36.4477 24.2956 36.5665 24.0637C37.7145 21.0719 35.9938 20.8171 35.5542 20.785C34.7822 20.7289 33.8425 21.2399 34.2074 21.9044C34.2634 22.0066 34.4485 22.0529 34.5268 22.1021Z" fill="#2F2F2F"/>
<path d="M34.9384 22.6144C34.8539 22.6183 34.7912 22.6948 34.7645 22.7679C34.7311 22.8594 34.7315 22.9559 34.7324 23.0504C34.7333 23.1707 34.7355 23.2954 34.7943 23.4006C34.8103 23.4289 34.8316 23.4561 34.8646 23.4678C34.914 23.4849 34.9745 23.4591 35.0087 23.4196C35.043 23.3802 35.0563 23.3305 35.067 23.2827C35.0977 23.1439 35.1133 23.0031 35.1124 22.8633C35.112 22.8073 35.1089 22.7498 35.0826 22.7006C35.0559 22.6514 35.0012 22.6115 34.9384 22.6144Z" fill="#FFCEA1"/>
<path d="M34.4365 27.2406L31.1181 26.9167C31.0171 26.9069 30.9223 26.8757 30.8378 26.8275C30.6175 26.7009 30.4645 26.4588 30.4409 26.1811C30.4369 26.1329 30.4369 26.0837 30.4409 26.034C30.4596 25.7943 30.5717 25.5878 30.7345 25.4534C30.876 25.3365 31.0562 25.2741 31.2467 25.2921L34.2639 25.5172C34.9887 25.6005 35.6481 27.3473 34.4365 27.2406Z" fill="#E4C6BB"/>
<path d="M28.5445 23.5403C28.4822 23.4238 28.4693 23.3707 28.4542 23.286C28.4421 23.2173 28.4319 23.136 28.4622 23.0746C28.4791 23.041 28.5267 23.0166 28.5618 23.0171C28.6045 23.0176 28.6321 23.0648 28.6513 23.1062C28.6891 23.1866 28.7269 23.267 28.7643 23.3474C28.8061 23.4365 28.8426 23.5744 28.9231 23.6883C28.8115 23.6947 28.6014 23.6464 28.5445 23.5403Z" fill="#FFCEA1"/>
<path d="M28.4986 24.6651C28.6913 24.6817 28.868 24.5345 28.9663 24.3641C29.0232 24.2657 29.045 24.12 29.0513 24.0036C29.0584 23.8652 28.9663 23.7016 28.8715 23.6095C28.7767 23.5175 28.4315 23.4522 28.1934 23.1317C28.1009 23.0074 27.9514 22.7171 27.7391 22.892C27.5269 23.0669 27.5198 23.2895 27.5282 23.5506C27.5362 23.8112 27.7173 24.0655 27.809 24.1882C27.8731 24.2744 27.9732 24.3796 28.0684 24.4469C28.1974 24.537 28.3367 24.6505 28.4986 24.6651Z" fill="#FFCEA1"/>
<path d="M30.7483 26.7818L28.8048 25.3522C28.4635 25.1008 28.3349 24.8918 28.4497 24.5898C28.4497 24.5898 28.8711 23.4008 29.49 23.8884L31.5795 25.4286L31.58 25.4291C31.8202 25.6064 31.9364 25.9104 31.9034 26.2051C31.8896 26.3283 31.8496 26.4501 31.782 26.5607C31.5524 26.9343 31.0896 27.0337 30.7483 26.7818Z" fill="#E4C6BB"/>
<path d="M33.8456 20.655C34.0694 20.5264 34.3266 20.4144 34.6407 20.4845C34.9549 20.5547 34.9446 20.5863 35.6686 20.9531L34.7983 22.5781L33.5257 21.8986C33.135 21.6833 33.3424 20.9439 33.8456 20.655Z" fill="#186FD9"/>
<path d="M34.4094 22.3444C34.6141 22.5309 34.8788 22.6785 35.1636 22.7745C35.6895 22.9518 36.255 22.8885 36.6034 22.6907C37.0591 22.432 37.1294 22.2241 37.0297 21.6054C36.9314 20.9936 36.3596 20.3998 35.924 20.3433C35.3954 20.2746 34.7636 20.4115 34.4953 20.885C34.1353 21.5197 34.0966 21.7827 34.2029 22.0404C34.2586 22.1758 34.3418 22.2732 34.4094 22.3444Z" fill="#0258BF"/>
<path d="M36.336 22.6627C36.3672 22.6568 36.3863 22.652 36.4112 22.6442C36.4695 22.6252 36.526 22.5994 36.5812 22.5701C36.6835 22.5151 36.7823 22.4445 36.8597 22.3514C36.8748 22.3334 36.8909 22.3159 36.9011 22.2944C36.9158 22.2642 36.9109 22.2238 36.9091 22.1907C36.9078 22.1619 36.9042 22.1327 36.8962 22.1049C36.8846 22.0645 36.8633 22.0265 36.8277 22.0075C36.7623 21.9729 36.6813 22.0095 36.6239 22.047C36.6092 22.0562 36.595 22.0655 36.5803 22.0738C36.4183 22.1702 36.2942 22.3767 36.2942 22.6086C36.2942 22.6422 36.3053 22.6685 36.336 22.6627Z" fill="#2F2F2F"/>
<path opacity="0.1" d="M34.7026 21.2471C34.6047 21.6494 34.5784 21.9383 34.6167 22.1609C34.6608 22.4181 34.7974 22.5881 35.1102 22.7562C34.8454 22.6602 34.6011 22.5194 34.4094 22.3445C34.3444 22.2763 34.2652 22.1838 34.21 22.0571C34.4209 22.2583 34.5175 21.7732 34.7026 21.2471Z" fill="black"/>
<g opacity="0.2">
<path d="M22.2675 55.7805L17.6538 52.8646L20.966 50.771L25.5793 53.6869L22.2675 55.7805Z" fill="black"/>
<path d="M20.7146 55.1769L16.8129 52.7106L19.6143 50.9404L23.5156 53.4062L20.7146 55.1769Z" fill="black"/>
<path d="M19.3633 54.6311L16.2794 52.6822L18.4935 51.2827L21.577 53.2322L19.3633 54.6311Z" fill="black"/>
</g>
<path d="M25.1268 53.208L22.7085 54.7366L19.3371 52.6055L18.8023 52.9435L22.7085 55.4127L25.5793 53.5982C25.602 53.5836 25.6234 53.5602 25.6398 53.5329L25.1268 53.208Z" fill="#E67B00"/>
<path d="M25.675 53.4165V52.9825C25.675 52.9158 25.6323 52.8885 25.5793 52.9221L25.1264 53.2085L25.6394 53.533C25.6612 53.4969 25.675 53.4545 25.675 53.4165Z" fill="#D67200"/>
<path d="M18.8023 52.1787V52.2678L22.7085 54.7365V54.6474L18.8023 52.1787Z" fill="#F09E02"/>
<path d="M22.7374 54.6384L25.5162 52.8818V53.5579L22.7374 55.314V54.6384Z" fill="#EFE1BC"/>
<g opacity="0.5">
<path opacity="0.3" d="M22.7374 55.2868L25.5161 53.5308V53.5585L22.7374 55.3146V55.2868Z" fill="black"/>
<path opacity="0.3" d="M22.7374 55.2277L25.5161 53.4717V53.4994L22.7374 55.2555V55.2277Z" fill="black"/>
<path opacity="0.3" d="M22.7374 55.1686L25.5161 53.4126V53.4404L22.7374 55.1964V55.1686Z" fill="black"/>
<path opacity="0.3" d="M22.7374 55.1101L25.5161 53.354V53.3818L22.7374 55.1378V55.1101Z" fill="black"/>
<path opacity="0.3" d="M22.7374 55.051L25.5161 53.2949V53.3227L22.7374 55.0787V55.051Z" fill="black"/>
<path opacity="0.3" d="M22.7374 54.9919L25.5161 53.2358V53.2636L22.7374 55.0201V54.9919Z" fill="black"/>
<path opacity="0.3" d="M22.7374 54.9338L25.5161 53.1772V53.205L22.7374 54.9615V54.9338Z" fill="black"/>
<path opacity="0.3" d="M22.7374 54.8747L25.5161 53.1182V53.1459L22.7374 54.9025V54.8747Z" fill="black"/>
<path opacity="0.3" d="M22.7374 54.8156L25.5161 53.0591V53.0868L22.7374 54.8434V54.8156Z" fill="black"/>
<path opacity="0.3" d="M22.7374 54.7565L25.5161 53V53.0282L22.7374 54.7843V54.7565Z" fill="black"/>
<path opacity="0.3" d="M22.7374 54.6974L25.5161 52.9409V52.9692L22.7374 54.7252V54.6974Z" fill="black"/>
</g>
<path d="M22.7374 54.7185L22.7085 54.7365L18.9585 52.3662V52.9254L22.7374 55.3137V54.7185Z" fill="#DEBE97"/>
<g opacity="0.5">
<path opacity="0.3" d="M22.7374 55.2863L18.9585 52.8979V52.9257L22.7374 55.314V55.2863Z" fill="black"/>
<path opacity="0.3" d="M22.7374 55.2272L18.9585 52.8389V52.8666L22.7374 55.255V55.2272Z" fill="black"/>
<path opacity="0.3" d="M22.7374 55.1681L18.9585 52.7798V52.8076L22.7374 55.1959V55.1681Z" fill="black"/>
<path opacity="0.3" d="M22.7374 55.1095L18.9585 52.7212V52.749L22.7374 55.1373V55.1095Z" fill="black"/>
<path opacity="0.3" d="M22.7374 55.0504L18.9585 52.6621V52.6899L22.7374 55.0782V55.0504Z" fill="black"/>
<path opacity="0.3" d="M22.7374 54.9918L18.9585 52.6035V52.6313L22.7374 55.0201V54.9918Z" fill="black"/>
<path opacity="0.3" d="M22.7374 54.9332L18.9585 52.5444V52.5722L22.7374 54.961V54.9332Z" fill="black"/>
<path opacity="0.3" d="M22.7374 54.8742L18.9585 52.4854V52.5131L22.7374 54.9019V54.8742Z" fill="black"/>
<path opacity="0.3" d="M22.7374 54.8151L18.9585 52.4263V52.454L22.7374 54.8428V54.8151Z" fill="black"/>
<path opacity="0.3" d="M22.7374 54.7185L22.7085 54.7365L18.9585 52.3662V52.395L22.7374 54.7838V54.7185Z" fill="black"/>
</g>
<path d="M18.8023 52.9434V53.0325L22.7085 55.5017V55.4125L18.8023 52.9434Z" fill="#F09E02"/>
<path d="M25.675 53.4164C25.675 53.4832 25.6323 53.5645 25.5793 53.5976L22.7085 55.4121V55.5013L25.5793 53.6868C25.671 53.6288 25.7453 53.4876 25.7453 53.3716V52.9376C25.7453 52.8801 25.7271 52.8397 25.6973 52.8202C25.667 52.8007 25.6252 52.8032 25.5789 52.8324L22.7081 54.6469V54.736L25.5789 52.9215C25.6318 52.8884 25.6746 52.9152 25.6746 52.9819V53.4164H25.675Z" fill="#FFAD0D"/>
<path d="M22.7085 54.6474L25.5793 52.8329C25.6256 52.8037 25.6674 52.8012 25.6977 52.8207C25.6977 52.8207 21.8208 50.3706 21.791 50.3516C21.7607 50.3326 21.7194 50.335 21.6731 50.3642L18.8023 52.1787L22.7085 54.6474Z" fill="#FCC901"/>
<path d="M22.3351 53.2298C22.3351 53.1655 22.3765 53.0875 22.4272 53.0554L24.7187 51.6072V51.5215L22.4272 52.9697C22.3391 53.0257 22.2675 53.1611 22.2675 53.2727V53.6906C22.2675 53.7461 22.2853 53.7851 22.3138 53.8036C22.3427 53.8221 22.3832 53.8197 22.4277 53.7919L24.7192 52.3437V52.258L22.4277 53.7062C22.377 53.7383 22.3356 53.712 22.3356 53.6482L22.3351 53.2298Z" fill="#0258BF"/>
<path d="M22.4273 53.7058L24.7188 52.2576L24.5688 52.1616V52.2751L22.3663 53.6673L22.3356 53.6478C22.3352 53.7121 22.3761 53.7379 22.4273 53.7058Z" fill="#014594"/>
<path d="M22.3352 53.6477L22.3659 53.6672V53.1235C22.3472 53.1567 22.3352 53.1951 22.3352 53.2297V53.6477Z" fill="#DEBE97"/>
<path d="M22.2671 53.6903V53.2724C22.2671 53.1608 22.3387 53.0249 22.4268 52.9694L24.7183 51.5212L21.6397 49.5752L19.3482 51.0234C19.2601 51.0794 19.1885 51.2148 19.1885 51.3264V51.7443C19.1885 51.7998 19.2063 51.8388 19.2348 51.8573C19.2637 51.8758 22.3134 53.8033 22.3134 53.8033C22.2849 53.7848 22.2671 53.7454 22.2671 53.6903Z" fill="#146CD9"/>
<path d="M22.3658 53.1235V53.6672L24.5683 52.275V51.7017H24.5679L22.4268 53.0549C22.4037 53.07 22.3823 53.0948 22.3658 53.1235Z" fill="#EFE1BC"/>
<g opacity="0.5">
<path opacity="0.3" d="M24.5675 51.7022L22.4268 53.0549C22.4166 53.0612 22.4068 53.07 22.3974 53.0797L24.5679 51.708V51.7017L24.5675 51.7022Z" fill="black"/>
<path opacity="0.3" d="M24.5683 51.7646L22.3658 53.1568V53.13L24.5683 51.7378V51.7646Z" fill="black"/>
<path opacity="0.3" d="M24.5683 51.8212L22.3658 53.2134V53.1866L24.5683 51.7944V51.8212Z" fill="black"/>
<path opacity="0.3" d="M24.5683 51.8784L22.3658 53.2705V53.2437L24.5683 51.8516V51.8784Z" fill="black"/>
<path opacity="0.3" d="M24.5683 51.935L22.3658 53.3267V53.2999L24.5683 51.9082V51.935Z" fill="black"/>
<path opacity="0.3" d="M24.5683 51.9911L22.3658 53.3833V53.3565L24.5683 51.9644V51.9911Z" fill="black"/>
<path opacity="0.3" d="M24.5683 52.0478L22.3658 53.44V53.4132L24.5683 52.021V52.0478Z" fill="black"/>
<path opacity="0.3" d="M24.5683 52.1049L22.3658 53.4971V53.4703L24.5683 52.0781V52.1049Z" fill="black"/>
<path opacity="0.3" d="M24.5683 52.1616L22.3658 53.5537V53.5269L24.5683 52.1348V52.1616Z" fill="black"/>
<path opacity="0.3" d="M24.5683 52.2187L22.3658 53.6104V53.5836L24.5683 52.1919V52.2187Z" fill="black"/>
<path opacity="0.3" d="M24.5683 52.2748L22.3658 53.667V53.6402L24.5683 52.248V52.2748Z" fill="black"/>
</g>
<path opacity="0.1" d="M19.3486 51.0239C19.2663 51.076 19.1982 51.1978 19.1898 51.3045L22.268 53.25C22.2764 53.1434 22.3445 53.0216 22.4268 52.9695L19.3486 51.0239Z" fill="white"/>
<path d="M23.7145 51.0614L22.1154 52.0721L20.1087 50.8037L19.5743 51.1413L22.1154 52.7473L24.167 51.4506C24.1897 51.436 24.2111 51.4126 24.2271 51.3853L23.7145 51.0614Z" fill="#88A305"/>
<path d="M24.2627 51.2696V50.8355C24.2627 50.7688 24.22 50.7415 24.167 50.7751L23.7145 51.0611L24.2275 51.385C24.2489 51.3495 24.2627 51.3071 24.2627 51.2696Z" fill="#788F05"/>
<path d="M19.5743 50.377V50.4661L22.1154 52.0721V51.983L19.5743 50.377Z" fill="#A6C213"/>
<path d="M22.1443 51.9736L24.1034 50.7349V51.4105L22.1443 52.6492V51.9736Z" fill="#EFE1BC"/>
<g opacity="0.5">
<path opacity="0.3" d="M22.1443 52.6211L24.1034 51.3828V51.4106L22.1443 52.6493V52.6211Z" fill="black"/>
<path opacity="0.3" d="M22.1443 52.5625L24.1034 51.3237V51.3515L22.1443 52.5902V52.5625Z" fill="black"/>
<path opacity="0.3" d="M22.1443 52.5034L24.1034 51.2646V51.2924L22.1443 52.5311V52.5034Z" fill="black"/>
<path opacity="0.3" d="M22.1443 52.4443L24.1034 51.2056V51.2338L22.1443 52.4721V52.4443Z" fill="black"/>
<path opacity="0.3" d="M22.1443 52.3857L24.1034 51.1475V51.1752L22.1443 52.4135V52.3857Z" fill="black"/>
<path opacity="0.3" d="M22.1443 52.3266L24.1034 51.0884V51.1161L22.1443 52.3544V52.3266Z" fill="black"/>
<path opacity="0.3" d="M22.1443 52.2675L24.1034 51.0293V51.0571L22.1443 52.2953V52.2675Z" fill="black"/>
<path opacity="0.3" d="M22.1443 52.2085L24.1034 50.9702V50.998L22.1443 52.2362V52.2085Z" fill="black"/>
<path opacity="0.3" d="M22.1443 52.1504L24.1034 50.9116V50.9394L22.1443 52.1781V52.1504Z" fill="black"/>
<path opacity="0.3" d="M22.1443 52.0913L24.1034 50.8525V50.8803L22.1443 52.119V52.0913Z" fill="black"/>
<path opacity="0.3" d="M22.1443 52.0322L24.1034 50.7935V50.8212L22.1443 52.06V52.0322Z" fill="black"/>
</g>
<path d="M22.1443 52.054L22.1154 52.0721L19.73 50.5645V51.1232L22.1443 52.6493V52.054Z" fill="#DEBE97"/>
<g opacity="0.5">
<path opacity="0.3" d="M22.1443 52.6208L19.73 51.0952V51.123L22.1443 52.6491V52.6208Z" fill="black"/>
<path opacity="0.3" d="M22.1443 52.5623L19.73 51.0361V51.0639L22.1443 52.59V52.5623Z" fill="black"/>
<path opacity="0.3" d="M22.1443 52.5037L19.73 50.9775V51.0058L22.1443 52.5314V52.5037Z" fill="black"/>
<path opacity="0.3" d="M22.1443 52.4446L19.73 50.9185V50.9467L22.1443 52.4724V52.4446Z" fill="black"/>
<path opacity="0.3" d="M22.1443 52.386L19.73 50.8604V50.8881L22.1443 52.4138V52.386Z" fill="black"/>
<path opacity="0.3" d="M22.1443 52.3269L19.73 50.8013V50.829L22.1443 52.3547V52.3269Z" fill="black"/>
<path opacity="0.3" d="M22.1443 52.2678L19.73 50.7422V50.77L22.1443 52.2956V52.2678Z" fill="black"/>
<path opacity="0.3" d="M22.1443 52.2092L19.73 50.6836V50.7114L22.1443 52.237V52.2092Z" fill="black"/>
<path opacity="0.3" d="M22.1443 52.1506L19.73 50.6245V50.6523L22.1443 52.1784V52.1506Z" fill="black"/>
<path opacity="0.3" d="M22.1443 52.054L22.1154 52.0721L19.73 50.5645V50.5932L22.1443 52.1193V52.054Z" fill="black"/>
</g>
<path d="M19.5743 51.1416V51.2307L22.1154 52.8367V52.7476L19.5743 51.1416Z" fill="#A6C213"/>
<path d="M24.2627 51.27C24.2627 51.3367 24.22 51.4175 24.167 51.4512L22.1154 52.7479V52.837L24.167 51.5403C24.2587 51.4823 24.333 51.3416 24.333 51.2256V50.7916C24.333 50.7341 24.3147 50.6937 24.2849 50.6742C24.2547 50.6547 24.2129 50.6572 24.167 50.6864L22.1154 51.9831V52.0722L24.167 50.7755C24.22 50.7419 24.2627 50.7692 24.2627 50.8359V51.27Z" fill="#AFCD15"/>
<path d="M22.1154 51.9835L24.167 50.6868C24.2133 50.6575 24.2551 50.6551 24.285 50.6746C24.285 50.6746 21.7732 49.0871 21.7434 49.0681C21.7136 49.0486 21.6718 49.0515 21.6255 49.0807L19.5738 50.3774L22.1154 51.9835Z" fill="#C3E022"/>
</svg>
