<svg width="58" height="45" viewBox="0 0 58 45" fill="none" xmlns="http://www.w3.org/2000/svg">
<path opacity="0.4" fill-rule="evenodd" clip-rule="evenodd" d="M29.1041 10.4351C44.6077 10.4351 57.1818 17.7336 57.1818 26.7339C57.1818 35.7342 44.6084 43.0327 29.1041 43.0327C13.5998 43.0327 1.0257 35.7342 1.0257 26.7339C1.0257 17.7336 13.5998 10.4351 29.1041 10.4351Z" fill="#D2D2E1"/>
<path fill-rule="evenodd" clip-rule="evenodd" d="M37.0014 6.95605H19.9741C20.0337 7.97066 21.4944 19.0902 21.4944 18.4485C21.5246 21.0528 24.6395 23.1516 28.4771 23.1516C31.0379 23.1516 35.4108 21.9282 35.4604 18.2573L37.0014 6.95605Z" fill="#C18B21"/>
<path fill-rule="evenodd" clip-rule="evenodd" d="M25.0309 22.5356C25.1641 17.7343 30.1165 12.9038 36.2038 11.6856L36.3597 11.6562L35.4597 18.2567C35.4102 21.9275 31.0366 23.1509 28.4764 23.1509C27.2238 23.1516 26.048 22.9282 25.0309 22.5356Z" fill="#D39F25"/>
<path d="M26.2441 13.3429C26.1638 13.2887 26.139 13.173 26.1886 13.0858C26.2381 12.9979 26.3431 12.9708 26.4234 13.025C30.6304 15.882 40.7527 17.7969 36.345 9.52409C36.2975 9.43472 36.3249 9.3197 36.4065 9.26769C36.4882 9.21568 36.5932 9.24572 36.6408 9.33509C41.6286 18.6863 31.0881 16.9237 26.2441 13.3429Z" fill="#3E3E3D"/>
<path d="M26.2441 13.089C26.1638 13.0348 26.139 12.9198 26.1886 12.8319C26.2381 12.744 26.3431 12.7169 26.4234 12.7711C30.6304 15.6281 40.7527 17.543 36.345 9.27018C36.2975 9.18081 36.3249 9.0658 36.4065 9.01379C36.4882 8.96177 36.5932 8.99181 36.6408 9.08118C41.6286 18.4331 31.0881 16.6705 26.2441 13.089Z" fill="#585857"/>
<path fill-rule="evenodd" clip-rule="evenodd" d="M29.7512 0.549272C35.0937 0.945589 38.859 4.01283 38.1591 7.39728C37.4591 10.7832 32.5589 13.2072 27.2164 12.8109C21.8752 12.4146 18.1105 9.3481 18.8105 5.96145C19.5104 2.57701 24.41 0.152955 29.7512 0.549272Z" fill="#D39F25"/>
<path fill-rule="evenodd" clip-rule="evenodd" d="M29.7511 0.229936C35.0936 0.626253 38.859 3.6935 38.159 7.07794C37.4591 10.4639 32.5589 12.8879 27.2164 12.4916C21.8752 12.0953 18.1105 9.02876 18.8104 5.64285C19.5104 2.25767 24.4099 -0.166381 29.7511 0.229936Z" fill="#EDC52E"/>
<path fill-rule="evenodd" clip-rule="evenodd" d="M29.5899 1.09024C34.2526 1.43601 37.5388 4.11279 36.9279 7.06722C36.3169 10.0224 32.0404 12.138 27.3777 11.7915C22.7157 11.4458 19.4301 8.76897 20.0417 5.81381C20.652 2.86011 24.9286 0.744465 29.5899 1.09024Z" fill="#D39F25"/>
<path fill-rule="evenodd" clip-rule="evenodd" d="M31.7679 2.07863C32.6171 2.00757 33.4014 2.10354 34.0906 2.33722C35.8491 3.29688 36.9459 4.70267 36.9987 6.24399C37.0007 6.31578 37.0001 6.3883 36.9987 6.46156C36.9927 6.66155 36.97 6.863 36.9285 7.06592C36.3175 10.0211 32.041 12.1367 27.3783 11.7902C26.9139 11.7558 26.4636 11.6972 26.0293 11.6181C25.2209 10.7243 24.8268 9.48631 25.0269 8.07613C25.4572 5.04185 28.4764 2.35554 31.7679 2.07863Z" fill="#C18B21"/>
<path fill-rule="evenodd" clip-rule="evenodd" d="M29.5899 4.58491C32.9049 4.83105 35.5226 6.25442 36.5404 8.11806C35.2556 10.5055 31.4656 12.0944 27.3777 11.7911C24.064 11.545 21.447 10.1209 20.4292 8.25652C21.7133 5.86982 25.5034 4.28163 29.5899 4.58491Z" fill="#8E8E8E"/>
<path fill-rule="evenodd" clip-rule="evenodd" d="M35.6417 26.8857L25.7964 33.1162L20.8728 29.9977V26.778L30.6592 20.6348L35.643 23.6661L35.6417 26.8857Z" fill="#90452E"/>
<path fill-rule="evenodd" clip-rule="evenodd" d="M35.643 23.6664L25.7964 29.8895L20.8728 26.7783L30.7187 20.5537L35.643 23.6664Z" fill="#B84F32"/>
<path fill-rule="evenodd" clip-rule="evenodd" d="M25.7978 29.8895V33.1165L20.8728 30.0119V26.7783L25.7978 29.8895Z" fill="#60221D"/>
<path fill-rule="evenodd" clip-rule="evenodd" d="M25.6137 33.2273L15.7684 39.457L10.8454 36.3385V33.1189L20.6318 26.9756L25.6157 30.0069L25.6137 33.2273Z" fill="#90452E"/>
<path fill-rule="evenodd" clip-rule="evenodd" d="M25.6157 30.007L15.7685 36.2308L10.8455 33.1189L20.6914 26.895L25.6157 30.007Z" fill="#B84F32"/>
<path fill-rule="evenodd" clip-rule="evenodd" d="M15.7704 36.2303V39.4573L10.8454 36.3534V33.1191L15.7704 36.2303Z" fill="#60221D"/>
<path fill-rule="evenodd" clip-rule="evenodd" d="M0.81956 36.4497L10.6648 42.6794L15.5885 39.5609V36.342L5.80209 30.1987L0.818222 33.2293L0.81956 36.4497Z" fill="#60221D"/>
<path fill-rule="evenodd" clip-rule="evenodd" d="M0.818222 33.2296L10.6648 39.4535L15.5885 36.3423L5.74253 30.1177L0.818222 33.2296Z" fill="#B84F32"/>
<path fill-rule="evenodd" clip-rule="evenodd" d="M10.6635 39.4528V42.6797L15.5885 39.5758V36.3423L10.6635 39.4528Z" fill="#90452E"/>
<path fill-rule="evenodd" clip-rule="evenodd" d="M30.5708 26.6792L20.7262 32.9096L15.8026 29.7911V26.5715L25.589 20.4282L30.5728 23.4596L30.5708 26.6792Z" fill="#90452E"/>
<path fill-rule="evenodd" clip-rule="evenodd" d="M30.5728 23.4593L20.7262 29.6825L15.8026 26.5713L25.6485 20.3467L30.5728 23.4593Z" fill="#B84F32"/>
<path fill-rule="evenodd" clip-rule="evenodd" d="M20.7275 29.6825V32.9094L15.8026 29.8056V26.5713L20.7275 29.6825Z" fill="#60221D"/>
<path fill-rule="evenodd" clip-rule="evenodd" d="M15.4353 29.7983L5.59069 36.028L0.834335 33.0157V29.7961L10.6207 23.6528L15.4373 26.5787L15.4353 29.7983Z" fill="#90452E"/>
<path fill-rule="evenodd" clip-rule="evenodd" d="M15.4373 26.579L5.59066 32.8021L0.834305 29.7964L10.6802 23.5718L15.4373 26.579Z" fill="#B84F32"/>
<path fill-rule="evenodd" clip-rule="evenodd" d="M5.59203 32.8021V36.0283L0.834335 33.0299V29.7964L5.59203 32.8021Z" fill="#60221D"/>
<path fill-rule="evenodd" clip-rule="evenodd" d="M20.5436 33.021L10.6983 39.2507L5.77534 36.1322V32.9126L15.5617 26.77L20.5456 29.8014L20.5436 33.021Z" fill="#90452E"/>
<path fill-rule="evenodd" clip-rule="evenodd" d="M20.5456 29.8011L10.6983 36.0243L5.7753 32.9123L15.6212 26.6885L20.5456 29.8011Z" fill="#B84F32"/>
<path fill-rule="evenodd" clip-rule="evenodd" d="M10.7003 36.0245V39.2507L5.77534 36.1469V32.9126L10.7003 36.0245Z" fill="#60221D"/>
<path fill-rule="evenodd" clip-rule="evenodd" d="M25.6137 26.3799L15.7684 32.6103L10.8454 29.4911V26.2722L20.6318 20.1289L25.6157 23.1603L25.6137 26.3799Z" fill="#90452E"/>
<path fill-rule="evenodd" clip-rule="evenodd" d="M25.6157 23.1605L15.7685 29.3836L10.8455 26.2724L20.6914 20.0479L25.6157 23.1605Z" fill="#B84F32"/>
<path fill-rule="evenodd" clip-rule="evenodd" d="M15.7704 29.3837V32.6106L10.8454 29.506V26.2725L15.7704 29.3837Z" fill="#60221D"/>
<path fill-rule="evenodd" clip-rule="evenodd" d="M0.81956 29.604L10.6648 35.8337L15.5885 32.7152V29.4956L5.80209 23.353L0.818222 26.3836L0.81956 29.604Z" fill="#60221D"/>
<path fill-rule="evenodd" clip-rule="evenodd" d="M0.818222 26.3834L10.6648 32.6073L15.5885 29.4953L5.74253 23.2715L0.818222 26.3834Z" fill="#B84F32"/>
<path fill-rule="evenodd" clip-rule="evenodd" d="M10.6635 32.6068V35.8337L15.5885 32.7299V29.4956L10.6635 32.6068Z" fill="#90452E"/>
<path d="M54.6036 13.9392L54.5969 13.9436L48.4132 17.8731C47.7762 18.2775 47.3071 16.3069 47.73 16.038L53.9806 12.0609C54.0729 11.9965 54.19 11.9994 54.3172 12.0836C54.6143 12.2785 54.8545 12.8426 54.8545 13.3415C54.8545 13.6623 54.7534 13.8777 54.6036 13.9392Z" fill="#D39F25"/>
<path fill-rule="evenodd" clip-rule="evenodd" d="M47.4724 16.6378C47.4724 17.1367 47.7133 17.7008 48.0104 17.8964C48.3075 18.092 48.5484 17.8451 48.5484 17.3462C48.5484 16.8466 48.3075 16.2833 48.0104 16.0877C47.7133 15.8921 47.4724 16.1382 47.4724 16.6378Z" fill="#C18B21"/>
<path d="M48.0519 15.9769L53.9746 12.2079C54.2001 12.0643 54.3319 12.2035 54.164 12.3104L48.2199 16.0934C48.1898 16.0641 48.1576 16.0385 48.1255 16.0172C48.1001 15.9996 48.076 15.9872 48.0519 15.9769Z" fill="#EDC52E"/>
<path fill-rule="evenodd" clip-rule="evenodd" d="M49.7977 23.401L44.2103 19.1221C43.5572 18.6217 42.7214 18.7741 42.3768 19.4569L36.5217 26.2074C36.1175 26.6741 37.4619 27.6272 38.1953 27.4404L49.6365 24.5262C50.1216 24.4024 50.2461 23.7446 49.7977 23.401Z" fill="#666666"/>
<path fill-rule="evenodd" clip-rule="evenodd" d="M49.7797 23.2223L44.1922 18.9434C43.5391 18.443 42.8439 18.7185 42.3587 19.2781L36.5036 26.0287C36.0995 26.4946 37.4438 27.4484 38.1772 27.2616L49.6191 24.3475C50.1029 24.2237 50.2287 23.5658 49.7797 23.2223Z" fill="url(#paint0_linear_1119_17971)"/>
<path d="M47.7782 16.8133C47.8987 16.7334 48.0546 16.7759 48.1275 16.9078C48.2004 17.0396 48.1616 17.211 48.0412 17.2902L47.0455 17.9473L46.4794 21.1405C46.4633 21.2314 46.4098 21.3039 46.3382 21.3405L44.9832 22.0445C44.6847 22.1998 44.5255 22.0357 44.7971 21.8291L46.0003 20.9149L46.567 17.7202C46.5804 17.6455 46.6212 17.5759 46.6855 17.5334L47.7782 16.8133Z" fill="#666666"/>
<path fill-rule="evenodd" clip-rule="evenodd" d="M26.7506 43.8879L27.9772 44.6622V41.1042L26.7506 40.3291V43.8879Z" fill="#363636"/>
<path fill-rule="evenodd" clip-rule="evenodd" d="M27.9765 44.6621L52.2936 29.301V25.7422L27.9772 41.1041L27.9765 44.6621Z" fill="#D39F25"/>
<path fill-rule="evenodd" clip-rule="evenodd" d="M27.9765 44.6626L28.202 44.5205V40.9624L27.9772 41.1045L27.9765 44.6626Z" fill="#4D4D4D"/>
<path fill-rule="evenodd" clip-rule="evenodd" d="M26.7513 40.3292L27.9772 41.1042L52.2943 25.7423L51.061 24.979L26.7513 40.3292Z" fill="#EDC52E"/>
<path fill-rule="evenodd" clip-rule="evenodd" d="M26.7506 40.3289L27.9772 41.1039L28.202 40.9618V40.9611L26.9748 40.1875L26.7506 40.3289Z" fill="#666666"/>
<path fill-rule="evenodd" clip-rule="evenodd" d="M37.3588 33.6311L38.5947 34.3937L42.5313 31.9059L41.2466 31.1763L37.3588 33.6311Z" fill="#585857"/>
<path fill-rule="evenodd" clip-rule="evenodd" d="M38.6067 34.3867V35.4804C38.6067 35.5442 38.6355 35.5991 38.6863 35.6306C38.7372 35.6621 38.7947 35.6621 38.8449 35.6299L42.2964 33.4153C42.4463 33.3194 42.5313 33.156 42.5313 32.9663V31.9062L38.6067 34.3867Z" fill="#222221"/>
<path fill-rule="evenodd" clip-rule="evenodd" d="M38.8463 34.2365V35.0724C38.8463 35.1046 38.8604 35.1324 38.8858 35.1478C38.9112 35.1639 38.94 35.1639 38.9654 35.1471L42.1372 33.1047C42.2363 33.041 42.2938 32.9318 42.2938 32.8058V32.0557L38.8463 34.2365Z" fill="#7C9A3F"/>
<path fill-rule="evenodd" clip-rule="evenodd" d="M37.6083 33.4731L38.8436 34.2364L42.2971 32.0607L41.0069 31.3281L37.6083 33.4731Z" fill="#99BB57"/>
<path fill-rule="evenodd" clip-rule="evenodd" d="M52.0688 29.4431L52.2943 29.301V25.7422L52.0688 25.885V29.4431Z" fill="#4D4D4D"/>
<path fill-rule="evenodd" clip-rule="evenodd" d="M50.8429 25.1101L52.0688 25.8852L52.2943 25.7423L51.0664 24.9688L50.8429 25.1101Z" fill="#666666"/>
<path fill-rule="evenodd" clip-rule="evenodd" d="M38.3966 33.9597L40.8698 32.3671C40.9688 32.3034 41.0257 32.1943 41.0257 32.0683V31.3386L41.0083 31.3291L37.6137 33.477L38.3966 33.9597Z" fill="#BDDE7B"/>
<path fill-rule="evenodd" clip-rule="evenodd" d="M41.0438 32.1605L38.2768 33.885L38.8469 34.2366V34.4989L41.4232 32.8931C41.8655 32.6169 41.4874 31.8836 41.0438 32.1605Z" fill="#DBF6A5"/>
<path fill-rule="evenodd" clip-rule="evenodd" d="M40.0093 32.9237L39.3294 33.3471C38.9232 33.5999 39.1976 34.1456 39.5964 33.8965L40.289 33.4651C40.6168 33.2614 40.3378 32.7193 40.0093 32.9237Z" fill="white"/>
<path fill-rule="evenodd" clip-rule="evenodd" d="M30.985 41.1902C30.9382 41.977 30.5761 42.7498 30.1773 42.9169C29.7778 43.0839 29.4914 42.5814 29.5383 41.7946C29.5851 41.0078 29.9471 40.2349 30.3466 40.0679C30.7454 39.9016 31.0312 40.4042 30.985 41.1902Z" fill="#4D4D4D"/>
<path fill-rule="evenodd" clip-rule="evenodd" d="M30.8847 41.2315C30.8445 41.9092 30.5327 42.5751 30.1888 42.7194C29.8448 42.863 29.5979 42.43 29.6387 41.7524C29.6789 41.0748 29.9907 40.4089 30.3346 40.2653C30.6786 40.1217 30.9248 40.5547 30.8847 41.2315Z" fill="#7C9A3F"/>
<path fill-rule="evenodd" clip-rule="evenodd" d="M30.417 42.1857L30.423 40.2407C30.3942 40.2444 30.3648 40.2524 30.334 40.2649C30.0128 40.399 29.721 40.9872 29.6501 41.615L29.6488 42.1395C29.6628 42.2523 29.6869 42.352 29.7197 42.437C29.9097 42.7212 30.4163 42.6399 30.417 42.1857Z" fill="#DBF6A5"/>
<path fill-rule="evenodd" clip-rule="evenodd" d="M51.1695 28.4287C51.1226 29.2155 50.7606 29.9884 50.3618 30.1554C49.9623 30.3224 49.6759 29.8199 49.7234 29.0331C49.7703 28.2463 50.1323 27.4735 50.5311 27.3065C50.9299 27.1394 51.2163 27.642 51.1695 28.4287Z" fill="#4D4D4D"/>
<path fill-rule="evenodd" clip-rule="evenodd" d="M51.0691 28.4706C51.0289 29.1482 50.7171 29.8141 50.3731 29.9584C50.0292 30.102 49.783 29.669 49.8231 28.9914C49.8633 28.3138 50.1751 27.6479 50.519 27.5043C50.863 27.36 51.1092 27.7929 51.0691 28.4706Z" fill="#7C9A3F"/>
<path fill-rule="evenodd" clip-rule="evenodd" d="M50.0432 29.7212L50.9586 27.7199C50.8596 27.5162 50.703 27.4261 50.5183 27.5037C50.1737 27.6481 49.8626 28.314 49.8224 28.9909C49.8003 29.3601 49.8639 29.656 49.981 29.8267C50.0044 29.7959 50.0252 29.7615 50.0432 29.7212Z" fill="#DBF6A5"/>
<defs>
<linearGradient id="paint0_linear_1119_17971" x1="43.8009" y1="26.9495" x2="40.9609" y2="18.5628" gradientUnits="userSpaceOnUse">
<stop stop-color="#848484"/>
<stop offset="1" stop-color="white"/>
</linearGradient>
</defs>
</svg>
