<svg width="34" height="56" viewBox="0 0 34 56" fill="none" xmlns="http://www.w3.org/2000/svg">
<path opacity="0.4" fill-rule="evenodd" clip-rule="evenodd" d="M15.5028 35.5024C23.6934 35.5024 30.3356 39.3579 30.3356 44.1126C30.3356 48.8673 23.693 52.7231 15.5028 52.7231C7.31224 52.7231 0.669678 48.8677 0.669678 44.1126C0.669678 39.3579 7.31224 35.5024 15.5028 35.5024Z" fill="#D2D2E1"/>
<path fill-rule="evenodd" clip-rule="evenodd" d="M2.22756 48.3582V10.2345L1.50134 9.7793L1.50331 47.8991L2.22756 48.3582Z" fill="#AFAFAF"/>
<path fill-rule="evenodd" clip-rule="evenodd" d="M17.4301 0.644531L2.22714 10.2345V48.3577L17.4344 38.7643L17.4301 0.644531Z" fill="#EFD0D0"/>
<path fill-rule="evenodd" clip-rule="evenodd" d="M17.4301 0.644886L2.22717 10.2348L1.50134 9.77958L16.683 0.1875L17.4301 0.644886Z" fill="#E3E3E3"/>
<path fill-rule="evenodd" clip-rule="evenodd" d="M15.9162 50.5298L11.841 47.9375L11.4677 48.832L15.5547 51.423L15.9162 50.5298Z" fill="#A59828"/>
<path fill-rule="evenodd" clip-rule="evenodd" d="M4.09067 52.8815L8.67771 55.7808L12.2435 53.527L13.0956 52.2966L15.7027 50.6635L15.5579 51.4322L15.705 51.3392L16.4481 50.1966L11.4606 48.3408C10.2588 49.0911 4.09067 52.3664 4.09067 52.8815Z" fill="#C5B945"/>
<path fill-rule="evenodd" clip-rule="evenodd" d="M4.09067 52.8816L8.67771 55.7809L8.6781 55.7805L8.60572 54.827C8.72964 48.7471 7.05297 52.435 3.74054 52.0207L4.09067 52.8816Z" fill="#A59828"/>
<path fill-rule="evenodd" clip-rule="evenodd" d="M3.55681 52.0793L8.53174 55.1552L16.659 50.0641V49.2183L3.55799 51.1688L3.55681 52.0793Z" fill="#DACF69"/>
<path fill-rule="evenodd" clip-rule="evenodd" d="M3.55681 52.0793L8.53174 55.1547L8.53214 55.1543V50.1748C6.36175 50.1748 5.34756 51.1847 3.55799 51.1684L3.55681 52.0793Z" fill="#C5B945"/>
<path fill-rule="evenodd" clip-rule="evenodd" d="M3.55798 51.1684L8.53174 54.3089L16.659 49.2183L11.6514 46.0532L3.55798 51.1684Z" fill="#F6F0AB"/>
<path fill-rule="evenodd" clip-rule="evenodd" d="M3.97224 51.1566L8.54473 54.0473L16.2164 49.1966L11.6491 46.3076L3.97224 51.1566Z" fill="#DACF69"/>
<path fill-rule="evenodd" clip-rule="evenodd" d="M10.9673 52.5161L7.66036 50.4209L5.23505 51.9554L8.54472 54.0476L10.9673 52.5161Z" fill="#88BD2C"/>
<path fill-rule="evenodd" clip-rule="evenodd" d="M16.0583 49.3303L11.6982 46.5723L8.37596 49.0344L12.4366 51.6035L16.0583 49.3303Z" fill="#F6F0AB"/>
<path fill-rule="evenodd" clip-rule="evenodd" d="M8.37594 49.0342L12.4366 51.6032L10.9673 52.5158L7.6572 50.4266L8.37594 49.0342Z" fill="#E6DC80"/>
<path fill-rule="evenodd" clip-rule="evenodd" d="M29.6857 41.0251C31.0646 41.1276 32.0359 41.9187 31.8553 42.7926C31.6748 43.6664 30.41 44.2918 29.0315 44.1897C27.653 44.0876 26.6817 43.296 26.8623 42.4222C27.0429 41.5483 28.3077 40.923 29.6857 41.0251Z" fill="#979797"/>
<path fill-rule="evenodd" clip-rule="evenodd" d="M29.6857 40.9084C31.0646 41.0109 32.0359 41.802 31.8553 42.6759C31.6748 43.5497 30.41 44.1751 29.0315 44.073C27.653 43.9705 26.6817 43.1793 26.8623 42.3055C27.0429 41.4316 28.3077 40.8063 29.6857 40.9084Z" fill="#E3E3E3"/>
<path fill-rule="evenodd" clip-rule="evenodd" d="M31.9717 38.3891C31.9717 37.4993 30.6908 37.144 29.382 37.144C28.6648 37.144 26.7435 37.8882 26.7427 38.4029C26.7631 38.7474 26.9748 42.3436 26.9866 42.5611C27.2592 44.4475 31.4678 44.3949 31.7267 42.4961L31.9717 38.3891Z" fill="#979797"/>
<path fill-rule="evenodd" clip-rule="evenodd" d="M26.9539 41.9679C27.238 42.6776 28.2498 43.241 29.3564 43.241C30.1177 43.241 31.434 42.8969 31.7574 41.9791L31.9364 38.9751C31.0186 40.4433 27.712 40.5169 26.7769 39.0121C26.8241 39.8459 26.9205 41.4226 26.9539 41.9679Z" fill="#668A22"/>
<path fill-rule="evenodd" clip-rule="evenodd" d="M31.8408 40.5815C31.504 42.3529 27.5397 42.6174 26.8792 40.743L26.9579 42.0381C27.5338 43.7776 31.1555 43.6467 31.7538 42.0398L31.8408 40.5815Z" fill="#CACACA"/>
<path fill-rule="evenodd" clip-rule="evenodd" d="M29.7124 36.7272C31.2042 36.8379 32.2554 37.6941 32.0599 38.6394C31.8643 39.5847 30.4965 40.2613 29.0047 40.1507C27.5133 40.04 26.4626 39.1838 26.6577 38.2384C26.8532 37.2931 28.2215 36.6165 29.7124 36.7272Z" fill="#979797"/>
<path fill-rule="evenodd" clip-rule="evenodd" d="M29.7124 36.6002C31.2042 36.7109 32.2553 37.5671 32.0598 38.5124C31.8643 39.4578 30.4965 40.1344 29.0047 40.0237C27.5133 39.913 26.4625 39.0568 26.6577 38.1115C26.8532 37.1666 28.2214 36.4895 29.7124 36.6002Z" fill="#E3E3E3"/>
<path fill-rule="evenodd" clip-rule="evenodd" d="M29.6035 37.1278C30.6357 37.2044 31.3631 37.797 31.2278 38.4508C31.0925 39.105 30.1459 39.5732 29.1137 39.4965C28.0818 39.4198 27.3544 38.8276 27.4897 38.1734C27.625 37.5197 28.5716 37.0515 29.6035 37.1278Z" fill="#CACACA"/>
<path fill-rule="evenodd" clip-rule="evenodd" d="M29.6039 37.2792C30.5114 37.3464 31.1834 37.8128 31.24 38.3693C31.2373 38.396 31.2337 38.4231 31.2278 38.4502C31.0929 39.1044 30.1464 39.573 29.1141 39.4959C28.2065 39.4287 27.535 38.9623 27.4783 38.4059C27.4811 38.3787 27.485 38.352 27.4905 38.3249C27.6251 37.6711 28.5716 37.2025 29.6039 37.2792Z" fill="#979797"/>
<path fill-rule="evenodd" clip-rule="evenodd" d="M29.7128 37.9436C30.3088 37.988 30.834 38.1508 31.238 38.3911C31.2353 38.4109 31.2321 38.4307 31.2282 38.4509C31.0933 39.1051 30.1468 39.5737 29.1145 39.4966C28.2163 39.4299 27.5495 38.9725 27.4807 38.4238C28.0554 38.0724 28.8639 37.8803 29.7128 37.9436Z" fill="#668A22"/>
<path fill-rule="evenodd" clip-rule="evenodd" d="M29.1924 37.9355C30.0653 38.0915 30.646 38.632 30.5241 39.222L30.5197 39.2409C30.1354 39.4343 29.6358 39.5351 29.1141 39.4963C28.216 39.4296 27.5492 38.9722 27.4803 38.4235C27.9363 38.1449 28.5394 37.9661 29.1924 37.9355Z" fill="#88BD2C"/>
<path fill-rule="evenodd" clip-rule="evenodd" d="M31.196 39.7732C29.3785 40.2926 27.8824 41.9374 27.6963 43.5507C28.9764 44.3264 31.5268 43.9612 31.7267 42.496L31.8687 40.1165C31.8152 39.7547 31.4363 39.7048 31.196 39.7732Z" fill="#CACACA"/>
<path fill-rule="evenodd" clip-rule="evenodd" d="M31.196 39.7731C29.6338 40.2197 28.3092 41.4971 27.8497 42.8718C28.2758 43.1005 28.8045 43.2409 29.3564 43.2409C30.1177 43.2409 31.434 42.8968 31.7573 41.979L31.8683 40.1167C31.7979 39.7416 31.4363 39.7046 31.196 39.7731Z" fill="#88BD2C"/>
<path fill-rule="evenodd" clip-rule="evenodd" d="M28.3202 41.9106C28.0988 42.2504 27.9276 42.6088 27.8175 42.9731C29.1007 43.6286 31.2995 43.2604 31.7538 42.0398L31.8408 40.5815C31.613 41.7806 29.7227 42.2888 28.3202 41.9106Z" fill="#E3E3E3"/>
<path fill-rule="evenodd" clip-rule="evenodd" d="M31.8207 43.5873C32.6756 43.6506 33.2782 44.1416 33.1661 44.6834C33.054 45.2252 32.27 45.6132 31.4151 45.5499C30.5602 45.4866 29.958 44.9956 30.0701 44.4539C30.1818 43.9121 30.9662 43.524 31.8207 43.5873Z" fill="#979797"/>
<path fill-rule="evenodd" clip-rule="evenodd" d="M31.8207 43.5152C32.6756 43.5785 33.2782 44.0694 33.1661 44.6112C33.054 45.153 32.27 45.5411 31.4151 45.4773C30.5602 45.414 29.958 44.923 30.0701 44.3812C30.1818 43.8394 30.9662 43.4514 31.8207 43.5152Z" fill="#E3E3E3"/>
<path fill-rule="evenodd" clip-rule="evenodd" d="M33.2601 41.8802C33.2601 41.3212 32.4552 41.0977 31.6326 41.0977C31.1822 41.0977 29.9745 41.5654 29.9737 41.8888C29.9863 42.1054 30.1196 44.3656 30.1271 44.5022C30.2986 45.6878 32.9434 45.6547 33.1063 44.4613L33.2601 41.8802Z" fill="#979797"/>
<path fill-rule="evenodd" clip-rule="evenodd" d="M30.1067 44.1293C30.2853 44.5754 30.921 44.9295 31.6165 44.9295C32.0949 44.9295 32.9222 44.7133 33.1256 44.1361L33.2381 42.248C32.6614 43.171 30.5831 43.2171 29.9953 42.2713C30.0248 42.7959 30.0854 43.7864 30.1067 44.1293Z" fill="#D39F25"/>
<path fill-rule="evenodd" clip-rule="evenodd" d="M33.1779 43.2578C32.9662 44.3711 30.4748 44.5374 30.0598 43.359L30.1094 44.173C30.4713 45.2665 32.7475 45.1838 33.1236 44.1743L33.1779 43.2578Z" fill="#CACACA"/>
<path fill-rule="evenodd" clip-rule="evenodd" d="M31.8404 40.8355C32.7778 40.9049 33.4388 41.4432 33.3156 42.0371C33.1929 42.631 32.3329 43.0565 31.3954 42.9872C30.4584 42.9179 29.7974 42.3795 29.9206 41.7852C30.0433 41.1917 30.9029 40.7662 31.8404 40.8355Z" fill="#979797"/>
<path fill-rule="evenodd" clip-rule="evenodd" d="M31.8404 40.7559C32.7779 40.8253 33.4388 41.3636 33.3157 41.9575C33.1929 42.5514 32.3329 42.9769 31.3955 42.9076C30.4584 42.8383 29.7975 42.2999 29.9206 41.706C30.0434 41.1121 30.9029 40.6866 31.8404 40.7559Z" fill="#E3E3E3"/>
<path fill-rule="evenodd" clip-rule="evenodd" d="M31.7857 41.0203C32.4926 41.0728 32.991 41.4785 32.8986 41.9264C32.8057 42.3748 32.1574 42.6952 31.4505 42.6431C30.7435 42.5905 30.2455 42.1848 30.338 41.7365C30.4304 41.2886 31.0787 40.9677 31.7857 41.0203Z" fill="#CACACA"/>
<path fill-rule="evenodd" clip-rule="evenodd" d="M32.7727 42.7499C31.6303 43.0763 30.6901 44.1099 30.5732 45.1242C31.3777 45.6117 32.9808 45.3822 33.1063 44.4614L33.1956 42.9656C33.1618 42.7382 32.9234 42.7068 32.7727 42.7499Z" fill="#CACACA"/>
<path fill-rule="evenodd" clip-rule="evenodd" d="M32.7727 42.7495C31.7912 43.0303 30.9584 43.8331 30.6696 44.697C30.9375 44.8408 31.2696 44.9287 31.6165 44.9287C32.0949 44.9287 32.9222 44.7125 33.1256 44.1354L33.1952 42.9648C33.1508 42.7301 32.9234 42.7064 32.7727 42.7495Z" fill="#F0CA30"/>
<path fill-rule="evenodd" clip-rule="evenodd" d="M30.965 44.0934C30.8258 44.307 30.7184 44.5322 30.6491 44.7614C31.456 45.1735 32.8376 44.9418 33.1232 44.1748L33.1779 43.2583C33.0347 44.0116 31.8466 44.3307 30.965 44.0934Z" fill="#E3E3E3"/>
<path fill-rule="evenodd" clip-rule="evenodd" d="M31.7672 41.13C32.3951 41.1765 32.8376 41.537 32.7554 41.9349C32.6732 42.3329 32.0973 42.618 31.469 42.5715C30.8411 42.525 30.3986 42.1645 30.4808 41.7665C30.5634 41.3681 31.1389 41.0835 31.7672 41.13Z" fill="#E3E3E3"/>
<path fill-rule="evenodd" clip-rule="evenodd" d="M13.943 40.9672V31.6611L13.415 31.9432C12.7923 32.2761 12.2828 31.991 12.2828 31.3092V6.46553C11.4878 6.86261 10.6073 7.6486 9.78199 8.10038C8.92163 8.57197 7.59744 8.96733 6.81851 9.56985V23.125C6.81851 23.7379 6.3606 24.5303 5.80079 24.8865L2.22714 27.1588V12.2487V10.2344L17.4301 0.644043L17.4344 38.7638L13.943 40.9672Z" fill="#668A22"/>
<path fill-rule="evenodd" clip-rule="evenodd" d="M27.8352 26.1484C26.9665 26.2402 25.2745 30.0508 24.7918 31.1869C24.8229 31.7163 25.3123 32.0328 25.6042 31.6865C25.9567 31.3872 27.9744 29.2622 28.9044 27.779C29.3832 26.9577 28.5323 26.4503 27.8352 26.1484Z" fill="#CB6117"/>
<path d="M27.2989 35.5193L27.2969 35.5167L9.89726 11.3509C9.71 11.0908 10.413 10.7656 10.5381 10.9379L27.9594 35.1299C27.9885 35.167 27.9948 35.2195 27.9712 35.2811C27.9165 35.425 27.6884 35.5705 27.5361 35.5951C27.3839 35.6196 27.3304 35.5826 27.2989 35.5193Z" fill="#487AB1"/>
<path fill-rule="evenodd" clip-rule="evenodd" d="M10.3001 10.8591C10.1148 10.8888 9.91969 11.0292 9.865 11.173C9.81032 11.3169 9.91575 11.4095 10.101 11.3797C10.2863 11.35 10.4815 11.2096 10.5365 11.0658C10.5912 10.9219 10.4854 10.8293 10.3001 10.8591Z" fill="#558BC5"/>
<path d="M10.5798 11.0776L27.9044 35.1366C27.9705 35.2288 27.9272 35.2956 27.8776 35.2271L10.5468 11.1595C10.5558 11.1444 10.5637 11.1285 10.5696 11.113C10.5739 11.1 10.5775 11.0888 10.5798 11.0776Z" fill="#77B3EC"/>
<path fill-rule="evenodd" clip-rule="evenodd" d="M6.63006 9.54809L6.64619 9.57608L10.5224 7.08417C10.6353 7.01139 10.7336 6.51998 10.52 6.14874C10.3064 5.77749 9.96098 5.59403 9.74855 5.73917L5.8708 8.23538L5.88772 8.26509C5.77914 8.45718 6.42432 9.57091 6.63006 9.54809Z" fill="#88BD2C"/>
<path fill-rule="evenodd" clip-rule="evenodd" d="M5.87317 9.17069C6.08679 9.54194 6.43219 9.72542 6.64424 9.58028C6.85667 9.43514 6.85549 9.01608 6.64188 8.64483C6.42826 8.27359 6.08285 8.09012 5.87081 8.23526C5.65838 8.38083 5.65955 8.79945 5.87317 9.17069Z" fill="#668A22"/>
<path fill-rule="evenodd" clip-rule="evenodd" d="M6.04039 9.05654C6.16116 9.26628 6.3559 9.36964 6.47588 9.28781C6.59587 9.20598 6.59509 8.96911 6.4747 8.7598C6.35432 8.55006 6.1592 8.44669 6.03921 8.52852C5.91922 8.61035 5.92001 8.8468 6.04039 9.05654Z" fill="#979797"/>
<path d="M10.1959 11.1715C10.1734 11.1715 10.1518 11.1607 10.1368 11.14L8.97592 9.53706C8.91652 9.45437 8.82447 9.45695 8.66514 9.49356L6.9212 9.88376C6.78941 9.91347 6.59035 9.95869 6.4621 9.78125L6.0211 9.17012C5.99513 9.13437 6.00103 9.0827 6.03369 9.05427L6.1698 8.93626C6.20246 8.90783 6.24966 8.9143 6.27563 8.94961C6.30159 8.98536 6.29608 9.03748 6.26343 9.0659L6.18633 9.13308L6.58091 9.67961C6.63952 9.76144 6.73158 9.75843 6.89091 9.72225L8.63524 9.33205C8.76703 9.30234 8.96609 9.25754 9.09434 9.43541L10.2549 11.038C10.2808 11.0737 10.2753 11.1258 10.2427 11.1543C10.2289 11.165 10.2124 11.1715 10.1959 11.1715Z" fill="#666666"/>
<path fill-rule="evenodd" clip-rule="evenodd" d="M22.7949 47.0505C22.3661 47.3817 22.6269 48.3765 23.0789 48.5436C24.1053 48.9235 24.8784 49.3955 25.5558 49.6363C25.7958 49.7215 26.367 49.7999 26.6085 49.3128C26.6683 49.125 26.2918 48.4334 26.2918 48.4334C25.0857 48.5764 23.3288 46.7283 22.7949 47.0505Z" fill="#9B9B9A"/>
<path fill-rule="evenodd" clip-rule="evenodd" d="M24.2013 47.1301C23.6706 47.2769 23.219 46.8686 23.0415 46.8996C22.8999 46.9225 22.704 47.0823 22.6631 47.3243C22.5942 47.7287 22.7984 48.1348 23.1281 48.3149C23.4821 48.5082 23.8862 48.4195 24.4861 48.6844C24.8158 48.8299 25.623 49.3446 25.9271 49.3493C26.2324 49.3545 26.4913 49.1366 26.5212 48.8885C26.4991 47.3889 25.2186 46.8488 24.2013 47.1301Z" fill="#3E3E3D"/>
<path fill-rule="evenodd" clip-rule="evenodd" d="M23.2103 40.8244C23.1234 40.544 22.7678 39.46 22.719 39.0668C21.6478 34.5395 21.4204 33.1122 21.7595 30.3021C22.6183 29.9846 24.6675 30.9498 25.4409 30.1035C27.0358 31.8503 25.0156 38.1585 25.4976 40.352C25.1502 40.9911 23.9759 41.5578 23.2103 40.8244Z" fill="#314A8D"/>
<path fill-rule="evenodd" clip-rule="evenodd" d="M26.457 48.3718C25.7245 49.1247 24.9558 48.8774 24.5125 47.8094C24.4951 46.1086 23.6934 42.8462 23.1599 40.6601C22.8476 39.3099 24.8284 38.6049 25.5148 40.3522C26.3642 42.2937 26.3728 47.5837 26.457 48.3718Z" fill="#314A8D"/>
<path fill-rule="evenodd" clip-rule="evenodd" d="M18.4884 48.7971C18.0596 49.1282 18.3204 50.1231 18.7724 50.2902C19.7988 50.6701 20.5722 51.1421 21.2492 51.3829C21.4892 51.4681 22.0604 51.5465 22.3016 51.0594C22.3618 50.8716 21.9849 50.18 21.9849 50.18C20.7787 50.323 19.0222 48.4749 18.4884 48.7971Z" fill="#9B9B9A"/>
<path fill-rule="evenodd" clip-rule="evenodd" d="M19.8945 48.8772C19.3606 49.0115 18.9122 48.6157 18.7347 48.6468C18.5931 48.6696 18.3972 48.8294 18.3563 49.071C18.2874 49.4754 18.4916 49.8815 18.8217 50.0615C19.1757 50.2545 19.5798 50.1662 20.1797 50.4306C20.5094 50.5762 21.3166 51.0909 21.6207 51.0956C21.926 51.1008 22.1849 50.8828 22.2148 50.6348C22.1923 49.136 21.0782 48.5796 19.8945 48.8772Z" fill="#3E3E3D"/>
<path fill-rule="evenodd" clip-rule="evenodd" d="M19.9663 41.955C19.9132 41.6677 19.7822 41.0157 19.7811 40.6216C19.2586 36.025 19.3936 33.5197 20.0722 30.7875C20.9679 30.5782 23.5329 31.4189 24.4074 30.6772C26.2198 33.1911 22.0368 38.5535 22.4747 41.7681C22.0506 42.3577 20.6422 42.7716 19.9663 41.955Z" fill="#4165BD"/>
<path fill-rule="evenodd" clip-rule="evenodd" d="M22.1234 49.852C21.2854 50.5118 20.6564 50.0377 20.381 48.9222C20.6226 47.2296 20.1159 43.9052 19.9215 41.6679C19.8181 40.2884 22.0612 39.9494 22.4735 41.7686C22.7021 43.4668 22.16 49.0587 22.1234 49.852Z" fill="#4165BD"/>
<path fill-rule="evenodd" clip-rule="evenodd" d="M26.2576 18.8089C25.2505 18.0212 23.8685 19.818 24.8701 21.9877C24.9043 22.0407 26.4763 26.0947 27.6853 27.854C28.2049 28.2576 29.3175 27.8161 29.1519 26.6813C28.9434 25.2579 28.5456 20.5984 26.2576 18.8089Z" fill="#DE7E32"/>
<path fill-rule="evenodd" clip-rule="evenodd" d="M22.4735 19.9387C22.3275 19.983 21.4448 20.443 20.8004 21.3543C20.3295 22.0257 20.355 23.5253 20.3735 23.7235C20.4321 24.3617 20.2909 27.5018 20.145 30.3619C20.4215 31.3081 24.5129 31.1169 25.7537 29.9709C25.7651 28.6978 26.4279 25.9587 26.5519 25.2472C26.675 24.534 27.2517 20.6338 26.3957 19.3301C26.1986 19.0295 25.5298 18.716 25.2249 18.7547C24.1368 18.8895 22.6548 19.8835 22.4735 19.9387Z" fill="#CB6117"/>
<path fill-rule="evenodd" clip-rule="evenodd" d="M21.5573 20.532C22.4703 20.1978 24.0754 22.2672 24.7886 25.6566C25.1576 25.7919 25.2529 25.356 25.6223 25.2449C25.0188 22.4403 23.7174 19.7163 22.4739 19.9385C21.9731 20.1551 21.9447 20.1302 21.5573 20.532Z" fill="#4165BD"/>
<path fill-rule="evenodd" clip-rule="evenodd" d="M25.1553 18.7638C26.09 18.7315 26.0235 20.0542 26.0188 20.9314C26.0109 22.3755 25.6333 24.0009 25.2084 25.4256C25.5239 25.5608 25.6089 25.081 26.0223 24.9699C26.5263 23.702 26.5711 22.3703 26.7147 21.124C26.8642 19.8233 26.4606 18.7557 25.6006 18.611C25.4417 18.5851 25.1553 18.7638 25.1553 18.7638Z" fill="#4165BD"/>
<path fill-rule="evenodd" clip-rule="evenodd" d="M23.5943 30.977C24.1694 29.4106 24.8118 27.5802 24.7878 25.5362C25.21 25.3127 25.6321 25.0888 26.0546 24.8652C26.1443 26.1185 26.0392 28.3068 25.7544 29.9701C25.1258 30.8275 24.3948 31.1015 23.5943 30.977Z" fill="#314A8D"/>
<path fill-rule="evenodd" clip-rule="evenodd" d="M20.0493 30.878C20.8491 31.6412 24.6557 32.3255 25.7289 30.6941C25.7163 30.5042 25.7666 30.1601 25.7544 29.9697C24.5384 30.9375 21.4998 31.1989 20.1457 30.3608C20.1135 30.533 20.0812 30.7053 20.0493 30.878Z" fill="#314A8D"/>
<path fill-rule="evenodd" clip-rule="evenodd" d="M22.3291 20.787C24.8811 23.7031 17.7275 24.9572 16.5272 25.0421C15.6681 25.0292 15.6791 23.6704 16.6189 23.157C18.5725 22.175 21.3421 19.6594 22.3291 20.787Z" fill="#DE7E32"/>
<path fill-rule="evenodd" clip-rule="evenodd" d="M15.901 18.0794C15.8585 17.8736 15.7944 17.6436 15.7208 17.5325C15.5831 17.3253 15.4781 17.1961 15.3742 16.9575C15.2251 17.0953 15.1842 17.2943 15.4104 17.7039C15.6126 18.2999 15.3423 18.3921 15.6748 18.6686C15.7869 18.7616 15.8644 18.9317 15.9041 18.7664C15.9749 18.4528 15.96 18.3671 15.901 18.0794Z" fill="#D99E72"/>
<path fill-rule="evenodd" clip-rule="evenodd" d="M14.288 18.7715C14.1551 18.6207 14.1323 18.5613 14.1189 18.5118C14.1016 18.4476 14.1 18.3374 14.1673 18.3257C14.1031 18.2064 14.1358 17.9872 14.2172 17.9648C14.1846 17.8507 14.1244 17.7025 14.2833 17.5686C14.3341 17.5259 14.4407 17.4088 14.4615 17.426C14.6531 17.855 14.491 18.4584 14.288 18.7715Z" fill="#D99E72"/>
<path fill-rule="evenodd" clip-rule="evenodd" d="M15.901 18.8651C16.0088 18.5611 15.9891 18.3358 15.8703 18.145C15.4399 17.403 14.8297 17.4387 14.6625 17.3832C14.4812 17.3431 14.4407 17.2759 14.4233 17.502C14.196 17.7217 14.266 17.8259 14.3659 18.0455C14.2695 18.0783 14.1964 18.3492 14.3211 18.5296C14.2286 18.6752 14.2518 18.7622 14.3801 18.8828C14.7503 19.1916 14.9753 19.2502 15.264 19.3557C15.8667 19.5766 15.9191 19.3036 15.901 18.8651Z" fill="#ECC19A"/>
<path fill-rule="evenodd" clip-rule="evenodd" d="M14.5256 17.722L13.8325 17.4946C13.6216 17.4253 13.7117 17.1544 13.9269 17.2056L14.6216 17.3719C14.8368 17.4235 14.7369 17.7914 14.5256 17.722Z" fill="#ECC19A"/>
<path fill-rule="evenodd" clip-rule="evenodd" d="M16.1732 24.6873C15.4466 24.1584 15.0382 20.6815 15.1012 19.4304C15.3561 18.9795 15.9867 18.7616 16.0949 19.2172C16.2766 19.6634 17.3699 22.6011 17.7413 23.9271C17.8105 24.8992 16.9183 24.7812 16.1732 24.6873Z" fill="#DE7E32"/>
<path fill-rule="evenodd" clip-rule="evenodd" d="M21.2704 16.0068L21.5053 17.046L22.37 16.7863L22.1005 15.7178L21.2704 16.0068Z" fill="#C4C4C4"/>
<path d="M21.8239 16.8638L22.2764 16.7282C22.2 16.4267 22.1241 16.1248 22.0482 15.8233C21.9746 15.8397 21.9022 15.8543 21.8239 15.8776V15.6993C21.9357 15.6653 22.0439 15.6394 22.1528 15.6123C22.2563 16.0232 22.3602 16.434 22.4636 16.8445L21.8236 17.0365L21.8239 16.8638ZM21.3715 16.1076C21.4034 16.4138 21.4577 16.7002 21.5604 16.9431L21.8239 16.8638L21.8236 17.0365L21.4888 17.1373C21.379 16.8514 21.2586 16.4259 21.1898 15.9965C21.4258 15.841 21.63 15.7579 21.8239 15.6993V15.8776C21.6973 15.9155 21.5564 15.9767 21.3715 16.1076Z" fill="#222221"/>
<path fill-rule="evenodd" clip-rule="evenodd" d="M21.8291 17.2738C21.6127 17.4185 21.6029 17.6477 21.6131 17.7704C21.7193 19.0422 22.4605 19.9212 22.7543 18.6537C22.8802 18.1106 23.2115 17.6343 22.7217 17.2812C22.3511 17.0141 21.8767 17.2721 21.8291 17.2738Z" fill="#4D4D4D"/>
<path fill-rule="evenodd" clip-rule="evenodd" d="M21.8979 14.7472C21.8023 15.0297 21.6874 15.3131 21.63 15.6068C21.5895 15.8122 21.571 15.8734 21.6442 16.0564C21.7559 16.3381 21.8228 16.3967 21.632 16.6236C21.4459 16.8446 21.6851 17.5617 21.7744 17.8933C21.8448 18.1547 21.8826 18.4609 22.0985 18.6173C22.6367 19.0074 23.2398 18.7732 23.7807 18.5617C24.3165 18.355 25.3665 16.8622 25.5317 16.3743C25.6513 15.3742 25.4161 14.5094 23.8925 13.9026C23.2315 13.6395 22.1375 14.0396 21.8979 14.7472Z" fill="#ECC19A"/>
<path fill-rule="evenodd" clip-rule="evenodd" d="M22.5643 17.5324C22.5643 17.5324 22.4872 18.7391 22.7563 19.8301C23.608 19.6139 24.6635 20.191 25.4471 19.3955C25.2984 19.0716 24.8728 18.159 24.9865 16.7886C25.0223 16.3571 22.6229 16.3015 22.5643 17.5324Z" fill="#D99E72"/>
<path fill-rule="evenodd" clip-rule="evenodd" d="M22.1937 16.2051C22.2327 16.3262 22.407 16.5071 22.1174 16.7771C21.7032 17.1432 22.143 18.0743 22.4058 17.6509C22.5309 17.4489 22.4664 16.6905 22.5505 16.6259C22.8031 16.4308 23.0683 17.1199 23.346 17.6815C23.7807 18.5614 24.9066 18.1824 24.9845 18.1178C25.3921 17.7806 25.7489 17.3594 25.7756 16.6875C25.8067 15.9067 26.0514 15.0406 25.5427 14.3687C24.6662 13.2111 22.8137 12.7722 21.6257 14.3175C21.0135 15.1134 21.9687 15.5074 22.1937 16.2051Z" fill="#4D4D4D"/>
<path fill-rule="evenodd" clip-rule="evenodd" d="M22.9562 16.6092L21.2319 15.998L21.3039 16.3163L22.9416 16.8284L23.0852 17.4628L23.4141 17.5644L22.9562 16.6092Z" fill="#363636"/>
<path fill-rule="evenodd" clip-rule="evenodd" d="M23.0801 16.981C23.0348 17.3368 22.8114 17.8342 22.6729 17.8045C22.3204 17.6692 22.4904 17.4117 22.5348 17.0564C22.5808 16.7015 22.4971 16.4845 22.6336 16.453C22.8908 16.3962 23.1249 16.624 23.0801 16.981Z" fill="#ECC19A"/>
</svg>
