<svg width="32" height="56" viewBox="0 0 32 56" fill="none" xmlns="http://www.w3.org/2000/svg">
<path opacity="0.4" fill-rule="evenodd" clip-rule="evenodd" d="M16.0002 36.6182C24.4491 36.6182 31.3015 40.5954 31.3015 45.5003C31.3015 50.4052 24.4491 54.3829 16.0002 54.3829C7.55086 54.3829 0.698463 50.4056 0.698463 45.5003C0.698463 40.5954 7.55086 36.6182 16.0002 36.6182Z" fill="#D2D2E1"/>
<path fill-rule="evenodd" clip-rule="evenodd" d="M5.2928 49.8807V10.5526L4.54365 10.083L4.54567 49.4071L5.2928 49.8807Z" fill="#AFAFAF"/>
<path fill-rule="evenodd" clip-rule="evenodd" d="M20.9756 0.65918L5.29239 10.5525V49.8797L20.9801 39.9832L20.9756 0.65918Z" fill="#D7C792"/>
<path fill-rule="evenodd" clip-rule="evenodd" d="M20.9756 0.659328L5.29243 10.5527L4.54367 10.0826L20.205 0.1875L20.9756 0.659328Z" fill="#E3E3E3"/>
<path fill-rule="evenodd" clip-rule="evenodd" d="M15.1979 23.7397L14.1212 24.3928L14.1216 45.1734L15.2044 44.5149L15.1979 23.7397Z" fill="#E3E3E3"/>
<path fill-rule="evenodd" clip-rule="evenodd" d="M14.1216 45.174V24.3931L13.4058 23.9443L13.4086 44.72L14.1216 45.174Z" fill="#AFAFAF"/>
<path fill-rule="evenodd" clip-rule="evenodd" d="M17.6702 10.3071L12.0986 13.801L12.099 25.6816L17.6763 22.1828L17.6702 10.3071Z" fill="#AFAFAF"/>
<path fill-rule="evenodd" clip-rule="evenodd" d="M23.2446 25.7334V13.8519L23.3583 13.7666L23.3554 25.6428L23.2446 25.7334Z" fill="#E3E3E3"/>
<path fill-rule="evenodd" clip-rule="evenodd" d="M17.6738 10.3574L23.245 13.8517V25.7323L17.6673 22.2331L17.6738 10.3574Z" fill="#979797"/>
<path fill-rule="evenodd" clip-rule="evenodd" d="M17.6737 10.3579L23.2449 13.8518L23.3578 13.7665L17.8174 10.2695L17.6737 10.3579Z" fill="white"/>
<path fill-rule="evenodd" clip-rule="evenodd" d="M23.0186 47.7149C22.5762 48.0565 22.8453 49.0828 23.312 49.2552C24.3708 49.647 25.1682 50.134 25.8671 50.3823C26.1146 50.4703 26.7039 50.5512 26.9531 50.0487C27.0152 49.855 26.6264 49.1414 26.6264 49.1414C25.3813 49.2885 23.5693 47.3821 23.0186 47.7149Z" fill="#9B9B9A"/>
<path fill-rule="evenodd" clip-rule="evenodd" d="M24.469 47.7971C23.9216 47.9486 23.4557 47.5274 23.2727 47.5594C23.1266 47.5829 22.9245 47.7477 22.8823 47.9974C22.8112 48.4146 23.0219 48.8336 23.3619 49.0193C23.7272 49.2188 24.144 49.1272 24.7629 49.4C25.1034 49.5502 25.9357 50.0811 26.2498 50.086C26.5647 50.0913 26.8318 49.8665 26.8622 49.6106C26.8395 48.0636 25.5185 47.5069 24.469 47.7971Z" fill="#3E3E3D"/>
<path fill-rule="evenodd" clip-rule="evenodd" d="M23.4467 41.2915C23.3571 41.0023 22.9902 39.8845 22.9399 39.4784C21.8344 34.8081 21.6002 33.3357 21.95 30.4367C22.836 30.1093 24.9495 31.105 25.7478 30.2319C27.393 32.034 25.3091 38.5414 25.8062 40.8041C25.4483 41.4634 24.2365 42.0486 23.4467 41.2915Z" fill="#314A8D"/>
<path fill-rule="evenodd" clip-rule="evenodd" d="M26.796 49.0772C26.0404 49.8538 25.2474 49.5992 24.79 48.497C24.7722 46.7425 23.9451 43.377 23.3948 41.1214C23.0726 39.729 25.1159 39.0013 25.8241 40.8038C26.7003 42.8075 26.7092 48.2642 26.796 49.0772Z" fill="#314A8D"/>
<path fill-rule="evenodd" clip-rule="evenodd" d="M18.5756 49.517C18.1332 49.8587 18.4023 50.885 18.869 51.0573C19.9278 51.4492 20.7252 51.9361 21.4241 52.1845C21.6716 52.2725 22.2609 52.3533 22.5101 51.8508C22.5718 51.6571 22.1834 50.9436 22.1834 50.9436C20.9387 51.0907 19.1263 49.1847 18.5756 49.517Z" fill="#9B9B9A"/>
<path fill-rule="evenodd" clip-rule="evenodd" d="M20.0264 49.5989C19.4757 49.7375 19.0131 49.3292 18.83 49.3612C18.6839 49.3847 18.4818 49.5495 18.4396 49.7988C18.3686 50.216 18.5792 50.6349 18.9193 50.8206C19.2846 51.0197 19.7014 50.9286 20.3203 51.2014C20.6603 51.3516 21.4931 51.8825 21.8068 51.8874C22.1217 51.8927 22.3887 51.6679 22.4196 51.412C22.3969 49.8654 21.2476 49.2914 20.0264 49.5989Z" fill="#3E3E3D"/>
<path fill-rule="evenodd" clip-rule="evenodd" d="M20.1003 42.4578C20.0455 42.1615 19.9104 41.4893 19.9091 41.0827C19.3698 36.3405 19.5094 33.7565 20.209 30.938C21.1331 30.722 23.7791 31.5888 24.6813 30.8242C26.5509 33.4175 22.2357 38.9493 22.6874 42.2659C22.2504 42.8728 20.7975 43.3002 20.1003 42.4578Z" fill="#4165BD"/>
<path fill-rule="evenodd" clip-rule="evenodd" d="M22.3254 50.6046C21.461 51.2852 20.8121 50.7956 20.5276 49.6449C20.7768 47.8989 20.2545 44.4695 20.0536 42.1614C19.9473 40.7384 22.2609 40.3883 22.6862 42.2654C22.9228 44.0176 22.3636 49.7862 22.3254 50.6046Z" fill="#4165BD"/>
<path fill-rule="evenodd" clip-rule="evenodd" d="M20.1863 31.0312C21.0114 31.8185 24.9382 32.5245 26.0449 30.8415C26.0323 30.6456 26.0842 30.2906 26.0712 30.0942C24.8168 31.0925 21.6822 31.3622 20.2854 30.4977C20.2521 30.6758 20.2192 30.8535 20.1863 31.0312Z" fill="#314A8D"/>
<path fill-rule="evenodd" clip-rule="evenodd" d="M17.6767 22.1825V10.3014L16.4486 9.52881L16.4511 21.405L17.6767 22.1825Z" fill="#979797"/>
<path fill-rule="evenodd" clip-rule="evenodd" d="M17.6702 10.3065L12.099 13.8003L10.8714 13.0277L16.4117 9.53076L17.6702 10.3065Z" fill="white"/>
<path fill-rule="evenodd" clip-rule="evenodd" d="M17.6759 22.1823L12.1046 25.6762L10.8766 24.904L16.4511 21.4053L17.6759 22.1823Z" fill="white"/>
<path fill-rule="evenodd" clip-rule="evenodd" d="M12.0994 25.6825V13.801L10.8714 13.0288L10.8738 24.9045L12.0994 25.6825Z" fill="#E3E3E3"/>
<path fill-rule="evenodd" clip-rule="evenodd" d="M17.6702 10.3071L14.8878 12.0523V12.3175L17.5026 10.6777L17.5083 22.0234L14.8878 23.6676V23.9324L17.6767 22.1828L17.6702 10.3071ZM14.8874 12.0518L12.0986 13.801V25.6816L14.887 23.932V23.6672L12.2666 25.3111L12.2662 13.9609L14.887 12.3175L14.8874 12.0518Z" fill="#CACACA"/>
<path fill-rule="evenodd" clip-rule="evenodd" d="M27.3216 21.7273C27.6442 20.1324 28.0817 17.3689 24.2564 18.5258C24.1979 18.5436 23.0563 19.1394 20.6287 19.8165C20.0905 20.2297 19.789 21.9437 20.8535 22.1601C22.1887 22.432 26.7189 24.7067 27.3216 21.7273Z" fill="#CB6117"/>
<path fill-rule="evenodd" clip-rule="evenodd" d="M22.687 19.7462C22.5365 19.7919 21.6258 20.2664 20.961 21.2065C20.4753 21.8992 20.5012 23.4462 20.5207 23.6506C20.5812 24.309 20.4355 27.5483 20.2849 30.4988C20.5702 31.4749 24.7908 31.2776 26.0712 30.0953C26.083 28.782 26.7668 25.9564 26.8946 25.2224C27.0217 24.4867 27.617 20.4633 26.7335 19.1184C26.5302 18.8083 25.8403 18.4849 25.5258 18.5248C24.4029 18.6644 22.8741 19.6898 22.687 19.7462Z" fill="#CB6117"/>
<path fill-rule="evenodd" clip-rule="evenodd" d="M21.7414 20.3582C22.6834 20.0135 24.3391 22.1482 25.0749 25.6448C25.456 25.7843 25.5538 25.3346 25.9349 25.2205C25.3123 22.3273 23.9699 19.5172 22.687 19.746C22.1704 19.9695 22.1416 19.9437 21.7414 20.3582Z" fill="#4165BD"/>
<path fill-rule="evenodd" clip-rule="evenodd" d="M25.4536 18.5349C26.4178 18.5016 26.3492 19.866 26.3444 20.771C26.3363 22.2607 25.9467 23.9374 25.5084 25.4071C25.8338 25.5466 25.9215 25.0517 26.348 24.9371C26.8679 23.6291 26.9142 22.2554 27.0619 20.9696C27.2161 19.6279 26.7997 18.5265 25.9126 18.3772C25.7486 18.3501 25.4536 18.5349 25.4536 18.5349Z" fill="#4165BD"/>
<path fill-rule="evenodd" clip-rule="evenodd" d="M22.3871 20.597C25.6382 22.7624 18.8114 26.0914 17.6353 26.5251C16.7757 26.7619 16.4572 25.4041 17.2696 24.6191C18.979 23.0721 21.1303 19.7595 22.3871 20.597Z" fill="#DE7E32"/>
<path fill-rule="evenodd" clip-rule="evenodd" d="M21.3271 15.7229L21.5697 16.7949L22.4618 16.5266L22.1834 15.4243L21.3271 15.7229Z" fill="#C4C4C4"/>
<path d="M21.8981 16.607L22.3648 16.4666C22.286 16.1556 22.2077 15.8446 22.1294 15.5331C22.0535 15.55 21.9784 15.5656 21.8981 15.5896V15.4056C22.0133 15.371 22.1253 15.3439 22.2377 15.3154C22.3445 15.7393 22.4516 16.1631 22.5584 16.587L21.8981 16.7856V16.607ZM21.4314 15.8268C21.4642 16.1427 21.5202 16.4381 21.6262 16.6887L21.8981 16.607V16.7856L21.5523 16.8891C21.4391 16.5941 21.3149 16.1551 21.2439 15.7117C21.4874 15.5513 21.698 15.4665 21.8981 15.4056V15.5896C21.7678 15.6287 21.6225 15.6913 21.4314 15.8268Z" fill="#222221"/>
<path fill-rule="evenodd" clip-rule="evenodd" d="M21.9034 17.03C21.6802 17.1792 21.67 17.4156 21.6806 17.5422C21.7901 18.8546 22.5547 19.761 22.8579 18.4535C22.9877 17.8932 23.3294 17.4018 22.8242 17.0375C22.4419 16.7621 21.9525 17.0277 21.9034 17.03Z" fill="#4D4D4D"/>
<path fill-rule="evenodd" clip-rule="evenodd" d="M21.9744 14.4229C21.8758 14.7143 21.7577 15.0062 21.698 15.3097C21.6562 15.5216 21.6371 15.5847 21.7126 15.7735C21.8279 16.0636 21.8973 16.1245 21.7 16.3582C21.5081 16.5861 21.7548 17.3258 21.8465 17.6679C21.9192 17.9376 21.9581 18.2535 22.1809 18.4148C22.7361 18.8173 23.3583 18.5756 23.9163 18.3575C24.469 18.1442 25.5522 16.6043 25.7226 16.1009C25.846 15.0693 25.6033 14.1772 24.0315 13.5512C23.3501 13.2797 22.2215 13.6925 21.9744 14.4229Z" fill="#ECC19A"/>
<path fill-rule="evenodd" clip-rule="evenodd" d="M22.6622 17.2967C22.6622 17.2967 22.5827 18.5416 22.8599 19.667C23.7385 19.444 24.8273 20.0389 25.6357 19.2183C25.4823 18.8842 25.0432 17.9427 25.1605 16.529C25.1975 16.0843 22.7227 16.027 22.6622 17.2967Z" fill="#D99E72"/>
<path fill-rule="evenodd" clip-rule="evenodd" d="M22.2795 15.9276C22.3197 16.0524 22.4995 16.239 22.2008 16.5176C21.7735 16.8953 22.2272 17.8558 22.4983 17.4191C22.6277 17.2107 22.5612 16.4288 22.6476 16.3617C22.9082 16.1609 23.1817 16.8713 23.4682 17.4506C23.9166 18.3583 25.0785 17.9669 25.1585 17.9007C25.5789 17.5528 25.947 17.1187 25.9746 16.4252C26.0063 15.6197 26.2591 14.7263 25.7343 14.0332C24.8302 12.8389 22.9191 12.3862 21.6939 13.9803C21.0625 14.8009 22.0478 15.2074 22.2795 15.9276Z" fill="#4D4D4D"/>
<path fill-rule="evenodd" clip-rule="evenodd" d="M23.066 16.3438L21.2873 15.7134L21.3616 16.0417L23.051 16.57L23.1992 17.2248L23.5388 17.3292L23.066 16.3438Z" fill="#363636"/>
<path fill-rule="evenodd" clip-rule="evenodd" d="M23.1939 16.7275C23.1472 17.0944 22.9167 17.6076 22.7739 17.5769C22.4102 17.4374 22.5855 17.1717 22.6314 16.8052C22.6793 16.4391 22.5924 16.2152 22.7333 16.1828C22.9987 16.1241 23.2401 16.3596 23.1939 16.7275Z" fill="#ECC19A"/>
<path fill-rule="evenodd" clip-rule="evenodd" d="M23.8428 31.133C24.4362 29.5171 25.0989 27.6289 25.0741 25.5203C25.5096 25.2897 25.945 25.0587 26.3809 24.8281C26.473 26.121 26.3647 28.3784 26.0712 30.0947C25.4231 30.9784 24.6691 31.2609 23.8428 31.133Z" fill="#314A8D"/>
<path fill-rule="evenodd" clip-rule="evenodd" d="M7.20143 55.7813L7.15193 52.8912L14.3245 48.4004L13.8939 51.593L7.20143 55.7813Z" fill="#D39F25"/>
<path fill-rule="evenodd" clip-rule="evenodd" d="M4.15731 51.0303L7.15152 52.8909L7.20143 55.781L4.61266 54.1847L4.15731 51.0303Z" fill="#C18B21"/>
<path fill-rule="evenodd" clip-rule="evenodd" d="M4.44261 49.408L7.15152 51.0759L14.0701 46.7499L11.379 45.0771L4.44261 49.408Z" fill="#858585"/>
<path fill-rule="evenodd" clip-rule="evenodd" d="M7.15152 52.8914L4.15731 51.0308L4.44261 49.4087L7.15152 51.0765V52.8914Z" fill="#3E3E3D"/>
<path fill-rule="evenodd" clip-rule="evenodd" d="M7.15193 52.8913L14.3245 48.4004L14.0709 46.7441L7.15193 51.0764V52.8913Z" fill="#585857"/>
<path fill-rule="evenodd" clip-rule="evenodd" d="M6.88488 49.2417L7.19859 48.8321V48.1044L10.6368 46.265V47.2682L10.8884 47.4246L11.0783 45.6523L6.88488 48.1523V49.2417Z" fill="#C18B21"/>
<path fill-rule="evenodd" clip-rule="evenodd" d="M6.88446 48.1552L7.21806 48.3582L11.3705 45.7614L11.0483 45.5557L6.88446 48.1552Z" fill="#EDC52E"/>
<path fill-rule="evenodd" clip-rule="evenodd" d="M6.90719 49.9018L6.5736 49.6978L6.88447 48.1553L7.21806 48.3579L6.90719 49.9018Z" fill="#C18B21"/>
<path fill-rule="evenodd" clip-rule="evenodd" d="M6.9072 49.9016L7.70709 49.4147L7.70101 48.4168L10.8884 46.4211V47.4247L11.6087 46.9915L11.3709 45.7573L7.21808 48.3582L6.9072 49.9016Z" fill="#D39F25"/>
<path fill-rule="evenodd" clip-rule="evenodd" d="M8.10601 51.9662L8.42337 52.1621L9.23949 51.6561L8.93349 51.457L8.10601 51.9662Z" fill="#858585"/>
<path fill-rule="evenodd" clip-rule="evenodd" d="M8.26469 53.5608L8.10602 53.4622V51.9658L8.42338 52.1617L8.26469 53.5608Z" fill="#3E3E3D"/>
<path fill-rule="evenodd" clip-rule="evenodd" d="M8.26469 53.5614L9.08123 53.0501L9.2399 51.6523L8.42338 52.1624L8.26469 53.5614Z" fill="#585857"/>
<path fill-rule="evenodd" clip-rule="evenodd" d="M12.4614 49.2245L12.7787 49.4204L13.5944 48.9144L13.2888 48.7153L12.4614 49.2245Z" fill="#858585"/>
<path fill-rule="evenodd" clip-rule="evenodd" d="M12.6196 50.8196L12.4609 50.721L12.4614 49.2246L12.7787 49.4205L12.6196 50.8196Z" fill="#3E3E3D"/>
<path fill-rule="evenodd" clip-rule="evenodd" d="M12.6196 50.8192L13.4366 50.3074L13.5948 48.9102L12.7787 49.4202L12.6196 50.8192Z" fill="#585857"/>
<path fill-rule="evenodd" clip-rule="evenodd" d="M15.1979 19.4917L14.1212 20.1448L14.1216 24.0865L15.2044 23.4285L15.1979 19.4917Z" fill="#E3E3E3"/>
<path fill-rule="evenodd" clip-rule="evenodd" d="M14.1216 24.0881V20.1455L13.4058 19.6968L13.4086 23.634L14.1216 24.0881Z" fill="#979797"/>
<path fill-rule="evenodd" clip-rule="evenodd" d="M16.7083 15.939L16.1564 16.2851V18.7437L16.7096 18.3963L16.7083 15.939Z" fill="#E3E3E3"/>
<path fill-rule="evenodd" clip-rule="evenodd" d="M16.7084 15.9392L16.1564 16.2853L15.9024 16.1253L16.4482 15.7788L16.7084 15.9392Z" fill="white"/>
<path fill-rule="evenodd" clip-rule="evenodd" d="M16.1564 18.7436V16.2849L15.9024 16.125L15.9028 18.5828L16.1564 18.7436Z" fill="#AFAFAF"/>
<path fill-rule="evenodd" clip-rule="evenodd" d="M16.863 16.4316L16.305 16.7875V18.2452L16.8638 17.8884L16.863 16.4316Z" fill="#E3E3E3"/>
<path fill-rule="evenodd" clip-rule="evenodd" d="M16.863 16.4315L16.305 16.7874L16.1544 16.6923L16.7088 16.3364L16.863 16.4315Z" fill="white"/>
<path fill-rule="evenodd" clip-rule="evenodd" d="M16.305 18.2452V16.7875L16.1544 16.6924V18.1496L16.305 18.2452Z" fill="#AFAFAF"/>
<path fill-rule="evenodd" clip-rule="evenodd" d="M16.6966 16.9727L16.4713 17.1157V17.7039L16.697 17.5604L16.6966 16.9727Z" fill="#4D4D4D"/>
<path fill-rule="evenodd" clip-rule="evenodd" d="M16.1102 16.3174L15.5578 16.6635L15.5582 19.1217L16.1114 18.7747L16.1102 16.3174Z" fill="#E3E3E3"/>
<path fill-rule="evenodd" clip-rule="evenodd" d="M16.1102 16.3176L15.5583 16.6633L15.3042 16.5038L15.8496 16.1572L16.1102 16.3176Z" fill="white"/>
<path fill-rule="evenodd" clip-rule="evenodd" d="M15.5582 19.1216V16.6629L15.3042 16.5034L15.3046 18.9608L15.5582 19.1216Z" fill="#AFAFAF"/>
<path fill-rule="evenodd" clip-rule="evenodd" d="M16.2648 16.8101L15.7064 17.1655V18.6232L16.2652 18.2669L16.2648 16.8101Z" fill="#E3E3E3"/>
<path fill-rule="evenodd" clip-rule="evenodd" d="M16.2648 16.8099L15.7064 17.1653L15.5558 17.0707L16.1102 16.7144L16.2648 16.8099Z" fill="white"/>
<path fill-rule="evenodd" clip-rule="evenodd" d="M15.7064 18.6231V17.1654L15.5558 17.0708L15.5562 18.5276L15.7064 18.6231Z" fill="#AFAFAF"/>
<path fill-rule="evenodd" clip-rule="evenodd" d="M16.0984 17.3506L15.8732 17.4941V18.0823L16.0988 17.9384L16.0984 17.3506Z" fill="#4D4D4D"/>
<path fill-rule="evenodd" clip-rule="evenodd" d="M15.512 16.6958L14.9596 17.0419V19.5006L15.5132 19.1531L15.512 16.6958Z" fill="#E3E3E3"/>
<path fill-rule="evenodd" clip-rule="evenodd" d="M15.512 16.6955L14.9597 17.0416L14.7056 16.8817L15.2515 16.5352L15.512 16.6955Z" fill="white"/>
<path fill-rule="evenodd" clip-rule="evenodd" d="M14.9596 19.5004V17.0418L14.7056 16.8818L14.7064 19.3396L14.9596 19.5004Z" fill="#AFAFAF"/>
<path fill-rule="evenodd" clip-rule="evenodd" d="M15.6662 17.1885L15.1082 17.5443V19.0016L15.667 18.6453L15.6662 17.1885Z" fill="#E3E3E3"/>
<path fill-rule="evenodd" clip-rule="evenodd" d="M15.6662 17.1883L15.1082 17.5442L14.9576 17.4491L15.512 17.0933L15.6662 17.1883Z" fill="white"/>
<path fill-rule="evenodd" clip-rule="evenodd" d="M15.1082 19.0011V17.5438L14.9576 17.4487V18.906L15.1082 19.0011Z" fill="#AFAFAF"/>
<path fill-rule="evenodd" clip-rule="evenodd" d="M15.5002 17.729L15.2745 17.8725V18.4607L15.5002 18.3168V17.729Z" fill="#4D4D4D"/>
<path fill-rule="evenodd" clip-rule="evenodd" d="M14.9134 17.0737L14.3614 17.4198V19.8785L14.9146 19.5315L14.9134 17.0737Z" fill="#E3E3E3"/>
<path fill-rule="evenodd" clip-rule="evenodd" d="M14.9134 17.074L14.3615 17.4201L14.1074 17.2606L14.6533 16.9136L14.9134 17.074Z" fill="white"/>
<path fill-rule="evenodd" clip-rule="evenodd" d="M14.3615 19.8784V17.4197L14.1074 17.2603L14.1078 19.7176L14.3615 19.8784Z" fill="#AFAFAF"/>
<path fill-rule="evenodd" clip-rule="evenodd" d="M15.068 17.5664L14.5096 17.9223L14.51 19.38L15.0688 19.0237L15.068 17.5664Z" fill="#E3E3E3"/>
<path fill-rule="evenodd" clip-rule="evenodd" d="M15.068 17.5663L14.51 17.9221L14.359 17.8275L14.9134 17.4712L15.068 17.5663Z" fill="white"/>
<path fill-rule="evenodd" clip-rule="evenodd" d="M14.51 19.38V17.9223L14.359 17.8276L14.3594 19.2844L14.51 19.38Z" fill="#AFAFAF"/>
<path fill-rule="evenodd" clip-rule="evenodd" d="M14.9016 18.1074L14.6764 18.2509V18.8387L14.902 18.6952L14.9016 18.1074Z" fill="#4D4D4D"/>
<path fill-rule="evenodd" clip-rule="evenodd" d="M14.3152 17.4521L13.7629 17.7982V20.2565L14.3164 19.9095L14.3152 17.4521Z" fill="#E3E3E3"/>
<path fill-rule="evenodd" clip-rule="evenodd" d="M14.3152 17.4524L13.7629 17.7985L13.5092 17.6385L14.0547 17.292L14.3152 17.4524Z" fill="white"/>
<path fill-rule="evenodd" clip-rule="evenodd" d="M13.7633 20.2573V17.7986L13.5092 17.6387L13.5096 20.096L13.7633 20.2573Z" fill="#AFAFAF"/>
<path fill-rule="evenodd" clip-rule="evenodd" d="M14.4694 17.9443L13.9114 18.2998V19.7575L14.4702 19.4011L14.4694 17.9443Z" fill="#E3E3E3"/>
<path fill-rule="evenodd" clip-rule="evenodd" d="M14.4694 17.9442L13.9114 18.2996L13.7608 18.205L14.3152 17.8491L14.4694 17.9442Z" fill="white"/>
<path fill-rule="evenodd" clip-rule="evenodd" d="M13.9114 19.7579V18.3002L13.7608 18.2056L13.7612 19.6628L13.9114 19.7579Z" fill="#AFAFAF"/>
<path fill-rule="evenodd" clip-rule="evenodd" d="M14.3034 18.4854L14.0782 18.6289V19.2171L14.3034 19.0731V18.4854Z" fill="#4D4D4D"/>
<path fill-rule="evenodd" clip-rule="evenodd" d="M13.7166 17.8301L13.1647 18.1762V20.6348L13.7182 20.2874L13.7166 17.8301Z" fill="#E3E3E3"/>
<path fill-rule="evenodd" clip-rule="evenodd" d="M13.7166 17.8303L13.1647 18.1764L12.9106 18.0169L13.4565 17.6699L13.7166 17.8303Z" fill="white"/>
<path fill-rule="evenodd" clip-rule="evenodd" d="M13.1647 20.6353V18.1766L12.9106 18.0171L12.911 20.4744L13.1647 20.6353Z" fill="#AFAFAF"/>
<path fill-rule="evenodd" clip-rule="evenodd" d="M13.8712 18.3223L13.3132 18.6781V20.1358L13.872 19.7791L13.8712 18.3223Z" fill="#E3E3E3"/>
<path fill-rule="evenodd" clip-rule="evenodd" d="M13.8712 18.3221L13.3132 18.678L13.1623 18.5834L13.7166 18.2271L13.8712 18.3221Z" fill="white"/>
<path fill-rule="evenodd" clip-rule="evenodd" d="M13.3132 20.1363V18.6786L13.1623 18.584L13.1626 20.0408L13.3132 20.1363Z" fill="#AFAFAF"/>
<path fill-rule="evenodd" clip-rule="evenodd" d="M13.7048 18.8633L13.4796 19.0068V19.5946L13.7052 19.4511L13.7048 18.8633Z" fill="#4D4D4D"/>
<path fill-rule="evenodd" clip-rule="evenodd" d="M13.1184 18.2095L12.5665 18.5556V21.0138L13.1196 20.6668L13.1184 18.2095Z" fill="#E3E3E3"/>
<path fill-rule="evenodd" clip-rule="evenodd" d="M13.1184 18.2092L12.5665 18.5553L12.3124 18.3954L12.8579 18.0488L13.1184 18.2092Z" fill="white"/>
<path fill-rule="evenodd" clip-rule="evenodd" d="M12.5665 21.0137V18.5555L12.3124 18.3955L12.3128 20.8528L12.5665 21.0137Z" fill="#AFAFAF"/>
<path fill-rule="evenodd" clip-rule="evenodd" d="M13.273 18.7017L12.7146 19.0571V20.5148L13.2734 20.1585L13.273 18.7017Z" fill="#E3E3E3"/>
<path fill-rule="evenodd" clip-rule="evenodd" d="M13.273 18.7015L12.7146 19.0569L12.5641 18.9623L13.1184 18.606L13.273 18.7015Z" fill="white"/>
<path fill-rule="evenodd" clip-rule="evenodd" d="M12.7146 20.5152V19.0575L12.5641 18.9629L12.5645 20.4197L12.7146 20.5152Z" fill="#AFAFAF"/>
<path fill-rule="evenodd" clip-rule="evenodd" d="M13.1066 19.2422L12.8814 19.3857V19.9739L13.1071 19.83L13.1066 19.2422Z" fill="#4D4D4D"/>
<path fill-rule="evenodd" clip-rule="evenodd" d="M16.7428 12.9438L16.1909 13.2899V15.7482L16.744 15.4012L16.7428 12.9438Z" fill="#E3E3E3"/>
<path fill-rule="evenodd" clip-rule="evenodd" d="M16.7428 12.9436L16.1909 13.2897L15.9368 13.1297L16.4827 12.7832L16.7428 12.9436Z" fill="white"/>
<path fill-rule="evenodd" clip-rule="evenodd" d="M16.1909 15.7485V13.2898L15.9369 13.1299L15.9377 15.5877L16.1909 15.7485Z" fill="#AFAFAF"/>
<path fill-rule="evenodd" clip-rule="evenodd" d="M16.8975 13.4355L16.3394 13.791V15.2487L16.8983 14.8924L16.8975 13.4355Z" fill="#E3E3E3"/>
<path fill-rule="evenodd" clip-rule="evenodd" d="M16.8974 13.4359L16.3394 13.7913L16.1889 13.6967L16.7428 13.3408L16.8974 13.4359Z" fill="white"/>
<path fill-rule="evenodd" clip-rule="evenodd" d="M16.3394 15.2491V13.7919L16.1889 13.6968V15.154L16.3394 15.2491Z" fill="#AFAFAF"/>
<path fill-rule="evenodd" clip-rule="evenodd" d="M16.731 13.9766L16.5058 14.1201V14.7083L16.7315 14.5643L16.731 13.9766Z" fill="#4D4D4D"/>
<path fill-rule="evenodd" clip-rule="evenodd" d="M16.1446 13.3218L15.5927 13.6679V16.1265L16.1459 15.7796L16.1446 13.3218Z" fill="#E3E3E3"/>
<path fill-rule="evenodd" clip-rule="evenodd" d="M16.1446 13.322L15.5927 13.6681L15.3387 13.5086L15.8841 13.1616L16.1446 13.322Z" fill="white"/>
<path fill-rule="evenodd" clip-rule="evenodd" d="M15.5927 16.1265V13.6678L15.3387 13.5083L15.3391 15.9656L15.5927 16.1265Z" fill="#AFAFAF"/>
<path fill-rule="evenodd" clip-rule="evenodd" d="M16.2993 13.814L15.7408 14.1698V15.6275L16.2997 15.2712L16.2993 13.814Z" fill="#E3E3E3"/>
<path fill-rule="evenodd" clip-rule="evenodd" d="M16.2993 13.8138L15.7408 14.1697L15.5903 14.0751L16.1446 13.7188L16.2993 13.8138Z" fill="white"/>
<path fill-rule="evenodd" clip-rule="evenodd" d="M15.7408 15.628V14.1703L15.5903 14.0757L15.5907 15.5325L15.7408 15.628Z" fill="#AFAFAF"/>
<path fill-rule="evenodd" clip-rule="evenodd" d="M16.1329 14.355L15.9076 14.4985V15.0863L16.1333 14.9428L16.1329 14.355Z" fill="#4D4D4D"/>
<path fill-rule="evenodd" clip-rule="evenodd" d="M15.5464 13.7002L14.9941 14.0463L14.9945 16.5045L15.5477 16.1575L15.5464 13.7002Z" fill="#E3E3E3"/>
<path fill-rule="evenodd" clip-rule="evenodd" d="M15.5464 13.7004L14.9945 14.0465L14.7401 13.8866L15.2859 13.54L15.5464 13.7004Z" fill="white"/>
<path fill-rule="evenodd" clip-rule="evenodd" d="M14.9945 16.5049V14.0467L14.7401 13.8867L14.7409 16.3441L14.9945 16.5049Z" fill="#AFAFAF"/>
<path fill-rule="evenodd" clip-rule="evenodd" d="M15.7006 14.1924L15.1426 14.5478V16.0055L15.7014 15.6492L15.7006 14.1924Z" fill="#E3E3E3"/>
<path fill-rule="evenodd" clip-rule="evenodd" d="M15.7006 14.1922L15.1426 14.5477L14.9921 14.453L15.5464 14.0972L15.7006 14.1922Z" fill="white"/>
<path fill-rule="evenodd" clip-rule="evenodd" d="M15.1426 16.0055V14.5478L14.9921 14.4531L14.9925 15.9099L15.1426 16.0055Z" fill="#AFAFAF"/>
<path fill-rule="evenodd" clip-rule="evenodd" d="M15.5346 14.7329L15.3094 14.8764V15.4646L15.5346 15.3207V14.7329Z" fill="#4D4D4D"/>
<path fill-rule="evenodd" clip-rule="evenodd" d="M14.9478 14.0791L14.3959 14.4252V16.8839L14.9491 16.5364L14.9478 14.0791Z" fill="#E3E3E3"/>
<path fill-rule="evenodd" clip-rule="evenodd" d="M14.9478 14.0788L14.3959 14.4249L14.1419 14.265L14.6873 13.9185L14.9478 14.0788Z" fill="white"/>
<path fill-rule="evenodd" clip-rule="evenodd" d="M14.3959 16.8837V14.4251L14.1419 14.2651L14.1423 16.7229L14.3959 16.8837Z" fill="#AFAFAF"/>
<path fill-rule="evenodd" clip-rule="evenodd" d="M15.1024 14.5713L14.544 14.9272V16.3849L15.1028 16.0281L15.1024 14.5713Z" fill="#E3E3E3"/>
<path fill-rule="evenodd" clip-rule="evenodd" d="M15.1025 14.5711L14.544 14.927L14.3935 14.8319L14.9478 14.4761L15.1025 14.5711Z" fill="white"/>
<path fill-rule="evenodd" clip-rule="evenodd" d="M14.544 16.3848V14.9271L14.3935 14.832L14.3939 16.2893L14.544 16.3848Z" fill="#AFAFAF"/>
<path fill-rule="evenodd" clip-rule="evenodd" d="M14.9361 15.1118L14.7108 15.2553V15.8436L14.9365 15.7L14.9361 15.1118Z" fill="#4D4D4D"/>
<path fill-rule="evenodd" clip-rule="evenodd" d="M14.3497 14.457L13.7974 14.8031L13.7978 17.2614L14.3509 16.9144L14.3497 14.457Z" fill="#E3E3E3"/>
<path fill-rule="evenodd" clip-rule="evenodd" d="M14.3497 14.4573L13.7977 14.8029L13.5433 14.6434L14.0891 14.2969L14.3497 14.4573Z" fill="white"/>
<path fill-rule="evenodd" clip-rule="evenodd" d="M13.7978 17.2607V14.8021L13.5433 14.6426L13.5441 17.0999L13.7978 17.2607Z" fill="#AFAFAF"/>
<path fill-rule="evenodd" clip-rule="evenodd" d="M14.5039 14.9492L13.9459 15.3046V16.7623L14.5047 16.406L14.5039 14.9492Z" fill="#E3E3E3"/>
<path fill-rule="evenodd" clip-rule="evenodd" d="M14.5039 14.949L13.9459 15.3045L13.7953 15.2098L14.3497 14.8535L14.5039 14.949Z" fill="white"/>
<path fill-rule="evenodd" clip-rule="evenodd" d="M13.9459 16.7623V15.3046L13.7953 15.21L13.7957 16.6668L13.9459 16.7623Z" fill="#AFAFAF"/>
<path fill-rule="evenodd" clip-rule="evenodd" d="M14.3379 15.4897L14.1127 15.6333V16.2215L14.3383 16.0775L14.3379 15.4897Z" fill="#4D4D4D"/>
<path fill-rule="evenodd" clip-rule="evenodd" d="M13.751 14.835L13.1991 15.1811V17.6393L13.7527 17.2923L13.751 14.835Z" fill="#E3E3E3"/>
<path fill-rule="evenodd" clip-rule="evenodd" d="M13.7511 14.8347L13.1991 15.1808L12.9451 15.0209L13.4909 14.6743L13.7511 14.8347Z" fill="white"/>
<path fill-rule="evenodd" clip-rule="evenodd" d="M13.1991 17.6391V15.1805L12.9451 15.0205L12.9459 17.4783L13.1991 17.6391Z" fill="#AFAFAF"/>
<path fill-rule="evenodd" clip-rule="evenodd" d="M13.9057 15.3271L13.3477 15.683V17.1403L13.9065 16.784L13.9057 15.3271Z" fill="#E3E3E3"/>
<path fill-rule="evenodd" clip-rule="evenodd" d="M13.9057 15.327L13.3476 15.6829L13.1971 15.5878L13.7514 15.2319L13.9057 15.327Z" fill="white"/>
<path fill-rule="evenodd" clip-rule="evenodd" d="M13.3477 17.1402V15.683L13.1967 15.5879L13.1971 17.0451L13.3477 17.1402Z" fill="#AFAFAF"/>
<path fill-rule="evenodd" clip-rule="evenodd" d="M13.7393 15.8677L13.514 16.0112V16.5994L13.7397 16.4555L13.7393 15.8677Z" fill="#4D4D4D"/>
<path fill-rule="evenodd" clip-rule="evenodd" d="M13.1529 15.2129L12.6009 15.559V18.0177L13.1541 17.6707L13.1529 15.2129Z" fill="#E3E3E3"/>
<path fill-rule="evenodd" clip-rule="evenodd" d="M13.1529 15.2126L12.601 15.5587L12.3469 15.3992L12.8923 15.0522L13.1529 15.2126Z" fill="white"/>
<path fill-rule="evenodd" clip-rule="evenodd" d="M12.6009 18.0176V15.5589L12.3469 15.3994L12.3473 17.8567L12.6009 18.0176Z" fill="#AFAFAF"/>
<path fill-rule="evenodd" clip-rule="evenodd" d="M13.3075 15.7056L12.749 16.0614V17.5191L13.3083 17.1628L13.3075 15.7056Z" fill="#E3E3E3"/>
<path fill-rule="evenodd" clip-rule="evenodd" d="M13.3075 15.7054L12.7491 16.0613L12.5985 15.9667L13.1529 15.6104L13.3075 15.7054Z" fill="white"/>
<path fill-rule="evenodd" clip-rule="evenodd" d="M12.7491 17.5186V16.0609L12.5985 15.9663L12.5989 17.4231L12.7491 17.5186Z" fill="#AFAFAF"/>
<path fill-rule="evenodd" clip-rule="evenodd" d="M13.1411 16.2466L12.9158 16.3901V16.9779L13.1415 16.8344L13.1411 16.2466Z" fill="#4D4D4D"/>
<path fill-rule="evenodd" clip-rule="evenodd" d="M16.3508 17.7481C16.0456 17.6988 15.5493 17.4056 15.3793 17.2928C15.1605 17.1475 15.081 17.0289 14.8622 16.8836C15.0254 16.7729 15.0522 16.6405 15.4199 16.9347C15.7344 17.0373 16.9997 16.9898 16.9044 17.4558C16.7907 17.7091 16.7282 17.8401 16.3508 17.7481Z" fill="#7E7E7E"/>
<path fill-rule="evenodd" clip-rule="evenodd" d="M15.5396 16.222L14.9471 15.4645C14.8075 15.2859 14.6054 15.468 14.7239 15.663L15.2405 16.5183C15.3586 16.7138 15.6723 16.4063 15.5396 16.222Z" fill="#7E7E7E"/>
<path fill-rule="evenodd" clip-rule="evenodd" d="M17.4461 17.5218C17.5439 17.7035 17.1564 18.2317 16.895 18.0416C16.4644 17.8416 16.0558 17.4782 16.0046 17.4289C15.9158 17.344 15.4487 16.8189 15.2989 16.6256C15.096 16.3639 15.1617 16.0116 15.4178 16.0836C15.4312 15.9739 15.5371 15.8477 15.6706 15.8792C15.7542 15.7877 15.7916 15.6949 15.9523 15.682C16.0209 15.6291 15.9977 15.462 16.1929 15.5278C16.4851 15.5589 16.9425 16.2147 17.143 16.6105C17.2469 16.814 17.2006 17.0659 17.4461 17.5218Z" fill="#7E7E7E"/>
<path fill-rule="evenodd" clip-rule="evenodd" d="M21.1014 20.4336C20.58 19.4322 18.3637 18.0838 17.3784 16.9917C16.8792 16.9588 16.2782 17.4857 16.5647 17.8572C16.7997 18.2903 18.6085 20.8103 20.093 22.0423C20.7995 22.6839 20.7301 21.1764 21.1014 20.4336Z" fill="#DE7E32"/>
<path fill-rule="evenodd" clip-rule="evenodd" d="M13.6719 23.7527C13.8501 23.9047 14.3586 23.0752 14.0904 22.8326C13.5461 22.5452 13.5762 22.1484 13.3209 21.9907C13.2101 21.9169 12.1959 21.5597 11.9293 21.6033C11.7487 21.5593 11.7195 22.9388 11.8409 23.1103C12.1164 23.2707 12.8461 23.4635 13.0202 23.4511C13.4349 23.4226 13.2673 23.408 13.6719 23.7527Z" fill="#7E7E7E"/>
<path fill-rule="evenodd" clip-rule="evenodd" d="M11.8599 22.7768L11.1404 22.7271C10.9578 22.7142 10.9655 22.9488 11.1457 22.9821L11.8404 23.1105C12.0145 23.1425 12.0503 22.7902 11.8599 22.7768Z" fill="#7E7E7E"/>
<path fill-rule="evenodd" clip-rule="evenodd" d="M11.9504 22.5728C11.9537 22.4746 11.8831 22.3911 11.7934 22.3875L10.944 22.3542C10.7289 22.3458 10.7224 22.6123 10.9363 22.639L11.7816 22.7447C11.8705 22.7558 11.9472 22.671 11.9504 22.5728Z" fill="#7E7E7E"/>
<path fill-rule="evenodd" clip-rule="evenodd" d="M11.9926 22.2019C11.9918 22.1032 11.9184 22.0144 11.8202 22.0161L10.8867 22.0352C10.6518 22.0397 10.6445 22.3271 10.879 22.3365L11.808 22.3733C11.9062 22.3769 11.9894 22.3 11.9926 22.2019Z" fill="#7E7E7E"/>
<path fill-rule="evenodd" clip-rule="evenodd" d="M11.8782 21.5938L11.0219 21.6125C10.8068 21.6169 10.8023 21.9088 11.0174 21.9172L11.8664 21.951C12.0872 21.9594 12.0872 21.5893 11.8782 21.5938Z" fill="#7E7E7E"/>
<path fill-rule="evenodd" clip-rule="evenodd" d="M13.5388 22.4975C13.5575 22.3429 13.463 22.1083 13.2945 21.9164C13.1265 21.7245 12.9114 21.5396 12.836 21.4672C12.6412 21.2802 12.6314 21.3375 12.4366 21.1509C12.3327 21.2664 12.2329 21.4583 12.6046 21.7569C12.6501 21.8537 12.6107 21.9248 12.909 22.1176C12.851 22.8525 13.5125 22.7996 13.5388 22.4975Z" fill="#7E7E7E"/>
<path fill-rule="evenodd" clip-rule="evenodd" d="M17.4478 26.5329C16.5603 26.6973 14.01 24.399 13.2499 23.4101C13.1505 22.8738 13.4841 22.2225 13.8595 22.4815C14.284 22.6761 17.0014 24.0396 18.1365 24.7491C18.815 25.4258 18.0679 26.0273 17.4478 26.5329Z" fill="#DE7E32"/>
</svg>
