<svg width="32" height="56" viewBox="0 0 32 56" fill="none" xmlns="http://www.w3.org/2000/svg">
<path opacity="0.4" fill-rule="evenodd" clip-rule="evenodd" d="M16.5431 38.729C23.378 38.729 28.9208 41.9463 28.9208 45.914C28.9208 49.8818 23.3777 53.0994 16.5431 53.0994C9.70816 53.0994 4.16504 49.8818 4.16504 45.914C4.16504 41.9463 9.70816 38.729 16.5431 38.729Z" fill="#D2D2E1"/>
<path fill-rule="evenodd" clip-rule="evenodd" d="M1.00068 53.3881V17.7422L0.394989 17.3623L0.396301 53.0053L1.00068 53.3881Z" fill="#AFAFAF"/>
<path fill-rule="evenodd" clip-rule="evenodd" d="M28.2248 0.569336L14.6449 9.13552V11.114L21.0587 7.06038V28.3873L14.6449 32.4423V44.7807L28.2281 36.2124L28.2248 0.569336ZM14.6453 9.13552L1.00067 17.7427V53.3882L14.6453 44.7811V32.4427L8.23152 36.4977V15.168L14.6453 11.1144V9.13552Z" fill="#92452E"/>
<path fill-rule="evenodd" clip-rule="evenodd" d="M28.2248 0.569177L1.00035 17.7422L0.394989 17.3623L27.6014 0.1875L28.2248 0.569177Z" fill="#E3E3E3"/>
<path fill-rule="evenodd" clip-rule="evenodd" d="M21.059 7.06055L20.4481 7.44654V28.0014L8.2312 35.7252V36.4975L21.059 28.3874V7.06055Z" fill="#E3E3E3"/>
<path fill-rule="evenodd" clip-rule="evenodd" d="M21.059 7.06055L20.448 7.44654V27.9896L21.059 28.3687V7.06055Z" fill="#AFAFAF"/>
<path fill-rule="evenodd" clip-rule="evenodd" d="M23.5431 29.6524C23.6344 29.4842 22.989 29.1288 22.8416 29.3836C22.6893 29.8803 22.4013 29.8936 22.313 30.1286C22.271 30.2314 22.4237 31.3754 22.4814 31.6C22.5222 31.5371 22.6138 31.5144 22.707 31.4688C22.7923 31.3301 22.9417 31.394 23.0175 31.3606C23.1456 31.086 23.2267 31.2643 23.2779 31.2086C23.42 30.883 23.4167 30.3917 23.3911 30.2429C23.3294 29.8889 23.3357 30.0341 23.5431 29.6524Z" fill="#D99E72"/>
<path fill-rule="evenodd" clip-rule="evenodd" d="M8.29783 25.6755C8.05424 24.9244 10.0876 22.1775 10.7015 21.3764C11.0781 21.2151 11.4697 21.5083 11.3338 21.8721C11.2514 22.2695 10.4973 24.6904 9.80171 25.9843C9.4035 26.6711 8.75218 26.146 8.29783 25.6755Z" fill="#CB6117"/>
<path fill-rule="evenodd" clip-rule="evenodd" d="M11.1372 22.1181C11.0295 22.2744 10.4845 21.7558 10.6438 21.5096C11.0055 21.1668 10.9074 20.8703 11.0728 20.6916C11.1438 20.6101 11.8515 20.1073 12.0636 20.0803C12.1933 20.0059 12.473 20.9558 12.4129 21.1139C12.253 21.3648 11.7143 21.7095 11.5791 21.7396C11.256 21.8119 11.3811 21.763 11.1372 22.1181Z" fill="#D99E72"/>
<path fill-rule="evenodd" clip-rule="evenodd" d="M12.3886 20.8772L12.9454 20.7388C13.0866 20.7036 13.1079 20.888 12.9707 20.9386L12.4421 21.1352C12.3102 21.1845 12.2415 20.9138 12.3886 20.8772Z" fill="#D99E72"/>
<path fill-rule="evenodd" clip-rule="evenodd" d="M12.2228 20.8034C12.2018 20.729 12.2402 20.6492 12.3079 20.6262L12.9507 20.4084C13.1135 20.353 13.169 20.5557 13.0104 20.6244L12.3844 20.8964C12.3184 20.9252 12.2438 20.8778 12.2228 20.8034Z" fill="#D99E72"/>
<path fill-rule="evenodd" clip-rule="evenodd" d="M12.128 20.5524C12.1099 20.4769 12.1493 20.3921 12.2248 20.3712L12.9418 20.1743C13.1224 20.1247 13.1824 20.3425 13.0045 20.4029L12.3013 20.6411C12.2271 20.667 12.149 20.6268 12.128 20.5524Z" fill="#D99E72"/>
<path fill-rule="evenodd" clip-rule="evenodd" d="M12.1004 20.0612L12.7586 19.8815C12.9237 19.8362 12.9825 20.0587 12.8197 20.1137L12.1769 20.3315C12.0098 20.3879 11.9402 20.1054 12.1004 20.0612Z" fill="#D99E72"/>
<path fill-rule="evenodd" clip-rule="evenodd" d="M5.32716 31.276C4.92829 30.1385 4.90236 29.116 6.34879 27.3064C6.58483 27.011 7.12879 26.0198 8.69046 25.347C9.22097 25.3086 9.91103 26.1215 9.34014 26.8489C8.62414 27.7614 6.16757 33.6738 5.32716 31.276Z" fill="#CB6117"/>
<path fill-rule="evenodd" clip-rule="evenodd" d="M24.9495 18.8662C26.718 18.4138 25.5316 25.0809 25.2949 25.6664C24.85 26.4994 23.8251 26.0894 23.8412 25.1298C23.8885 23.9776 23.1265 18.955 24.9495 18.8662Z" fill="#CB6117"/>
<path fill-rule="evenodd" clip-rule="evenodd" d="M25.2893 25.4763C25.4649 26.25 24.0799 29.2517 23.381 29.9259C22.992 30.0463 22.469 29.8785 22.6367 29.531C22.7539 29.1443 23.3875 26.1753 23.8412 25.1294C24.1787 24.7625 24.8789 24.9595 25.2893 25.4763Z" fill="#DE7E32"/>
<path fill-rule="evenodd" clip-rule="evenodd" d="M24.1685 10.1323L23.594 10.4953V28.8259L18.0992 32.2998V12.877H17.5247V32.6632L12.7107 35.7069V36.4257L24.1685 29.1817V10.1323Z" fill="#EEF1F4"/>
<path fill-rule="evenodd" clip-rule="evenodd" d="M11.3814 16.2644L12.0413 16.6737L24.8537 8.56107L24.2106 8.14453L11.3814 16.2644Z" fill="#EEF1F4"/>
<path fill-rule="evenodd" clip-rule="evenodd" d="M21.4746 10.6961L15.4033 14.5333L12.0258 16.6678V37.9975L15.4033 35.8624L21.4746 32.0237L24.8537 29.8874V8.56055L21.4746 10.6961ZM18.0955 33.0214L15.4029 34.7238L12.7103 36.4263V17.374L15.4029 15.6723L18.0955 13.9705V33.0214ZM24.1685 29.1819L21.4746 30.8851L18.7807 32.5883V13.5375L21.4746 11.835L24.1685 10.1325V29.1819Z" fill="#C7CAD1"/>
<path fill-rule="evenodd" clip-rule="evenodd" d="M11.3811 16.2642L12.0259 16.6678V37.9975L11.3811 37.5939V16.2642Z" fill="#A4AAB2"/>
<path fill-rule="evenodd" clip-rule="evenodd" d="M26.3178 40.6641C26.3178 40.6641 26.069 41.7599 26.5555 41.522C26.7623 41.421 26.7436 41.9274 26.7167 42.0945C26.6806 42.3198 26.393 42.4999 26.1008 42.6483C25.7584 42.782 25.3628 43.209 25.2387 43.3075C24.8977 43.5777 24.1475 43.558 23.7966 43.4214C23.5921 43.342 23.4604 43.2025 23.4982 43.0268C23.5228 42.966 23.5067 42.9423 23.5875 42.8758C23.6695 42.8083 24.2105 42.3536 24.4371 42.2189C25.0165 41.8738 25.2502 41.1888 25.3005 41.0321C25.3517 40.8758 25.5181 40.3985 25.5181 40.3985C25.5181 40.3985 25.7804 40.3015 26.3178 40.6641Z" fill="#929292"/>
<path fill-rule="evenodd" clip-rule="evenodd" d="M26.4347 40.523C26.3805 41.0348 26.781 40.9424 26.6786 41.8427C26.6409 42.1755 26.0641 42.3649 25.8369 42.5051C25.5145 42.7042 25.4548 42.853 25.312 43.0381C25.1807 43.2088 24.988 43.2857 24.7378 43.3231C24.1557 43.4097 23.47 43.3173 23.5448 42.7682C23.5737 42.5565 24.3307 42.1946 24.5917 42.0253C25.2059 41.6501 25.2115 40.7796 25.2614 40.6233C25.3126 40.4666 25.5181 40.3998 25.5181 40.3998C25.5181 40.3998 25.8973 40.1604 26.4347 40.523Z" fill="#3E3E3D"/>
<path fill-rule="evenodd" clip-rule="evenodd" d="M30.9729 43.1075C30.9729 43.1075 30.8469 44.2281 31.3035 43.9276C31.4975 43.7997 31.535 44.3054 31.5271 44.4746C31.5163 44.7032 31.2507 44.9199 30.9772 45.1061C30.6522 45.284 30.3069 45.7606 30.1942 45.8748C29.8857 46.1882 29.1388 46.268 28.7754 46.1789C28.5636 46.1271 28.4176 46.0064 28.4356 45.8267C28.4533 45.7631 28.4346 45.7419 28.5075 45.665C28.5814 45.587 29.0682 45.0644 29.2783 44.9002C29.8154 44.4811 29.9717 43.7699 30.0042 43.6081C30.038 43.4461 30.1503 42.9505 30.1503 42.9505C30.1503 42.9505 30.3991 42.8186 30.9729 43.1075Z" fill="#929292"/>
<path fill-rule="evenodd" clip-rule="evenodd" d="M31.0731 42.9515C31.076 43.4668 31.4631 43.3216 31.4611 44.2291C31.4604 44.5644 30.9089 44.8289 30.6988 44.9982C30.4007 45.2386 30.3577 45.3943 30.2369 45.597C30.1253 45.7839 29.9428 45.8859 29.6985 45.956C29.1303 46.1192 28.4392 46.1184 28.453 45.5632C28.4583 45.349 29.1697 44.8897 29.41 44.687C30.0406 44.2248 29.8164 43.35 29.8489 43.1879C29.8827 43.0258 30.1496 42.9504 30.1496 42.9504C30.1496 42.9504 30.4996 42.6625 31.0731 42.9515Z" fill="#3E3E3D"/>
<path fill-rule="evenodd" clip-rule="evenodd" d="M29.3587 29.6283C28.7816 30.9854 26.9997 35.8017 27.1763 36.8741C26.5877 37.2655 25.4127 37.6741 25.4019 36.7472C25.3609 33.6065 25.4318 30.3029 26.0096 27.4292C26.0096 27.4292 27.7534 27.6359 29.0689 28.1106C29.0442 28.4086 29.4073 29.5141 29.3587 29.6283Z" fill="#314A8D"/>
<path fill-rule="evenodd" clip-rule="evenodd" d="M27.1339 35.911C26.5844 33.9713 25.9147 34.8393 25.393 35.7712C25.4193 37.2655 25.3733 40.4041 25.1114 41.3267C25.1127 41.9531 26.7009 42.0994 26.7328 41.8367C27.0371 39.1337 27.3188 38.3574 27.1339 35.911Z" fill="#314A8D"/>
<path fill-rule="evenodd" clip-rule="evenodd" d="M30.3859 38.0711C30.5721 39.748 28.9536 40.1376 28.4602 38.7428C27.7272 36.6701 27.1556 31.2544 27.0256 28.3893C28.7334 28.0896 29.882 28.0547 30.3955 27.728C30.791 30.123 29.9542 35.3052 30.3859 38.0711Z" fill="#4165BD"/>
<path fill-rule="evenodd" clip-rule="evenodd" d="M30.0409 37.4116C28.9133 35.7994 28.6556 37.6711 28.4602 38.7428C29.0022 40.0992 29.8236 43.0221 29.8256 44.0162C30.3187 44.5999 31.4237 44.3828 31.4499 43.976C31.2096 42.0061 31.449 40.1409 30.0409 37.4116Z" fill="#4165BD"/>
<path fill-rule="evenodd" clip-rule="evenodd" d="M27.1579 19.1979C27.2751 19.194 28.7944 19.5868 29.5012 20.0317C29.9927 20.4066 29.7172 21.6235 29.7448 21.7733C29.8374 22.2592 30.0199 24.5899 30.0721 25.2685C30.1246 25.9466 30.5458 27.2473 30.1085 27.6595C28.6345 27.6617 26.2719 27.9395 25.9012 27.004C25.8622 25.5987 25.2076 25.0298 24.637 22.7811C24.4998 22.2402 23.7431 20.4554 24.3278 19.5332C24.4765 19.2975 24.8343 19.075 25.0687 19.0258C25.9032 18.8497 27.0121 19.2033 27.1579 19.1979Z" fill="#CB6117"/>
<path fill-rule="evenodd" clip-rule="evenodd" d="M25.9173 19.3661C25.0454 19.3121 24.6603 20.9025 25.418 23.6116C25.1721 23.7934 25.1951 23.6626 24.852 23.659C24.2362 21.4146 23.9437 19.8732 25.0287 19.2227C25.5198 19.2776 25.4446 19.1475 25.9173 19.3661Z" fill="#4165BD"/>
<path fill-rule="evenodd" clip-rule="evenodd" d="M30.5074 27.6675C28.8348 28.589 26.2702 28.92 25.9902 27.5256C26.0004 27.3671 25.8829 26.9793 25.893 26.8208C26.8877 27.6284 29.3217 27.9356 30.429 27.2359C30.4552 27.3797 30.4812 27.5238 30.5074 27.6675Z" fill="#314A8D"/>
<path fill-rule="evenodd" clip-rule="evenodd" d="M29.0052 20.167C30.5288 19.0845 31.6453 25.9026 31.6039 26.5413C31.4437 27.4901 30.3965 27.2532 30.1141 26.3447C29.4891 25.3901 27.3178 20.9275 29.0052 20.167Z" fill="#DE7E32"/>
<path fill-rule="evenodd" clip-rule="evenodd" d="M29.4293 19.9878C28.6286 19.9148 27.9343 21.03 27.9694 23.9321C27.6947 24.1219 27.3237 24.1115 27.0043 24.1014C27.0561 22.0582 27.478 19.6773 28.5262 19.5874C28.7229 19.6241 29.0423 19.7459 29.4293 19.9878Z" fill="#4165BD"/>
<path fill-rule="evenodd" clip-rule="evenodd" d="M29.4109 27.5985C28.3732 26.6813 28.1415 25.0321 28.0006 22.746C26.655 23.2344 25.4272 23.0162 24.4331 21.9409C24.7969 23.4924 25.0759 24.829 25.8119 26.7212C26.329 27.4084 27.3411 28.2616 29.4109 27.5985Z" fill="#314A8D"/>
<path fill-rule="evenodd" clip-rule="evenodd" d="M31.2789 27.2367C30.792 27.8293 27.257 27.9602 26.3552 27.7046C26.046 27.4193 26.086 26.519 26.4429 26.4762C26.8014 26.3655 29.712 25.8225 30.7569 25.6475C31.4982 25.7024 31.4394 26.5747 31.2789 27.2367Z" fill="#DE7E32"/>
<path fill-rule="evenodd" clip-rule="evenodd" d="M27.1986 23.6577C26.4337 23.7228 25.7177 23.6006 25.0605 23.252L25.2253 24.0804C25.9068 24.4768 26.5851 24.5652 27.351 24.4994L27.1986 23.6577Z" fill="#4165BD"/>
<path fill-rule="evenodd" clip-rule="evenodd" d="M26.9954 18.1104C27.0404 18.5373 27.0985 19.1156 27.3342 19.4584C27.3693 19.7912 27.1248 20.0946 26.761 20.3203C25.9767 20.8069 25.3684 20.4094 25.4899 19.8779C25.4994 19.6834 25.7249 19.4789 25.766 19.2841C25.8103 19.0678 26.1819 19.0556 26.1589 18.8378L26.9954 18.1104Z" fill="#D99E72"/>
<path fill-rule="evenodd" clip-rule="evenodd" d="M24.5316 16.6119C24.5546 16.8631 24.4939 17.1072 24.4617 17.3562C24.4062 17.5625 24.5595 17.6495 24.5733 17.8356C24.5786 17.9086 24.504 18.0118 24.504 18.1135C24.5037 18.4017 24.5878 18.8488 24.6807 19.119C24.7322 19.321 24.7791 19.6193 25.0897 19.8019C25.5595 20.0923 25.9977 19.573 26.4363 19.3631C26.8713 19.1557 26.6323 18.5623 26.7439 18.1451C27.2702 16.1666 24.8865 15.2843 24.5316 16.6119Z" fill="#ECC19A"/>
<path fill-rule="evenodd" clip-rule="evenodd" d="M27.401 17.7061L27.3917 17.7468C27.3949 17.7333 27.3981 17.7195 27.401 17.7061Z" fill="#262424"/>
<path fill-rule="evenodd" clip-rule="evenodd" d="M26.1002 17.5886C26.2302 17.6446 26.2617 17.6569 26.3119 17.8322C26.3543 17.9807 26.4544 17.9836 26.4505 18.2923C26.4573 18.3386 27.0191 17.7974 27.0079 18.2028C26.9954 18.6524 27.1655 19.0944 27.2393 19.2878C27.6392 19.1408 27.4442 18.0321 27.4498 17.7496C27.5627 17.0818 27.3496 16.33 27.0578 16.0928C26.2374 16.2261 26.0647 16.2383 25.7844 16.7659C25.7394 17.0265 25.9327 17.5163 26.1002 17.5886Z" fill="#643F42"/>
<path fill-rule="evenodd" clip-rule="evenodd" d="M27.0424 18.0828C27 18.3635 26.8743 18.5734 26.7623 18.5525C26.6501 18.5324 26.6235 18.279 26.5828 18.0458C26.5 17.7105 26.7613 17.5081 26.9156 17.5405C27.0279 17.5642 27.0844 17.8039 27.0424 18.0828Z" fill="#ECC19A"/>
<path fill-rule="evenodd" clip-rule="evenodd" d="M25.0171 18.7471C25.2164 18.8053 25.3756 18.9598 25.5549 19.1794C25.7637 19.4353 25.9242 19.0152 26.09 18.6716C26.1924 18.4588 26.4481 18.5066 26.4442 18.1634L26.5824 18.0459C26.7114 18.5023 26.7791 18.8226 26.7758 19.0612C26.7603 20.0758 25.8027 20.8406 25.0175 20.3877L25.0171 20.3874V19.302C25.1557 19.3843 25.3851 19.4091 25.2555 19.2693C25.2046 19.2143 25.1255 19.1464 25.0171 19.1061V18.7471ZM24.6012 18.8732C24.6412 18.7834 24.6567 18.7068 24.8766 18.723C24.9262 18.7259 24.9725 18.7341 25.0171 18.7471V19.1061C24.9866 19.095 24.9538 19.0856 24.9183 19.0795C24.589 19.0227 24.7972 19.3573 24.9351 19.2269C24.9505 19.2545 24.9807 19.2801 25.0171 19.302V20.3874C24.7752 20.2472 24.5841 19.546 24.571 19.1295V19.0425C24.5736 18.9713 24.5835 18.9128 24.6012 18.8732Z" fill="#643F42"/>
<path fill-rule="evenodd" clip-rule="evenodd" d="M27.0575 16.0925C26.9665 15.5139 25.724 15.428 24.9114 15.86C24.5503 15.9732 24.3458 15.943 24.1222 15.7238C23.9332 16.4048 24.0372 16.9565 24.811 17.1251C24.9453 16.655 25.4988 16.9623 25.896 16.6967C26.2394 16.5127 26.7144 16.2765 27.0575 16.0925Z" fill="#643F42"/>
<path fill-rule="evenodd" clip-rule="evenodd" d="M26.4196 27.4628C26.5985 27.4675 26.5653 26.6775 26.2902 26.6613C25.8201 26.7587 25.6685 26.4906 25.438 26.5215C25.3356 26.5316 24.5362 26.8267 24.3852 26.992C24.2512 27.0574 24.7578 27.8869 24.9085 27.9336C25.1875 27.9523 25.7686 27.7039 25.8743 27.6066C26.1267 27.3747 26.0138 27.4517 26.4196 27.4628Z" fill="#ECC19A"/>
<path fill-rule="evenodd" clip-rule="evenodd" d="M24.7545 27.7663L24.3097 28.158C24.1967 28.2576 24.3156 28.3902 24.437 28.304L24.9058 27.9722C25.023 27.8896 24.872 27.6628 24.7545 27.7663Z" fill="#D99E72"/>
<path fill-rule="evenodd" clip-rule="evenodd" d="M24.8041 27.5776C24.764 27.5132 24.6833 27.4967 24.6245 27.5409L24.0694 27.9571C23.9289 28.0624 24.0392 28.2356 24.1869 28.1425L24.7706 27.7742C24.8323 27.7353 24.8444 27.6419 24.8041 27.5776Z" fill="#D99E72"/>
<path fill-rule="evenodd" clip-rule="evenodd" d="M24.6832 27.3405C24.6406 27.2784 24.5552 27.2593 24.4935 27.3114L23.9075 27.8045C23.7598 27.9285 23.8789 28.1154 24.0322 28.0004L24.6396 27.545C24.7039 27.4965 24.7236 27.4049 24.6832 27.3405Z" fill="#D99E72"/>
<path fill-rule="evenodd" clip-rule="evenodd" d="M24.3491 27.0121L23.8117 27.4653C23.6767 27.5789 23.7992 27.7672 23.94 27.6619L24.4952 27.2457C24.6393 27.1372 24.4804 26.9018 24.3491 27.0121Z" fill="#D99E72"/>
<path fill-rule="evenodd" clip-rule="evenodd" d="M25.7952 26.7317C25.7404 26.6235 25.5792 26.5229 25.3897 26.4873C25.2003 26.4517 24.984 26.4449 24.9049 26.4377C24.7004 26.4187 24.7191 26.4604 24.5142 26.442C24.4975 26.5693 24.5165 26.7429 24.8819 26.7414C24.9525 26.7795 24.958 26.8453 25.2309 26.8144C25.5099 27.3121 25.9084 26.9373 25.7952 26.7317Z" fill="#ECC19A"/>
<path fill-rule="evenodd" clip-rule="evenodd" d="M8.7151 52.1121C9.07293 52.3885 8.85528 53.2187 8.47775 53.3581C7.62125 53.6751 6.97616 54.069 6.41085 54.2699C6.21059 54.3411 5.73392 54.4065 5.53236 54C5.48213 53.8433 5.7963 53.2661 5.7963 53.2661C6.80348 53.3851 8.26961 51.8433 8.7151 52.1121Z" fill="#9B9B9A"/>
<path fill-rule="evenodd" clip-rule="evenodd" d="M7.54146 52.1785C7.98432 52.3011 8.3612 51.9604 8.50925 51.9863C8.62711 52.0053 8.79092 52.1387 8.82507 52.3403C8.88252 52.6777 8.71214 53.0167 8.43704 53.1669C8.14158 53.3283 7.80442 53.2542 7.30378 53.4749C7.02868 53.5964 6.35504 54.0258 6.10127 54.0298C5.84652 54.0341 5.63051 53.8523 5.60556 53.6452C5.62394 52.3942 6.69251 51.9439 7.54146 52.1785Z" fill="#3E3E3D"/>
<path fill-rule="evenodd" clip-rule="evenodd" d="M8.36844 46.9158C8.44132 46.6818 8.73776 45.7776 8.77847 45.4491C9.67272 41.6708 9.86214 40.4801 9.57915 38.1351C8.8625 37.8702 7.15246 38.6756 6.50705 37.9697C5.17617 39.4274 6.86193 44.6915 6.45978 46.5219C6.74966 47.0549 7.72959 47.5282 8.36844 46.9158Z" fill="#314A8D"/>
<path fill-rule="evenodd" clip-rule="evenodd" d="M5.65906 53.2149C6.27033 53.8431 6.9118 53.6368 7.28178 52.7455C7.29623 51.3262 7.96527 48.6038 8.41043 46.7792C8.67109 45.6525 7.01817 45.0641 6.44531 46.5222C5.73653 48.1431 5.72931 52.5575 5.65906 53.2149Z" fill="#314A8D"/>
<path fill-rule="evenodd" clip-rule="evenodd" d="M12.3088 53.5701C12.6667 53.8465 12.449 54.6767 12.0715 54.8161C11.215 55.1331 10.5699 55.527 10.0046 55.7279C9.80435 55.7991 9.32768 55.8645 9.12612 55.458C9.07589 55.3013 9.39038 54.7241 9.39038 54.7241C10.3976 54.8434 11.8634 53.3013 12.3088 53.5701Z" fill="#9B9B9A"/>
<path fill-rule="evenodd" clip-rule="evenodd" d="M11.1352 53.6366C11.5807 53.7487 11.955 53.4184 12.103 53.4443C12.2212 53.4634 12.3847 53.5967 12.4188 53.7983C12.4763 54.1358 12.3059 54.4747 12.0308 54.6249C11.7353 54.7859 11.3982 54.7123 10.8975 54.9329C10.6221 55.0544 9.9488 55.4839 9.69471 55.4878C9.43996 55.4922 9.22394 55.3103 9.19899 55.1033C9.2177 53.8522 10.1474 53.3879 11.1352 53.6366Z" fill="#3E3E3D"/>
<path fill-rule="evenodd" clip-rule="evenodd" d="M11.0755 47.86C11.1198 47.6203 11.2291 47.0761 11.2301 46.7473C11.6661 42.9111 11.5535 40.8209 10.9872 38.5412C10.2397 38.3666 8.09923 39.0681 7.36945 38.4492C5.85704 40.547 9.34771 45.0218 8.98232 47.7044C9.33622 48.1957 10.5115 48.5414 11.0755 47.86Z" fill="#4165BD"/>
<path fill-rule="evenodd" clip-rule="evenodd" d="M9.27548 54.4497C9.97473 55.0003 10.4997 54.6046 10.7295 53.6738C10.5279 52.2613 10.9507 49.4872 11.1129 47.6201C11.1989 46.469 9.32734 46.1858 8.9833 47.7042C8.79257 49.1213 9.24495 53.7877 9.27548 54.4497Z" fill="#4165BD"/>
<path fill-rule="evenodd" clip-rule="evenodd" d="M8.98298 29.4873C9.10478 29.5243 9.8687 29.7568 10.4064 30.5169C10.7994 31.0772 10.7511 32.4803 10.7354 32.6456C10.6865 33.1779 10.8043 35.7983 10.9261 38.1854C10.6953 38.975 7.28114 38.8154 6.24572 37.859C6.2362 36.7967 5.68304 34.5106 5.57963 33.9172C5.47688 33.322 4.99528 30.0673 5.70996 28.9795C5.87443 28.7286 6.43252 28.467 6.68694 28.4993C7.59531 28.6122 8.83197 29.4416 8.98298 29.4873Z" fill="#CB6117"/>
<path fill-rule="evenodd" clip-rule="evenodd" d="M9.86737 29.9522C9.10541 29.6733 7.64618 31.4304 7.05132 34.2589C6.74306 34.3717 6.66394 34.008 6.35568 33.9153C6.85927 31.5749 7.94525 29.3017 8.98296 29.4872C9.40087 29.668 9.54401 29.6169 9.86737 29.9522Z" fill="#4165BD"/>
<path fill-rule="evenodd" clip-rule="evenodd" d="M6.74504 28.5072C5.96503 28.4803 6.02051 29.584 6.02445 30.3161C6.03102 31.5211 6.34618 32.8775 6.70073 34.0664C6.43744 34.1792 6.36653 33.7788 6.0215 33.6861C5.60096 32.6284 5.56321 31.5168 5.44404 30.4767C5.31929 29.3913 5.65611 28.5004 6.37375 28.3796C6.50637 28.3577 6.74504 28.5072 6.74504 28.5072Z" fill="#4165BD"/>
<path fill-rule="evenodd" clip-rule="evenodd" d="M8.048 38.6988C7.56804 37.3917 7.03195 35.8643 7.05198 34.1586C6.69973 33.972 6.34715 33.7852 5.9949 33.5986C5.92005 34.6445 6.0077 36.4706 6.24538 37.8589C6.76998 38.5737 7.37994 38.8023 8.048 38.6988Z" fill="#314A8D"/>
<path fill-rule="evenodd" clip-rule="evenodd" d="M11.0062 38.6166C10.3388 39.2535 7.16228 39.8249 6.26672 38.4635C6.27722 38.305 6.2352 38.0179 6.24538 37.8594C7.26011 38.6666 9.7958 38.8851 10.9258 38.1857C10.9527 38.3291 10.9793 38.4729 11.0062 38.6166Z" fill="#314A8D"/>
<path fill-rule="evenodd" clip-rule="evenodd" d="M9.96421 30.1811C7.09334 30.4625 9.00365 36.3742 9.38315 37.3917C9.7052 38.0929 10.5548 37.2235 10.5643 36.2639C10.5256 34.3005 11.0357 30.0762 9.96421 30.1811Z" fill="#DE7E32"/>
<path fill-rule="evenodd" clip-rule="evenodd" d="M14.2878 35.3067C14.4467 35.2776 14.6292 35.2596 14.7306 35.2869C14.9204 35.3383 15.0445 35.3861 15.2454 35.3991C15.1952 35.5687 15.0674 35.6661 14.7073 35.6032C14.2231 35.6197 14.2431 35.8774 13.9431 35.6834C13.842 35.6179 13.6978 35.6057 13.8019 35.5202C14.0005 35.3617 14.0662 35.3473 14.2878 35.3067Z" fill="#D99E72"/>
<path fill-rule="evenodd" clip-rule="evenodd" d="M14.3067 36.8898C14.4551 36.9548 14.5041 36.9555 14.5434 36.9512C14.5943 36.9458 14.6728 36.912 14.6593 36.8517C14.8041 36.8344 14.9239 36.7377 14.9141 36.6615C15.0047 36.6533 15.1117 36.5767 15.1324 36.4502C15.2184 36.4495 15.3556 36.3388 15.2529 36.1383C14.8898 36.111 14.464 36.6191 14.3067 36.8898Z" fill="#D99E72"/>
<path fill-rule="evenodd" clip-rule="evenodd" d="M13.7326 35.5547C13.9132 35.3678 14.0786 35.3136 14.2503 35.3538C14.9095 35.4843 15.1265 35.9332 15.2184 36.0568C15.3038 36.1977 15.248 36.3102 15.0661 36.413C14.9545 36.607 14.9279 36.6042 14.7946 36.5952C14.8019 36.6868 14.6679 36.8137 14.5015 36.7652C14.4279 36.8892 14.3248 36.9176 14.1991 36.8467C13.8646 36.6308 13.7526 36.459 13.5869 36.248C13.2415 35.8074 13.4175 35.6776 13.7326 35.5547Z" fill="#ECC19A"/>
<path fill-rule="evenodd" clip-rule="evenodd" d="M9.92383 38.1013C10.5975 38.4032 12.9582 36.9997 13.7034 36.3456C13.8593 35.937 13.6883 35.3631 13.3531 35.5036C12.9884 35.5848 10.6362 36.199 9.63362 36.5667C8.99773 36.9872 9.53448 37.9266 9.92383 38.1013Z" fill="#DE7E32"/>
<path fill-rule="evenodd" clip-rule="evenodd" d="M9.98721 26.2059L9.79122 27.0731L9.06964 26.8564L9.29453 25.9644L9.98721 26.2059Z" fill="#C4C4C4"/>
<path d="M9.90284 26.2901C9.87624 26.5457 9.83094 26.7847 9.74525 26.9874L9.52563 26.9212V27.0653L9.80534 27.1494C9.89693 26.9108 9.99738 26.5557 10.0548 26.197C9.85785 26.0673 9.68747 25.9979 9.52563 25.9491V26.0979C9.63068 26.1295 9.74854 26.1809 9.90284 26.2901ZM9.5253 26.9209L9.14777 26.8077C9.21113 26.5561 9.27482 26.3045 9.33818 26.0526C9.39957 26.0662 9.45997 26.0784 9.5253 26.0979V25.9491C9.43206 25.9207 9.34147 25.8991 9.25053 25.8765C9.16419 26.2193 9.07752 26.5622 8.99118 26.9047L9.5253 27.065V26.9209Z" fill="#222221"/>
<path fill-rule="evenodd" clip-rule="evenodd" d="M9.52103 27.2633C9.70159 27.3841 9.7098 27.5753 9.70094 27.6777C9.6123 28.7394 8.99381 29.4725 8.74858 28.4148C8.64353 27.9616 8.36711 27.5641 8.77583 27.2694C9.0854 27.0466 9.48164 27.2619 9.52103 27.2633Z" fill="#4D4D4D"/>
<path fill-rule="evenodd" clip-rule="evenodd" d="M9.46357 25.1548C9.54334 25.3906 9.63888 25.6271 9.68713 25.8722C9.72062 26.0436 9.73637 26.0947 9.67531 26.2474C9.58208 26.4821 9.52627 26.5313 9.68549 26.7204C9.84077 26.9047 9.64117 27.5031 9.56698 27.7799C9.50822 27.998 9.4767 28.2535 9.29614 28.384C8.84704 28.7096 8.34378 28.5137 7.89239 28.3376C7.44526 28.1651 6.56907 26.9195 6.43118 26.5123C6.33139 25.6778 6.5277 24.9561 7.79915 24.4497C8.35068 24.2301 9.26364 24.564 9.46357 25.1548Z" fill="#ECC19A"/>
<path fill-rule="evenodd" clip-rule="evenodd" d="M8.90746 27.4793C8.90746 27.4793 8.9718 28.4864 8.74725 29.3967C8.03651 29.2167 7.15572 29.6979 6.50177 29.0337C6.62553 28.7635 6.98107 28.0019 6.88619 26.8583C6.85632 26.4986 8.85821 26.4522 8.90746 27.4793Z" fill="#D99E72"/>
<path fill-rule="evenodd" clip-rule="evenodd" d="M9.21672 26.372C9.18422 26.473 9.03879 26.6239 9.28041 26.8493C9.62609 27.1548 9.25907 27.9318 9.03977 27.5785C8.93538 27.4099 8.98921 26.777 8.91896 26.7231C8.7082 26.5607 8.48693 27.1354 8.25516 27.604C7.8924 28.3386 6.95284 28.022 6.88784 27.9684C6.54774 27.687 6.24999 27.3355 6.22766 26.7749C6.20173 26.1233 5.99754 25.4006 6.42201 24.8399C7.15344 23.8738 8.69967 23.5076 9.69076 24.7971C10.2016 25.4606 9.4045 25.7894 9.21672 26.372Z" fill="#4D4D4D"/>
<path fill-rule="evenodd" clip-rule="evenodd" d="M8.58051 26.7087L10.0194 26.1987L9.95931 26.4643L8.59266 26.8916L8.47283 27.4214L8.19838 27.5062L8.58051 26.7087Z" fill="#363636"/>
<path fill-rule="evenodd" clip-rule="evenodd" d="M8.47709 27.0187C8.51484 27.3155 8.70131 27.7306 8.81687 27.7058C9.11101 27.593 8.9692 27.378 8.9321 27.0815C8.89369 26.7854 8.96328 26.6043 8.84937 26.578C8.635 26.5306 8.43966 26.7211 8.47709 27.0187Z" fill="#ECC19A"/>
<path fill-rule="evenodd" clip-rule="evenodd" d="M11.0019 21.1287C10.9586 21.0144 10.9865 20.8139 11.0791 20.6291C11.1713 20.4444 11.3007 20.2543 11.3447 20.1821C11.4583 19.9948 11.4763 20.0369 11.5902 19.8496C11.6917 19.9143 11.7757 20.0318 11.5479 20.3445C11.5315 20.4286 11.5361 20.4998 11.4491 20.6327C11.6319 21.1812 11.0791 21.3533 11.0019 21.1287Z" fill="#ECC19A"/>
<path fill-rule="evenodd" clip-rule="evenodd" d="M23.0461 31.1321L23.1403 30.5157C23.1643 30.3594 23.3281 30.4075 23.3189 30.5657L23.2844 31.1755C23.2759 31.3279 23.0212 31.2949 23.0461 31.1321Z" fill="#ECC19A"/>
<path fill-rule="evenodd" clip-rule="evenodd" d="M22.9017 31.4156C22.8308 31.4087 22.7782 31.3397 22.7845 31.2621L22.8442 30.5282C22.8593 30.3424 23.0514 30.3633 23.0494 30.5498L23.0419 31.2873C23.0409 31.3649 22.9726 31.4224 22.9017 31.4156Z" fill="#ECC19A"/>
<path fill-rule="evenodd" clip-rule="evenodd" d="M22.6285 31.4912C22.558 31.4808 22.5012 31.4086 22.5123 31.3245L22.618 30.5234C22.6446 30.3217 22.8518 30.3437 22.835 30.5467L22.7697 31.3496C22.7628 31.4344 22.6994 31.4984 22.6285 31.4912Z" fill="#ECC19A"/>
<path fill-rule="evenodd" clip-rule="evenodd" d="M22.2533 31.4938L22.3511 30.7588C22.3754 30.5741 22.5855 30.5993 22.5704 30.7851L22.5107 31.5189C22.4953 31.7098 22.2297 31.6731 22.2533 31.4938Z" fill="#ECC19A"/>
</svg>
