<svg width="64" height="45" viewBox="0 0 64 45" fill="none" xmlns="http://www.w3.org/2000/svg">
<path d="M25.3461 42.8953V44.6622L63.4236 20.5951V18.8281L25.3461 42.8953Z" fill="#DEBE97"/>
<path d="M0.576401 27.2388V29.0057L25.3461 44.6621V42.8952L0.576401 27.2388Z" fill="#CAA58B"/>
<path d="M0.576401 27.239L25.3461 42.8954L63.4236 18.8282L38.6539 3.17236L0.576401 27.239Z" fill="#EFE1BC"/>
<path opacity="0.7" d="M34.6153 19.5132L20.1995 28.625L30.697 35.2605L45.1129 26.1487L34.6153 19.5132Z" fill="black"/>
<path opacity="0.5" d="M16.084 24.0554C16.8737 24.8836 17.6369 25.3767 18.6869 25.6355C19.7659 25.9015 20.8399 25.8017 21.92 25.969C22.9134 26.1229 23.833 26.6121 24.7821 26.9685C25.7313 27.3249 26.7864 27.5474 27.7263 27.1637C27.8349 27.1196 27.9429 27.0661 28.0295 26.9819C28.1579 26.8575 28.2287 26.6762 28.271 26.4944C28.4834 25.5719 28.0009 25.2724 27.2806 24.7408C26.5597 24.2093 25.5672 23.8401 25.4062 23.7843C25.2468 23.7291 23.9874 23.1926 23.8564 23.0782C23.5752 22.8334 23.2945 22.5891 23.0133 22.3442C22.7147 22.0843 22.0631 21.7262 20.7202 21.7212C19.3772 21.7162 18.744 22.3632 16.9669 22.2801C16.569 22.2617 16.0341 22.1691 15.7391 22.4915C15.195 23.0866 15.6357 23.5846 16.084 24.0554Z" fill="black"/>
<path d="M16.2781 21.0827C15.7315 21.8028 15.8033 22.2724 16.6236 22.9093C17.4438 23.5468 17.2818 24.6261 18.5875 24.9468C19.7644 25.2357 19.9539 24.0449 19.5448 23.5441C18.7063 22.5178 18.179 22.5329 18.6528 21.6505C19.1266 20.7682 16.9909 19.9611 16.7932 20.2946C16.5955 20.6282 16.4126 20.9054 16.2781 21.0827Z" fill="#623810"/>
<path d="M27.9724 25.0297C27.9138 24.6694 27.5113 24.3036 26.7044 23.8825C26.3854 23.7163 26.5561 22.8027 26.2937 22.4998L24.8606 22.3643C24.8214 22.3604 24.6492 22.6844 24.6227 22.7291C24.5427 22.8618 24.4719 23.0012 24.4153 23.1479C24.3465 23.3264 24.2987 23.5138 24.266 23.704C24.2294 23.9154 24.1662 24.1407 24.2717 24.3409C24.3853 24.5568 24.6104 24.5925 24.8071 24.6711C25.0124 24.7531 25.2249 24.8351 25.4144 24.955C25.6885 25.1279 25.7909 25.3934 26.4247 25.7559C27.0589 26.119 27.3234 26.0404 27.6647 25.8223C27.9225 25.6566 28.0305 25.39 27.9724 25.0297Z" fill="#623810"/>
<path d="M28.5878 14.978L25.8703 16.6948C26.1984 17.5202 24.9314 20.1176 24.2232 21.9766C23.7561 23.231 26.5072 24.1858 27.1155 22.5628C27.787 20.7713 28.6785 18.9547 28.7514 17.2564C28.787 16.441 28.7509 15.7399 28.5878 14.978Z" fill="#186FD9"/>
<path d="M24.4347 2.82959C23.8366 2.87756 23.4295 3.04098 22.9736 3.32097C22.6714 3.5067 22.3591 3.67625 22.0346 3.80899C21.4727 4.03878 21.0014 4.31877 20.6754 4.61214C19.5764 5.59991 18.6426 8.80525 19.2203 15.1217C19.4032 17.1223 21.5455 17.8652 21.923 15.9784C22.4773 13.2081 22.324 9.95978 22.9873 9.90122C23.6506 9.84266 24.3517 12.7329 25.8704 16.694C27.3896 17.6511 28.972 16.892 28.5879 14.9772C28.2037 13.0625 27.7783 11.1344 26.6127 8.05341C25.9697 6.35508 24.4347 2.82959 24.4347 2.82959Z" fill="#186FD9"/>
<path d="M19.2203 15.1221C17.5385 18.0792 16.811 19.1886 16.3622 20.4452C16.0102 21.4307 18.4963 22.82 19.0078 21.7815C19.5194 20.7436 21.9082 17.1762 21.9857 15.6486L19.2203 15.1221Z" fill="#186FD9"/>
<path d="M22.4014 16.6592V17.3619L32.899 23.9969V23.2947L22.4014 16.6592Z" fill="#8C4302"/>
<path d="M32.899 23.2945V23.9967L47.3148 14.8848V14.1826L32.899 23.2945Z" fill="#B05402"/>
<path d="M36.8172 7.54785L22.4014 16.6591L32.8989 23.2946L47.3148 14.1828L36.8172 7.54785Z" fill="#D46D17"/>
<path d="M44.5133 17.3145V26.5278L43.9131 26.1486L43.6905 17.8343L44.5133 17.3145Z" fill="#422B1D"/>
<path d="M32.899 23.9968V33.8683L33.4986 33.4896L33.7559 24.1139L44.5127 17.3145V26.5278L45.1129 26.1486L45.3697 16.7729V16.1147L32.899 23.9968Z" fill="#6B4E37"/>
<path d="M25.203 19.7915V29.0043L25.8026 28.625L26.0253 20.3113L25.203 19.7915Z" fill="#5C3F2D"/>
<path d="M24.3461 18.5913V19.25L24.6033 28.6251L25.203 29.0044V19.7916L32.0421 24.1141L32.2993 33.4897L32.899 33.8685V23.997L24.3461 18.5913Z" fill="#422B1D"/>
<path d="M24.3379 21.4845V21.6239L21.8619 20.0589V19.9194L24.3379 21.4845Z" fill="#422B1D"/>
<path d="M24.3379 21.4842V21.6236L26.8419 20.0407V19.9019L24.3379 21.4842Z" fill="#5C3F2D"/>
<path d="M39.0818 12.1655L27.0381 19.7782V19.917L39.0818 12.3044V12.1655Z" fill="#5C3F2D"/>
<path d="M27.0381 19.7779V19.9167L26.0339 19.2815V19.1426L27.0381 19.7779Z" fill="#422B1D"/>
<path d="M25.8373 19.267L25.9473 19.3361L26.0339 19.2815V19.1426L25.8373 19.267Z" fill="#5C3F2D"/>
<path d="M36.6058 10.6006L21.8619 19.9194L24.3379 21.4844L26.8419 19.9021L25.8373 19.2674L26.0339 19.143L27.0381 19.7783L39.0818 12.1656L36.6058 10.6006Z" fill="#6B4E37"/>
<path d="M26.0049 19.3726C25.1011 20.2834 24.9584 20.7396 24.2009 21.3972L24.3384 21.4842L25.5377 20.7262C25.77 20.3475 26.0446 19.9721 26.3681 19.6018L26.0049 19.3726Z" fill="#805A43"/>
<path d="M28.3647 17.7161C28.3464 17.6882 28.2873 17.6854 28.2068 17.7077C27.8879 17.7975 26.8526 18.5605 26.1582 19.2215L26.5093 19.4434C26.8878 19.0313 27.329 18.6264 27.8435 18.232C28.3204 17.8684 28.3963 17.7646 28.3647 17.7161Z" fill="#805A43"/>
<path d="M26.1832 18.2072C26.9173 17.7014 27.7468 17.1631 28.6256 16.5926C29.0597 16.3109 29.5034 16.0231 29.964 15.7208C30.2319 15.5451 30.506 15.3644 30.7873 15.177C32.845 13.8072 34.379 12.5076 35.5034 11.2968L36.6059 10.5996C35.4901 11.8969 33.2189 13.7274 30.9324 15.2495C30.6456 15.4403 30.3669 15.6243 30.0944 15.8028C29.6359 16.1034 29.1952 16.3895 28.7637 16.6701C27.8899 17.2373 27.0641 17.7727 26.3381 18.2736C24.9916 19.2017 24.1576 20.1019 23.4499 20.9229L23.2976 20.8269C24.02 20.0149 24.8581 19.1208 26.1832 18.2072Z" fill="#805A43"/>
<path d="M30.1718 15.9926C30.209 15.9698 30.2467 15.9469 30.2849 15.924C30.5534 15.7612 30.8336 15.5916 31.1276 15.412C34.4798 13.369 36.2125 11.6868 36.9752 10.8335L37.126 10.9289C36.3078 11.8341 34.5374 13.4917 31.2473 15.5013C30.9574 15.6781 30.6808 15.8459 30.4153 16.0066C30.373 16.0322 30.3313 16.0573 30.29 16.0824C27.3443 17.8678 25.8439 18.7769 23.8942 21.2036L23.7367 21.1043C25.686 18.7105 27.2179 17.7824 30.1718 15.9926Z" fill="#805A43"/>
<path d="M26.5826 19.7383C26.3732 19.9692 26.1786 20.2001 25.9855 20.4433L26.4766 20.1332C26.5607 20.0322 26.6463 19.9329 26.7339 19.8342L26.5826 19.7383Z" fill="#805A43"/>
<path d="M37.3354 11.062C36.4999 11.864 35.4376 12.7704 31.7242 15.4994C31.3772 15.7543 31.0537 15.9936 30.7511 16.2195C28.646 17.7895 27.5547 18.7014 26.7273 19.5821L26.8766 19.6764C27.6943 18.7873 28.7596 17.8888 30.883 16.3031C31.1963 16.0689 31.5331 15.8201 31.8953 15.5535C33.2082 14.5886 33.1746 14.7504 32.2886 15.4314C31.8989 15.7309 31.476 16.0611 31.0455 16.4057C29.7958 17.4052 28.4789 18.5241 27.6994 19.3601L28.9583 18.5642C29.6119 17.8938 30.3674 17.1961 31.1969 16.5006C31.6049 16.1581 32.0314 15.8157 32.4715 15.4771C34.2414 14.1168 36.0847 12.6248 37.5545 11.1998L37.3354 11.062Z" fill="#805A43"/>
<path d="M32.7675 16.1568L32.0955 16.5812C32.7492 15.9303 33.6163 15.1489 34.5196 14.3352C35.6817 13.2883 36.7994 12.1639 37.6543 11.2637L37.8775 11.4048C37.019 12.2966 35.863 13.3379 34.7366 14.3524C34.0284 14.9905 33.3422 15.6091 32.7675 16.1568Z" fill="#805A43"/>
<path d="M34.0769 15.3289C35.2446 14.185 37.0532 12.5469 38.0415 11.5078L38.1939 11.6037C37.3105 12.5279 35.8259 13.8369 34.7356 14.9123L34.0769 15.3289Z" fill="#805A43"/>
<path d="M35.9543 14.1418C36.8127 13.3548 37.9447 12.4501 38.4802 11.7842L38.6376 11.8834C38.1592 12.4005 37.3731 13.0341 36.694 13.6738L35.9543 14.1418Z" fill="#805A43"/>
<path d="M37.3145 13.2827C37.8444 12.8203 38.282 12.6229 38.9443 12.0791L39.0819 12.1661L37.3145 13.2827Z" fill="#805A43"/>
<path d="M23.6629 19.5613C23.7673 19.6188 23.2054 20.1425 22.8105 20.5184L22.592 20.3801C22.9165 20.0482 23.5584 19.5039 23.6629 19.5613Z" fill="#805A43"/>
<path d="M29.2721 15.794C29.3775 15.7282 29.5258 15.6362 29.6781 15.5408C29.9894 15.3461 30.319 15.1398 30.3399 15.127C32.0156 14.0678 32.2499 13.7471 32.8414 12.9791L34.0641 12.2061C33.465 13.104 32.3651 14.0237 30.3746 15.2692C30.1845 15.3885 29.9955 15.5068 29.808 15.6234C29.6705 15.7092 29.5334 15.7946 29.3974 15.8793C26.9831 17.3819 24.9972 18.7411 23.1809 20.672C23.1651 20.6888 23.1493 20.7061 23.1335 20.7239L22.9104 20.5828C24.7653 18.6285 26.9454 17.2419 29.2721 15.794Z" fill="#805A43"/>
<path d="M25.4837 17.6303L31.1087 14.0747C30.5998 14.5293 30.0052 14.9699 29.4173 15.3759C28.9267 15.7145 28.4407 16.0285 28.0117 16.3057L27.6958 16.5098C27.573 16.5896 27.4273 16.6833 27.2638 16.7887C25.9178 17.656 23.0734 19.4173 22.3816 20.2472L22.2308 20.1519C22.3352 20.0409 22.7474 19.6293 23.4163 19.1028C24.1066 18.5601 25.0593 17.8986 25.4837 17.6303Z" fill="#805A43"/>
<path d="M27.1848 19.9217L27.0381 19.8291V19.8832L27.1848 19.9763V19.9217Z" fill="#C99E4C"/>
<path d="M27.1848 19.9221V19.9767L38.9606 12.5337V12.479L27.1848 19.9221Z" fill="#C99E4C"/>
<path d="M24.7526 21.4598V21.5139L26.9897 20.1V20.0459L24.7526 21.4598Z" fill="#C99E4C"/>
<path d="M24.7526 21.4598V21.5139L24.6059 21.4214V21.3667L24.7526 21.4598Z" fill="#B58324"/>
<path d="M38.8139 12.3862L27.0381 19.8293L27.1848 19.9219L38.9606 12.4788L38.8139 12.3862Z" fill="#E9C379"/>
<path d="M26.843 19.9531L24.6059 21.3664L24.7526 21.4596L26.9897 20.0457L26.843 19.9531Z" fill="#E9C379"/>
<path opacity="0.1" d="M24.1132 9.16779C22.6658 9.12373 21.4197 8.94748 21.0177 6.57094C20.8857 5.79177 21.0895 5.04718 21.2785 4.69971C20.8638 5.08009 20.6071 5.88325 20.767 6.82862C21.169 9.20516 22.4829 9.38141 23.9303 9.42548C24.7979 9.45169 26.5327 9.13934 26.872 8.75116L26.873 8.75059C25.8963 9.07018 24.9075 9.19178 24.1132 9.16779Z" fill="black"/>
<path d="M33.7436 11.9595C32.8786 11.2478 31.8112 10.4168 30.83 9.81555C30.0826 9.35765 30.1478 8.72237 30.0842 7.922C30.0842 7.922 28.1701 6.70502 28.1365 7.45965C28.1028 8.21427 28.3209 9.52664 28.4783 10.0822C28.595 10.4832 28.5782 10.7169 30.2711 11.5741C30.9829 11.9344 32.039 12.3778 33.4655 13.0332C34.0111 13.2841 34.4763 12.6467 33.7436 11.9595Z" fill="#FFCEA1"/>
<path d="M29.4708 1.88099C28.1064 1.82522 27.9332 3.24021 27.897 4.31331C27.8603 5.38585 27.8048 7.02673 27.7824 7.68933C27.76 8.35193 28.2389 8.68769 29.0459 8.7206C29.8529 8.7535 30.3837 8.42722 30.4051 7.79641C30.4265 7.16504 30.5274 4.19953 30.5498 3.53693C30.5722 2.87377 30.2095 1.91111 29.4708 1.88099Z" fill="#D9B9AE"/>
<path d="M35.5904 12.3623L34.7656 12.4571L34.596 12.5475C34.596 12.5475 34.6709 13.5509 35.2139 13.3484C35.7565 13.1459 36.0943 13.3305 36.2385 13.8604C36.5059 13.4672 35.9333 12.9736 35.9333 12.9736L35.5904 12.3623Z" fill="#F0B47F"/>
<path d="M35.8758 12.3895C35.3607 11.9734 34.3927 12.4603 33.7436 11.9595L33.4655 13.0331C34.1008 13.3209 34.3219 13.2568 35.1355 13.7855C35.592 14.0822 35.6587 13.4938 35.2562 13.2412C34.8548 12.9891 34.758 12.8742 35.2191 12.8574C35.6709 12.8413 35.7204 13.0499 35.9695 13.5284C36.2252 14.0203 36.3373 13.9105 36.5702 13.5964C36.8346 13.2601 36.3959 12.8106 35.8758 12.3895Z" fill="#FFCEA1"/>
<path opacity="0.3" d="M35.0443 13.632C35.0433 13.6884 35.1054 13.719 35.1365 13.7386C35.1798 13.7659 35.2695 13.8295 35.3225 13.7988C35.3449 13.786 35.3474 13.6147 35.3357 13.5696C35.3194 13.5082 35.2196 13.4379 35.162 13.4268C35.0346 13.4017 35.0453 13.5757 35.0443 13.632Z" fill="white"/>
<path d="M30.5457 2.78536C29.9379 1.01118 27.8924 0.980508 24.9574 2.52099C22.0224 4.06148 20.6152 4.19365 21.0172 6.5702C21.4191 8.94674 22.6658 9.12299 24.1127 9.16705C25.5601 9.21111 27.6509 8.77106 29.1381 7.53845C30.6262 6.3064 31.1489 4.54616 30.5457 2.78536Z" fill="#186FD9"/>
<path d="M25.5886 3.74151C26.4099 3.83633 27.0345 4.28252 27.4482 5.03492C27.7528 5.58932 27.8394 6.24689 27.7039 6.86375C27.576 7.44715 26.953 8.1594 26.47 8.42488C27.2984 8.26091 28.9445 7.29992 29.4585 6.73046C29.8671 6.27423 30.0918 5.90779 30.2691 5.33834C30.4922 4.62219 30.4423 3.79004 30.1025 3.11964C29.9323 2.78387 29.6898 2.49328 29.3913 2.28915C29.0998 2.09003 28.5349 1.93945 28.5349 1.93945L25.5886 3.74151Z" fill="#E4C6BB"/>
<path d="M24.0215 4.70996C25.7405 4.14274 26.5979 4.94087 26.847 6.01285C27.0962 7.08483 26.7217 7.84392 25.0853 8.29904C23.4489 8.75471 22.9944 8.39107 22.7224 6.95098C22.4493 5.51088 22.3026 5.27719 24.0215 4.70996Z" fill="#D9B9AE"/>
<path d="M28.8782 3.57152C28.7015 3.52969 28.518 3.61279 28.3718 3.72992C28.2154 3.85485 28.0875 3.99652 27.9989 4.18448L28.1202 4.16998C28.2867 4.11421 28.4574 4.05229 28.5909 3.92903C28.6352 3.88832 28.675 3.8409 28.7218 3.80354C28.7595 3.77286 28.8023 3.74833 28.8354 3.71152C28.8686 3.67471 28.892 3.6206 28.8782 3.57152Z" fill="#D9B9AE"/>
<path d="M28.219 4.64516C28.2073 5.51468 29.16 6.1494 29.7342 5.75954C30.2085 5.43717 30.6955 5.24084 31.0231 4.72325C31.4903 3.98592 29.3862 1.82689 29.0398 3.06061C28.7616 4.05116 28.2317 3.69533 28.219 4.64516Z" fill="#FAC28E"/>
<path d="M28.6633 6.30344C28.704 6.24097 28.7448 6.17851 28.7855 6.11604C28.8329 6.04353 28.8813 5.96936 28.9063 5.88403C28.9562 5.71503 28.9073 5.52874 28.8319 5.37146C28.7565 5.21417 28.6551 5.07194 28.5899 4.90908C28.4559 4.57611 28.3632 4.01614 28.5761 3.82595C28.4202 3.81815 28.1609 3.981 28.0667 4.08474C27.9627 4.19964 27.9362 4.35078 27.9266 4.50528C27.9067 4.82654 28.0147 5.20915 28.1604 5.48858C28.2939 5.74403 28.4681 5.97382 28.5782 6.24377C28.5858 6.26273 28.5929 6.2817 28.6001 6.30067C28.6138 6.33748 28.6322 6.28504 28.6633 6.30344Z" fill="#D9B9AE"/>
<path opacity="0.2" d="M29.6944 5.7843L28.76 3.63867L28.6464 3.76081C28.6215 4.24549 28.7819 5.36879 29.5864 5.83395C29.672 5.80327 29.6944 5.7843 29.6944 5.7843Z" fill="black"/>
<path d="M28.7687 2.64792C28.5726 3.65688 28.7402 4.0579 28.9144 4.53087C29.0632 4.93467 29.2013 5.04232 29.642 5.70659C30.2375 6.604 30.8183 7.01784 31.4455 6.35747C31.7562 6.03621 32.0833 5.5783 32.2897 5.14772C32.3493 5.02279 32.3742 4.60728 32.4247 4.47286C32.5352 4.17781 32.6957 3.92293 32.7675 3.52637C32.9846 2.32834 32.442 0.902738 31.0425 0.577016C29.643 0.251294 29.0163 1.37236 28.7687 2.64792Z" fill="#FFCEA1"/>
<path d="M28.7601 3.6842C28.9012 3.69703 28.8594 2.52632 29.2507 2.62839C29.562 2.70982 29.5895 3.03667 29.5553 3.65855C29.5212 4.28043 29.8743 4.27205 30.0026 4.0629C30.1387 3.84203 30.1687 3.61001 30.2732 3.07235C30.4194 2.31772 30.8922 2.79404 31.153 3.15211C31.4144 3.51018 31.9468 3.77455 32.417 3.78905C32.9642 3.80634 33.0951 3.18614 33.0951 2.58378C33.0951 2.05671 32.7818 0.817397 31.4123 0.32993C30.0378 -0.15921 29.08 0.688006 28.7972 1.70812C28.3856 3.1945 28.6189 3.67137 28.7601 3.6842Z" fill="#623B12"/>
<path d="M25.3706 15.4129C25.123 15.1664 24.724 14.9544 24.0342 14.5244L24.0454 14.9171L24.5136 15.4525C24.5136 15.4525 24.37 15.2305 24.5473 15.327C24.7495 15.4369 24.9181 15.6243 25.1724 15.7514C25.4271 15.8786 25.6187 15.6589 25.3706 15.4129Z" fill="#FFCEA1"/>
<path d="M26.3951 17.2142L26.0502 18.2934L26.3482 18.0988L26.6926 17.0195L26.3951 17.2142Z" fill="#BF2C1C"/>
<path d="M23.2634 16.1596L23.5614 15.965C23.5823 15.951 23.6093 15.9488 23.6379 15.9566L23.3398 16.1513C23.3113 16.1435 23.2848 16.1457 23.2634 16.1596Z" fill="#BF2C1C"/>
<path d="M23.3403 16.1512L23.6384 15.9565C23.6577 15.9621 23.6786 15.9722 23.699 15.9867L23.4015 16.1813C23.3806 16.1668 23.3597 16.1562 23.3403 16.1512Z" fill="#BF2C1C"/>
<path d="M23.4601 16.2362L23.7576 16.0415L23.9053 16.215L23.6073 16.4096L23.4601 16.2362Z" fill="#BF2C1C"/>
<path d="M23.401 16.1815L23.6985 15.9868C23.7184 16.0013 23.7388 16.0197 23.7576 16.042L23.4596 16.2367C23.4412 16.2138 23.4209 16.1954 23.401 16.1815Z" fill="#BF2C1C"/>
<path d="M23.6073 16.4095L23.9048 16.2148C23.9344 16.2494 23.9629 16.2756 23.9904 16.2951L23.6929 16.4898C23.6654 16.4703 23.6368 16.4441 23.6073 16.4095Z" fill="#36474F"/>
<path d="M23.6929 16.4901L23.9905 16.2954C24.02 16.3166 24.0485 16.33 24.0745 16.3372L23.777 16.5319C23.751 16.5241 23.7225 16.5107 23.6929 16.4901Z" fill="#2D3B42"/>
<path d="M23.7775 16.5309L24.075 16.3362C24.13 16.3513 24.1769 16.3407 24.21 16.3184L23.9125 16.513C23.8788 16.5353 23.832 16.5459 23.7775 16.5309Z" fill="#242F35"/>
<path d="M24.8957 16.3271L24.3654 16.7978L24.6634 16.6032L25.0012 16.3031C24.9609 16.2948 24.9237 16.302 24.8957 16.3271Z" fill="#13191C"/>
<path d="M24.3654 16.7982L24.6634 16.6035C24.64 16.6247 24.6267 16.6587 24.6242 16.6994L24.3266 16.8941C24.3287 16.8534 24.3414 16.8188 24.3654 16.7982Z" fill="#242F35"/>
<path d="M24.3262 16.8939L24.6237 16.6992C24.6221 16.7226 24.6242 16.7489 24.6293 16.7756L24.3318 16.9703C24.3262 16.9435 24.3246 16.9173 24.3262 16.8939Z" fill="#2D3B42"/>
<path d="M24.3317 16.971L24.6293 16.7764C24.6384 16.8221 24.6568 16.8712 24.6848 16.9169C24.7174 16.9705 24.7531 17.0195 24.7897 17.0625C24.8397 17.1211 24.8922 17.1696 24.9451 17.2069L24.6476 17.4016C24.5946 17.3637 24.5421 17.3151 24.4922 17.2571C24.455 17.2136 24.4199 17.1651 24.3873 17.1116C24.3592 17.0658 24.3404 17.0168 24.3317 16.971Z" fill="#36474F"/>
<path d="M25.206 17.2988C25.1744 17.3005 25.1408 17.2966 25.1067 17.2871L24.8091 17.4818C24.8881 17.5035 24.9625 17.4968 25.0236 17.4572C25.0333 17.4511 25.0425 17.4438 25.0511 17.436L25.206 17.2988Z" fill="#242F35"/>
<path d="M24.6476 17.4012L24.9451 17.2065C24.9991 17.245 25.0537 17.2718 25.1066 17.2863L24.8091 17.481C24.7561 17.467 24.7016 17.4397 24.6476 17.4012Z" fill="#2D3B42"/>
<path d="M24.6598 15.1662C24.5768 15.0686 24.4749 15.0457 24.4342 15.1227C24.3919 15.2025 24.428 15.3519 24.5136 15.4518L25.5662 16.6989C25.7007 16.8567 25.7521 17.0826 25.6951 17.2048C25.6844 17.2276 25.6701 17.2466 25.6518 17.2611L24.9864 17.7871C24.91 17.8473 24.7867 17.8049 24.6828 17.6828L23.4595 16.2354C23.3765 16.1378 23.2746 16.1144 23.2338 16.1919C23.1916 16.2717 23.2277 16.4211 23.3133 16.521L24.7775 18.2511C24.908 18.4039 25.0593 18.482 25.1805 18.4591L26.0497 18.2924L26.3941 17.2137L24.6598 15.1662Z" fill="#DE3222"/>
<path d="M25.5667 16.6993C25.7012 16.8571 25.7526 17.083 25.6956 17.2051C25.6849 17.228 25.6706 17.247 25.6523 17.2615L24.9869 17.7874C24.9105 17.8476 24.7872 17.8053 24.6833 17.6831L23.6078 16.4092C23.7392 16.5632 23.8584 16.5554 23.9206 16.508C23.9833 16.4606 24.4622 16.0322 24.5885 15.9145C24.7149 15.7968 24.6552 15.6178 24.5141 15.4521L25.5667 16.6993ZM25.2911 17.223C25.4515 17.0808 25.3858 16.6781 25.1586 16.4109C25.0674 16.3038 24.9594 16.2692 24.8952 16.3267L24.3649 16.7974C24.3042 16.851 24.3139 16.9915 24.3868 17.1103C24.4194 17.1639 24.4545 17.2129 24.4917 17.2559C24.6802 17.4773 24.911 17.5587 25.0501 17.4344L25.2911 17.223Z" fill="#1D262B"/>
<path d="M24.4637 15.0893L24.7612 14.8947C24.7826 14.8807 24.8091 14.8785 24.8376 14.8863L24.5401 15.0809C24.5116 15.0731 24.4851 15.0759 24.4637 15.0893Z" fill="#BF2C1C"/>
<path d="M24.5406 15.0814L24.8381 14.8867C24.8575 14.8923 24.8784 14.9023 24.8988 14.9168L24.6007 15.1115C24.5803 15.0964 24.56 15.0864 24.5406 15.0814Z" fill="#DE3222"/>
<path d="M24.6012 15.1116L24.8993 14.917C24.9191 14.9315 24.939 14.9494 24.9584 14.9717L24.6603 15.1663C24.641 15.144 24.6211 15.1256 24.6012 15.1116Z" fill="#FF5947"/>
<path d="M24.6598 15.1663L24.9579 14.9717L26.6926 17.0197L26.3951 17.2144L24.6598 15.1663Z" fill="#FF5947"/>
<path d="M26.0542 17.2172C26.095 17.2652 26.1164 17.3366 26.1021 17.3823C26.0863 17.4314 26.0359 17.4325 25.989 17.3851C25.986 17.3817 25.9829 17.3784 25.9799 17.3751C25.9386 17.3265 25.9177 17.2557 25.932 17.2099C25.9478 17.1609 25.9982 17.1598 26.0451 17.2072C26.0481 17.2105 26.0512 17.2139 26.0542 17.2172Z" fill="#1D262B"/>
<path d="M25.8902 17.7356C25.931 17.7835 25.9518 17.8543 25.9376 17.9001C25.9218 17.9486 25.8714 17.9497 25.8245 17.9029C25.8209 17.8995 25.8179 17.8962 25.8148 17.8923C25.774 17.8443 25.7532 17.7735 25.7674 17.7277C25.7832 17.6792 25.8336 17.6775 25.8805 17.7255C25.8836 17.7283 25.8871 17.7322 25.8902 17.7356Z" fill="#1D262B"/>
<path d="M31.8107 23.8344C31.7975 23.8305 31.7832 23.8238 31.7689 23.8137C31.7552 23.8043 31.7419 23.7914 31.7287 23.7764C31.6945 23.7362 31.6711 23.6855 31.6619 23.6381C31.6584 23.6191 31.6568 23.6007 31.6579 23.5839C31.6589 23.5672 31.6624 23.5516 31.6686 23.5388C31.6747 23.5259 31.6828 23.5165 31.6925 23.5098L31.6349 23.5471C31.6253 23.5533 31.6171 23.5633 31.611 23.5761C31.6049 23.589 31.6013 23.6046 31.6003 23.6213C31.5993 23.6381 31.6003 23.6565 31.6044 23.6754C31.6135 23.7228 31.637 23.7736 31.6711 23.8137C31.6844 23.8288 31.6976 23.8416 31.7114 23.8511C31.7256 23.8611 31.7394 23.8678 31.7526 23.8717C31.7735 23.8773 31.7929 23.8756 31.8087 23.865L31.8662 23.8277C31.851 23.8383 31.8316 23.8399 31.8107 23.8344Z" fill="#B2B3B1"/>
<path d="M32.1159 23.6972L26.5663 17.1822L26.5255 17.1343L26.1837 18.2063L26.0502 18.2933L25.4062 18.4171L25.4597 18.6608L25.6202 18.5615L25.6869 18.8672L25.8469 18.7674L25.9136 19.073L26.0736 18.9737L26.1404 19.2788L26.3003 19.1795L26.3671 19.4846L26.527 19.3853L26.5938 19.6904L26.7543 19.5911L26.821 19.8962L26.9815 19.7969L27.0482 20.102L27.2087 20.0028L27.2755 20.3084L27.4354 20.2086L27.5022 20.5142L27.6626 20.4149L27.7294 20.72L27.8899 20.6207L27.9566 20.9258L28.1171 20.8265L28.1838 21.1316L28.3438 21.0324L28.4105 21.3374L28.5568 21.2426L28.572 21.2448L28.6373 21.5438L28.7972 21.444L28.864 21.7496L29.0244 21.6503L29.0912 21.9554L29.2517 21.8561L29.3184 22.1612L29.4789 22.0619L29.5456 22.367L29.7061 22.2677L29.7729 22.5728L29.9333 22.4735L30.0001 22.7792L30.16 22.6794L30.2268 22.985L30.3868 22.8852L30.4535 23.1908L30.614 23.0915L30.6807 23.3966L30.8407 23.2973L30.9074 23.6024L31.0679 23.5031L31.1347 23.8082L31.2951 23.7089L31.3619 24.0146L31.5218 23.9148L31.5886 24.2204L31.7486 24.1206L31.8153 24.4262L31.9727 24.3241L32.1709 23.9081C32.1949 23.8573 32.1709 23.7614 32.1159 23.6972ZM31.8336 23.8367C31.8051 23.8958 31.7328 23.8858 31.6716 23.8138C31.6105 23.7419 31.5835 23.6353 31.6115 23.5762C31.6395 23.5171 31.7124 23.5277 31.7735 23.5996C31.8352 23.671 31.8617 23.7776 31.8336 23.8367Z" fill="#D4D4D4"/>
<path d="M26.5663 17.1822L26.1663 18.4316L25.4398 18.571L25.4062 18.4165L26.0502 18.2933L26.1837 18.2057L26.5255 17.1343L26.5663 17.1822Z" fill="#B2B3B1"/>
<path d="M32.1729 23.6596L26.5826 17.0967L26.525 17.134L32.1154 23.697C32.1459 23.7333 32.1673 23.779 32.1755 23.8214L32.233 23.784C32.2249 23.7416 32.204 23.6959 32.1729 23.6596Z" fill="#E3E3E3"/>
<path d="M32.233 23.7837L32.1755 23.8211C32.1785 23.8378 32.1801 23.8545 32.179 23.8696C32.178 23.8846 32.175 23.8986 32.1694 23.9103L31.9712 24.3264L32.0287 24.289L32.2269 23.8729C32.2325 23.8612 32.2356 23.8473 32.2366 23.8322C32.2376 23.8172 32.2366 23.801 32.233 23.7837Z" fill="#B2B3B1"/>
<path d="M21.9403 8.23932C21.3182 8.87347 20.7364 9.55113 20.7181 10.4078C20.6967 11.3928 21.3182 12.5607 21.7803 13.2724C22.6449 14.6037 22.6974 14.7164 22.999 15.1565C23.3006 15.5965 24.3139 15.0304 24.0342 14.5184C23.6124 13.7448 23.2384 12.728 22.7315 11.4647C22.4197 10.6884 23.3062 10.3593 23.7688 9.85287C24.2319 9.34588 23.2782 6.87508 21.9403 8.23932Z" fill="#FFCEA1"/>
<path d="M26.1149 4.95441C25.044 4.09549 24.2467 5.02916 23.5742 5.87637C22.9017 6.72358 22.3678 7.33933 21.9526 7.86249C21.5373 8.38566 21.7264 9.00307 22.3632 9.60934C23.0005 10.2156 23.6277 10.3316 24.023 9.83356C24.4189 9.33549 25.2233 8.42469 26.0665 7.41462C26.4944 6.90261 27.2979 5.90369 26.1149 4.95441Z" fill="#E4C6BB"/>
<path d="M25.2564 16.5529C24.9161 16.0627 24.7735 16.0197 24.5136 15.4525C24.2558 15.1474 24.2762 14.8273 24.0337 14.5244L22.9985 15.1569C23.5788 16.1118 23.4595 16.4096 23.7988 16.8351C24.1947 17.3315 24.8677 17.3773 25.1092 17.138C25.3507 16.8987 25.3512 16.7297 25.2564 16.5529Z" fill="#FFCEA1"/>
<path d="M26.5979 29.1108C26.5556 29.291 26.71 29.465 26.7232 29.4762C26.7431 29.4923 26.7426 29.5247 26.7431 29.5514C26.7456 29.6524 26.7981 29.75 26.8771 29.8019C26.926 29.8337 26.9866 29.8526 27.0157 29.9056C27.0391 29.9486 27.036 30.006 27.0641 30.0456C27.0916 30.0847 27.14 30.0953 27.1812 30.1148C27.2913 30.1678 27.3534 30.2921 27.4319 30.392C27.5491 30.5409 27.7101 30.639 27.8675 30.7339C27.951 30.7846 28.0351 30.8354 28.1192 30.8856C28.2226 30.948 28.326 31.0105 28.4294 31.073C28.5196 31.1276 28.6103 31.1823 28.7056 31.2258C28.8289 31.2821 28.9583 31.3195 29.0826 31.3725C29.1524 31.4026 29.2206 31.4377 29.2935 31.4578C29.4229 31.4941 29.7551 31.5599 29.888 31.5471C29.9965 31.5365 30.1952 31.5337 30.2936 31.4818C30.3919 31.4299 30.3501 31.3413 30.3353 31.2336C30.3287 31.1862 30.1856 31.0267 30.1698 30.9821C30.0699 30.6971 29.8101 30.5242 29.564 30.3814C29.4086 30.2916 29.2502 30.204 29.081 30.1521C28.9562 30.1137 28.8227 30.093 28.7127 30.0177C28.6414 29.9686 28.5807 29.8973 28.5008 29.8671C28.3673 29.8175 28.1981 29.8922 28.0917 29.7913C28.0585 29.76 28.0382 29.7166 28.0096 29.6803C27.9679 29.6268 27.9108 29.5905 27.8548 29.5548C27.735 29.4789 27.6148 29.4036 27.4951 29.3278C27.413 29.2759 27.3295 29.2235 27.2383 29.1956C27.1079 29.1555 26.9596 29.1649 26.8496 29.0785C26.8272 29.0606 26.8042 29.0383 26.7767 29.0378C26.7049 29.0361 26.6254 28.9948 26.5979 29.1108Z" fill="#EEA56A"/>
<path d="M26.6004 29.0987C26.5729 29.2147 26.7105 29.3982 26.7237 29.4093C26.7436 29.4255 26.7431 29.4578 26.7436 29.4846C26.7461 29.5856 26.7986 29.6832 26.8776 29.735C26.9265 29.7668 26.9871 29.7858 27.0161 29.8388C27.0396 29.8817 27.0365 29.9392 27.0645 29.9788C27.0921 30.0178 27.1404 30.0284 27.1817 30.0479C27.2918 30.1009 27.3539 30.2258 27.4324 30.3251C27.5496 30.474 27.7105 30.5722 27.868 30.667C27.9515 30.7178 28.0356 30.7685 28.1196 30.8187C28.2231 30.8812 28.3265 30.9437 28.4299 31.0061C28.5201 31.0608 28.6108 31.1155 28.706 31.159C28.8293 31.2153 28.9587 31.2521 29.083 31.3057C29.1528 31.3358 29.2211 31.3709 29.294 31.391C29.4234 31.4272 29.7555 31.493 29.8885 31.4802C29.997 31.4696 30.1957 31.4668 30.294 31.415C30.3924 31.3631 30.318 31.2225 30.321 31.1032C30.3226 31.0552 30.1855 30.9598 30.1702 30.9152C30.0704 30.6302 29.8106 30.4573 29.5645 30.3145C29.4091 30.2247 29.2507 30.1372 29.0815 30.0853C28.9567 30.0468 28.8232 30.0262 28.7132 29.9509C28.6418 29.9018 28.5812 29.8299 28.5012 29.8003C28.3678 29.7507 28.1986 29.8254 28.0921 29.7244C28.059 29.6932 28.0386 29.6497 28.0101 29.6134C27.9683 29.5599 27.9113 29.5237 27.8552 29.4885C27.7355 29.4127 27.6153 29.3374 27.4955 29.2615C27.4135 29.2097 27.33 29.1572 27.2388 29.1293C27.1084 29.0892 26.9601 29.0987 26.8501 29.0122C26.8276 28.9944 26.8047 28.9721 26.7772 28.9715C26.7049 28.9687 26.6279 28.9827 26.6004 29.0987Z" fill="#E9C379"/>
</svg>
