<svg width="46" height="56" viewBox="0 0 46 56" fill="none" xmlns="http://www.w3.org/2000/svg">
<path d="M13.0932 16.519L11.6004 15.5754L35.9463 0.1875L37.4392 1.13106L13.0932 16.519Z" fill="#EFE1BC"/>
<path opacity="0.1" d="M30.1884 26.9146L0.860064 45.4519L13.0932 50.615L37.4392 35.2266V32.0777L30.1884 26.9146Z" fill="black"/>
<path d="M13.0932 50.6148L11.6004 49.6713V15.5752L13.0932 16.5188V50.6148Z" fill="#CAA58B"/>
<path d="M13.0932 50.6149V16.5188L37.4392 1.13086V35.2265L13.0932 50.6149Z" fill="#FFBB00"/>
<path opacity="0.1" d="M29.6731 55.6769L26.016 53.3653C25.5458 53.0683 25.6049 52.5488 26.1479 52.2058L27.4617 51.3754C28.0047 51.032 28.8262 50.9947 29.2968 51.2921L34.1568 54.3639L31.9165 55.7801L29.6731 55.6769Z" fill="black"/>
<path d="M28.2503 48.3464C28.3022 48.2241 28.3846 48.1192 28.4725 48.0637C28.5466 48.0169 28.6167 48.0099 28.6682 48.0429C28.6777 48.0489 28.6868 48.0568 28.6951 48.0654L29.5931 49.0467V51.4793L27.3528 52.8955V50.4629L28.2503 48.3464Z" fill="#DE3222"/>
<path d="M28.0852 48.2427C28.1371 48.1204 28.2199 48.0151 28.3074 47.96C28.3819 47.9132 28.4524 47.9062 28.5039 47.9401C28.513 47.9461 28.6678 48.0437 28.6678 48.0437C28.6163 48.0107 28.5462 48.0177 28.4722 48.0645C28.3842 48.12 28.3018 48.2249 28.25 48.3472L27.352 50.4637L27.1873 50.3597L28.0852 48.2427Z" fill="#FB4432"/>
<path d="M29.4644 51.3989L31.8849 52.9287L31.8052 53.1161L29.2766 51.5177L29.4644 51.3989Z" fill="#CF2313"/>
<path d="M32.6442 51.1378L31.8849 52.9282L29.4644 51.3984V49.1279L32.6442 51.1378Z" fill="#C91716"/>
<path d="M31.9946 53.8743L31.32 51.9048L31.3755 51.9646L32.0496 53.9337L31.9946 53.8743Z" fill="#91AD0B"/>
<path d="M32.2366 53.8196L31.562 51.8501L31.4963 51.9373L32.1708 53.9068L32.2366 53.8196Z" fill="#C3E022"/>
<path d="M32.1708 53.907L31.4963 51.9375L31.3755 51.9652L32.0496 53.9343L32.1708 53.907Z" fill="#AFCD15"/>
<path d="M31.4246 51.7002L31.5066 51.7904L31.5621 51.8502L31.4282 51.7184L31.4246 51.7002Z" fill="#DED397"/>
<path d="M31.4282 51.7183L31.562 51.8501L31.4963 51.9372L31.4052 51.743L31.4282 51.7183Z" fill="#E8E2B5"/>
<path d="M31.4052 51.7427L31.4963 51.9369L31.3755 51.9647L31.3636 51.7509L31.4052 51.7427Z" fill="#DED397"/>
<path d="M31.3636 51.7511L31.347 51.7285L31.32 51.905L31.3755 51.9648L31.3636 51.7511Z" fill="#D9C879"/>
<path d="M31.4123 51.7384C31.431 51.7232 31.4333 51.7063 31.4222 51.6976L31.3854 51.6616C31.3739 51.6504 31.3553 51.6577 31.3533 51.6751L31.3474 51.7284C31.3442 51.7431 31.3561 51.7544 31.3795 51.7523C31.3909 51.7514 31.4024 51.7466 31.4123 51.7384Z" fill="#AFCD15"/>
<path d="M29.5927 49.0469L32.7075 51.0155C32.6854 51.0502 32.6656 51.0875 32.6489 51.127L32.6442 51.1378L29.4644 49.128L29.5927 49.0469Z" fill="#59A3DE"/>
<path d="M32.6489 51.1274C32.7008 51.0052 32.7832 50.8998 32.8711 50.8447C32.9448 50.7983 33.0145 50.7914 33.066 50.8235C33.0759 50.8295 33.2315 50.928 33.2315 50.928C33.1801 50.8954 33.1099 50.9024 33.0363 50.9488C32.9483 51.0043 32.866 51.1092 32.8141 51.2315L31.9161 53.348L31.751 53.2439L32.6489 51.1274Z" fill="#DE3222"/>
<path d="M28.6456 51.292C28.6456 51.292 29.2889 53.1553 29.2932 53.1683C29.2976 53.1808 29.2944 53.1969 29.2826 53.2129L29.1918 53.3343C29.1681 53.3664 29.1182 53.3868 29.0809 53.3803L28.7993 53.33C28.7807 53.3265 28.7688 53.317 28.7641 53.3044C28.7597 53.2919 28.1165 51.4286 28.1165 51.4286L28.6456 51.292Z" fill="#C92C2C"/>
<path d="M28.3288 51.2162L28.6104 51.2665C28.629 51.27 28.6409 51.2795 28.6452 51.2921C28.6496 51.3046 28.6464 51.3207 28.6345 51.3367L28.5438 51.4581C28.5201 51.4902 28.4702 51.5106 28.4329 51.5041L28.1513 51.4534C28.1327 51.4499 28.1208 51.4404 28.1165 51.4278C28.1121 51.4152 28.1153 51.3992 28.1272 51.3831L28.2179 51.2617C28.242 51.2301 28.2915 51.2092 28.3288 51.2162Z" fill="#AB1818"/>
<path d="M27.9941 49.4038C27.9941 49.4038 28.6413 51.2797 28.6457 51.2922C28.65 51.3048 28.6468 51.3209 28.635 51.3369L28.5442 51.4583C28.53 51.4774 28.5062 51.4926 28.4817 51.4999L27.7774 49.4597L27.9941 49.4038Z" fill="#BAA664"/>
<path d="M27.7774 49.459L28.4817 51.4992C28.465 51.5044 28.4484 51.5061 28.4333 51.5035L28.1517 51.4528C28.1331 51.4493 28.1212 51.4398 28.1169 51.4272C28.1125 51.4146 27.4653 49.5388 27.4653 49.5388L27.7774 49.459Z" fill="#CFBD80"/>
<path d="M27.6772 49.3274L27.9588 49.3781C27.9774 49.3816 27.9893 49.3907 27.9937 49.4037C27.998 49.4163 27.9949 49.4323 27.983 49.4484L27.8923 49.5698C27.8685 49.6019 27.8186 49.6222 27.7814 49.6157L27.4998 49.565C27.4811 49.5615 27.4693 49.552 27.4645 49.5394C27.4598 49.5268 27.4633 49.5108 27.4752 49.4948L27.5659 49.3733C27.5901 49.3413 27.64 49.3209 27.6772 49.3274Z" fill="#AB1818"/>
<path d="M28.4104 49.5893L28.6932 49.2116L28.0503 48.9189L27.7675 49.2966L28.4104 49.5893Z" fill="#363636"/>
<path d="M27.7675 49.2965L28.0503 48.9188L27.0518 48.7397L26.769 49.1174L27.7675 49.2965Z" fill="#4A4A4A"/>
<path d="M27.5279 48.9051L27.8095 48.9554C27.8281 48.9589 27.84 48.9684 27.8444 48.981C27.8487 48.9936 27.8455 49.0096 27.8337 49.0257L27.743 49.1471C27.7192 49.1792 27.6693 49.1996 27.632 49.1931L27.3504 49.1423C27.3318 49.1389 27.3199 49.1293 27.3152 49.1168C27.3108 49.1042 27.314 49.0881 27.3259 49.0721L27.4166 48.9507C27.4407 48.919 27.4906 48.8982 27.5279 48.9051Z" fill="#CFBD80"/>
<path d="M28.4254 49.6332L28.4104 49.5895L27.7675 49.2968L26.769 49.1177L26.9148 49.5396L27.9133 49.7187L28.4254 49.6332Z" fill="#262626"/>
<path d="M28.4254 49.6334L28.7082 49.2553L28.6932 49.2119L28.4104 49.5896L28.4254 49.6334Z" fill="#262626"/>
<path d="M28.6314 46.8194L28.6876 46.7036L28.566 46.874L28.5098 46.9898L28.5585 47.1221L28.6801 46.9516L28.6314 46.8194Z" fill="#1C1C1C"/>
<path d="M29.9721 50.4565L30.1555 50.4847C30.1745 50.4877 30.1959 50.506 30.2031 50.5255L30.3603 50.9517C30.3674 50.9712 30.3579 50.9847 30.3389 50.9821L30.1555 50.9539L31.4476 54.4593L32.2184 54.5781L29.4509 47.0699L28.6797 46.9507L29.9721 50.4565ZM31.8132 53.7893C31.8662 53.9337 31.7953 54.0335 31.6543 54.0118C31.5133 53.9901 31.3557 53.8552 31.3026 53.7108C31.2491 53.5664 31.3204 53.4667 31.4614 53.4884C31.6024 53.5096 31.7601 53.6445 31.8132 53.7893ZM29.462 47.6237C29.5994 47.7412 29.6604 47.9068 29.5982 47.994C29.5361 48.0807 29.3744 48.056 29.237 47.938C29.0996 47.8205 29.0386 47.6545 29.1007 47.5677C29.1629 47.481 29.3245 47.5057 29.462 47.6237Z" fill="#FCC901"/>
<path d="M32.2112 54.8265L32.0892 54.9969L31.5284 54.9102L31.65 54.7397L32.2112 54.8265Z" fill="#1C1C1C"/>
<path d="M31.65 54.7396L31.5284 54.91L31.3747 54.7617L31.4963 54.5913L31.65 54.7396Z" fill="#2B2B2B"/>
<path d="M31.4963 54.5913L31.3747 54.7617L31.326 54.6299L31.4476 54.4595L31.4963 54.5913Z" fill="#1C1C1C"/>
<path d="M31.4963 54.5913L31.65 54.7396L32.2112 54.8263L32.2675 54.7105L32.2188 54.5783L31.4476 54.4595L31.4963 54.5913Z" fill="#404040"/>
<path d="M29.4026 46.9382L29.2489 46.7903L28.6876 46.7036L28.6314 46.8194L28.6801 46.9516L29.4513 47.0704L29.4026 46.9382Z" fill="#404040"/>
<path d="M29.2168 47.9674C29.3796 48.1066 29.5709 48.1361 29.6446 48.0334C29.7179 47.9306 29.6458 47.7342 29.483 47.595C29.3202 47.4558 29.1289 47.4263 29.0556 47.5291C28.9815 47.6318 29.054 47.8278 29.2168 47.9674ZM29.462 47.624C29.5994 47.7415 29.6604 47.9072 29.5983 47.9943C29.5361 48.0811 29.3745 48.0563 29.237 47.9384C29.0996 47.8209 29.0386 47.6548 29.1008 47.5681C29.1629 47.4814 29.3246 47.5061 29.462 47.624Z" fill="#404040"/>
<path d="M29.0798 47.6866C29.0723 47.6406 29.0786 47.599 29.1008 47.5674C29.163 47.4806 29.3246 47.5054 29.462 47.6233C29.5995 47.7408 29.6605 47.9065 29.5983 47.9936C29.5757 48.0248 29.5405 48.0418 29.4977 48.0448C29.4842 47.9637 29.4276 47.8687 29.34 47.7937C29.2525 47.7183 29.1551 47.681 29.0798 47.6866Z" fill="#1C1C1C"/>
<path d="M29.2148 47.7406C29.2275 47.7229 29.2833 47.7476 29.3392 47.7953C29.3954 47.8434 29.4303 47.8967 29.4176 47.9145C29.405 47.9323 29.3491 47.9076 29.2932 47.8595C29.237 47.8113 29.2021 47.7584 29.2148 47.7406Z" fill="white"/>
<path opacity="0.6" d="M29.5868 47.9804C29.5852 47.9929 29.5824 48.0042 29.5785 48.0151C29.5531 48.0359 29.5186 48.0458 29.479 48.045L29.0841 47.7068C29.0738 47.6651 29.0742 47.6261 29.0869 47.594C29.0956 47.5871 29.1051 47.581 29.1158 47.5767L29.5868 47.9804Z" fill="#AFCD15"/>
<path d="M31.326 54.6299L30.0625 51.2022L30.1845 51.0317L31.4476 54.4595L31.326 54.6299Z" fill="#FFAD0D"/>
<path d="M29.9436 50.3785L29.822 50.5489L28.5585 47.1216L28.6801 46.9512L29.9436 50.3785Z" fill="#FFAD0D"/>
<path d="M29.9721 50.456L30.1555 50.4842C30.1745 50.4873 30.1959 50.5055 30.203 50.525L30.3603 50.9512C30.3674 50.9708 30.3579 50.9842 30.3389 50.9816L30.1555 50.9534L30.184 51.0315L30.3924 51.0635C30.4359 51.0705 30.4577 51.0397 30.4415 50.995L30.2605 50.5037C30.2438 50.4591 30.1955 50.4174 30.1519 50.4105L29.9436 50.3784L29.9721 50.456Z" fill="#404040"/>
<path d="M30.1559 50.4848C30.1749 50.4878 30.1963 50.506 30.2034 50.5256L30.3607 50.9518C30.3678 50.9713 30.3583 50.9847 30.3393 50.9821L30.1781 50.9574L30.0818 50.6964C30.0747 50.6769 30.0533 50.6587 30.0343 50.6556L29.8509 50.6274L29.9725 50.457L30.1559 50.4848Z" fill="#1C1C1C"/>
<path d="M29.9721 50.4565L29.8505 50.6269L29.822 50.5488L29.9436 50.3784L29.9721 50.4565Z" fill="#2B2B2B"/>
<path d="M30.1844 51.0317L30.0624 51.2021L30.0339 51.1241L30.1555 50.9541L30.1844 51.0317Z" fill="#2B2B2B"/>
<path d="M30.058 50.7039C30.0869 50.7082 30.1277 50.7599 30.1495 50.8188C30.1713 50.8778 30.1658 50.922 30.1368 50.9177C30.1079 50.9134 30.0671 50.8617 30.0454 50.8028C30.0236 50.7438 30.0295 50.6996 30.058 50.7039Z" fill="white"/>
<path opacity="0.6" d="M29.9947 50.5162C30.0299 50.5006 30.0656 50.5062 30.0735 50.5283C30.0818 50.5509 30.2347 50.9658 30.2347 50.9658L30.1555 50.9537L30.1064 51.0222C30.1064 51.0222 29.9535 50.6072 29.9452 50.5851C29.9373 50.5626 29.959 50.5318 29.9947 50.5162Z" fill="#AFCD15"/>
<path d="M31.2554 53.7035C31.3184 53.8748 31.505 54.0344 31.6721 54.0604C31.8393 54.0864 31.9233 53.9684 31.8603 53.7972C31.7973 53.6259 31.6107 53.4663 31.4436 53.4407C31.2768 53.4143 31.1925 53.5322 31.2554 53.7035ZM31.8131 53.7898C31.8662 53.9342 31.7953 54.0339 31.6543 54.0122C31.5133 53.9905 31.3557 53.8557 31.3026 53.7113C31.2491 53.5669 31.3204 53.4672 31.4614 53.4888C31.6024 53.5101 31.7601 53.645 31.8131 53.7898Z" fill="#404040"/>
<path d="M31.6916 53.96C31.6385 53.8156 31.4808 53.6808 31.3398 53.6587C31.3212 53.6556 31.3042 53.6552 31.2883 53.6565C31.2693 53.5425 31.339 53.4696 31.4614 53.4883C31.6024 53.5099 31.7601 53.6448 31.8131 53.7892C31.8595 53.9149 31.8116 54.006 31.7058 54.0138C31.703 53.9969 31.6983 53.9787 31.6916 53.96Z" fill="#1C1C1C"/>
<path d="M31.4923 53.7166C31.5213 53.7209 31.5621 53.7725 31.5838 53.8315C31.6056 53.8905 31.5997 53.9347 31.5712 53.9304C31.5423 53.926 31.5015 53.8744 31.4797 53.8155C31.4579 53.7565 31.4634 53.7123 31.4923 53.7166Z" fill="white"/>
<path opacity="0.6" d="M31.5113 53.9551C31.4666 53.8333 31.3854 53.6139 31.3798 53.5978C31.3715 53.5753 31.3937 53.5445 31.429 53.5289C31.4642 53.5133 31.4999 53.5189 31.5078 53.541C31.5153 53.5618 31.6619 53.9595 31.6821 54.0141C31.6733 54.0137 31.6638 54.0128 31.6543 54.0115C31.6068 54.0041 31.5577 53.9842 31.5113 53.9551Z" fill="#AFCD15"/>
<path d="M28.8666 51.6169C28.8956 51.3282 29.0595 50.8906 29.0595 50.8906C29.1059 50.9591 29.1697 51.019 29.2386 51.0528C29.195 51.218 29.1447 51.316 29.092 51.5601C29.0615 51.7019 28.9993 51.9318 29.1103 52.3723C29.1336 52.4647 29.1629 52.6112 29.1019 52.613C29.0409 52.6147 29.0275 52.5709 28.9827 52.4348C28.9383 52.2986 28.8373 51.9057 28.8666 51.6169Z" fill="#FFBB00"/>
<path d="M29.1158 52.6094C29.1574 52.5856 29.1313 52.4568 29.1099 52.3722C28.9986 51.9313 29.0611 51.7019 29.0916 51.5601C29.1443 51.3164 29.1946 51.2179 29.2382 51.0527L29.2909 51.0727C29.2552 51.1837 29.2168 51.2847 29.1764 51.4707C29.1459 51.6125 29.0837 51.8423 29.1946 52.2829C29.2132 52.3558 29.2354 52.4629 29.2136 52.5054C29.2085 52.5162 29.1661 52.5869 29.1158 52.6094Z" fill="#F09300"/>
<path d="M28.8667 51.6168C28.8869 51.4152 28.9728 51.1416 29.0231 50.9941L29.1115 51.0696C29.1317 51.0869 29.1431 51.1138 29.1372 51.1299C29.1 51.2352 28.9776 51.6042 28.9804 51.874C28.9819 52.0218 29.0287 52.3956 29.1233 52.6029C29.1178 52.6089 29.1111 52.612 29.1019 52.6124C29.0409 52.6141 29.0275 52.5704 28.9827 52.4342C28.9384 52.2985 28.8374 51.9056 28.8667 51.6168Z" fill="#1C72D9"/>
<path d="M29.0207 50.5872C29.0207 50.5872 29.0385 50.5686 29.1055 50.4983C29.1724 50.4281 29.3166 50.4736 29.4279 50.6007C29.5392 50.7273 29.5748 50.8873 29.5083 50.9575C29.4414 51.0278 29.4235 51.0464 29.4235 51.0464L29.0207 50.5872Z" fill="#BABABA"/>
<path d="M29.1007 50.9441C29.212 51.0707 29.3562 51.1166 29.4231 51.0464C29.4901 50.9761 29.454 50.8166 29.3427 50.6895C29.2314 50.5625 29.0872 50.5169 29.0203 50.5872C28.9538 50.6574 28.9898 50.817 29.1007 50.9441Z" fill="#E3E3E3"/>
<path d="M29.1269 50.7867C29.1399 50.8448 29.193 50.9051 29.2453 50.922C29.2976 50.9385 29.3297 50.9051 29.3166 50.847C29.3035 50.7889 29.2504 50.7286 29.1981 50.7117C29.1459 50.6952 29.1142 50.7286 29.1269 50.7867Z" fill="#404040"/>
<path d="M29.1669 50.0235L29.2516 49.9346L29.3075 49.9619L29.2227 50.0508L29.1669 50.0235Z" fill="#C9C9C9"/>
<path d="M29.2228 50.0508L29.3075 49.9619L29.5147 50.5989L29.4299 50.6882L29.2228 50.0508Z" fill="#A6A6A6"/>
<path d="M29.201 50.3496L29.2184 50.3583L29.2347 50.5963L29.2164 50.5695L29.201 50.3496Z" fill="#F2F2F2"/>
<path d="M29.2067 50.2324L29.2055 50.2136L29.2016 50.2119L29.1899 50.2243L29.2067 50.2324Z" fill="#A6A6A6"/>
<path d="M29.2093 50.2695L29.2077 50.252L29.1945 50.2456L29.1832 50.2571L29.2093 50.2695Z" fill="#A6A6A6"/>
<path d="M29.2043 50.1943L29.2027 50.1755L29.1988 50.1733L29.1871 50.1861L29.2043 50.1943Z" fill="#A6A6A6"/>
<path d="M29.2015 50.1563L29.2003 50.1388L29.1957 50.1362L29.1843 50.1478L29.2015 50.1563Z" fill="#A6A6A6"/>
<path d="M29.174 50.1258L29.1669 50.0234L29.2224 50.0508L29.4299 50.6882L29.3689 50.722C29.3317 50.6721 29.2849 50.6279 29.2342 50.5971L29.2176 50.3591L29.1887 50.3447L29.1827 50.2576L29.2089 50.2706L29.2077 50.2528L29.1907 50.2442L29.1895 50.2251L29.2065 50.2338L29.2053 50.2147L29.1883 50.206L29.1871 50.1869L29.2041 50.1956L29.2029 50.1765L29.1855 50.1678L29.1843 50.1488L29.2014 50.1574L29.2002 50.1397L29.174 50.1258Z" fill="#E3E3E3"/>
<path d="M28.85 49.9326L28.9348 49.8438L28.9855 49.8503L28.9007 49.9391L28.85 49.9326Z" fill="#A6A6A6"/>
<path d="M28.9954 50.1974L28.9712 50.1944L28.9641 50.1749L28.9799 50.1766L28.972 50.1554L28.9566 50.1536L28.9486 50.1324L28.9645 50.1346L28.9566 50.1133L28.9407 50.1111L28.9332 50.0899L28.949 50.0921L28.9411 50.0708L28.9253 50.0691L28.9181 50.0491L28.9423 50.0522L28.9007 49.939L28.9855 49.8501L29.0271 49.9633L29.0108 49.9802L29.0259 49.9819L29.0338 50.0032L29.018 50.001L29.0255 50.0222L29.0413 50.0244L29.0492 50.0452L29.0334 50.0435L29.0409 50.0647L29.0568 50.0665L29.0647 50.0877L29.0489 50.0856L29.056 50.1055L29.0801 50.1085L29.1154 50.2052L29.0306 50.2941L28.9954 50.1974Z" fill="#C9C9C9"/>
<path d="M29.0041 50.2909L29.0306 50.2944L29.0497 50.2744C29.0481 50.2879 29.0504 50.3035 29.0568 50.3208C29.0762 50.3741 29.1277 50.4218 29.1713 50.4275L29.1851 50.4652L29.1003 50.5541L29.0041 50.2909Z" fill="#404040"/>
<path d="M29.0869 50.5166L29.1717 50.4277L29.1855 50.4655L29.1007 50.5543L29.0869 50.5166Z" fill="#919191"/>
<path d="M29.0445 50.2793L29.1403 50.5412L29.1372 50.5447L29.0413 50.2832L29.0445 50.2793Z" fill="#A6A6A6"/>
<path d="M29.0413 50.2832L29.0306 50.294L29.0041 50.2906L29.1007 50.5542L29.1372 50.5447L29.0413 50.2832Z" fill="#F2F2F2"/>
<path d="M28.9332 50.0904L29.0179 50.0015L29.0254 50.0227L28.9407 50.1116L28.9332 50.0904Z" fill="#919191"/>
<path d="M28.9411 50.0523L28.9251 50.069L28.9181 50.0493L28.9411 50.0523Z" fill="#919191"/>
<path d="M28.9486 50.1328L29.0334 50.0439L29.0409 50.0652L28.9566 50.1541L28.9486 50.1328Z" fill="#919191"/>
<path d="M28.9637 50.1734L29.0484 50.0845L29.056 50.1057L28.9712 50.1946L28.9637 50.1734Z" fill="#919191"/>
<path d="M28.85 49.9326L28.9011 49.9391L28.9423 50.0523L28.9181 50.0493L28.9253 50.0692L28.9411 50.0714L28.949 50.0926L28.9332 50.0904L28.9411 50.1117L28.957 50.1139L28.9649 50.1351L28.949 50.133L28.957 50.1542L28.9728 50.1564L28.9807 50.1776L28.9649 50.1754L28.972 50.1954L28.9962 50.1984L29.0314 50.2951L29.0049 50.2917L29.1011 50.5553C29.058 50.5562 29.0255 50.5752 29.0065 50.6078L28.9197 50.5271L28.85 49.9326Z" fill="#E3E3E3"/>
<path d="M28.9408 50.0708L29.0256 49.9819L29.0335 50.0032L28.9488 50.0921L28.9408 50.0708Z" fill="#C9C9C9"/>
<path d="M28.9411 50.0711L29.0259 49.9822L29.0108 49.9805L28.9423 50.0525H28.9415L28.9253 50.0694L28.9411 50.0711Z" fill="#A6A6A6"/>
<path d="M28.9563 50.1133L29.0411 50.0244L29.049 50.0452L28.9642 50.1346L28.9563 50.1133Z" fill="#C9C9C9"/>
<path d="M28.9566 50.1135L29.0413 50.0246L29.0255 50.0225L28.9407 50.1113L28.9566 50.1135Z" fill="#A6A6A6"/>
<path d="M28.9718 50.1553L29.0565 50.0664L29.0645 50.0877L28.9797 50.1765L28.9718 50.1553Z" fill="#C9C9C9"/>
<path d="M28.972 50.1556L29.0568 50.0667L29.0409 50.0649L28.9566 50.1538L28.972 50.1556Z" fill="#A6A6A6"/>
<path d="M28.9954 50.1974L29.0801 50.1085L29.056 50.1055L28.9712 50.1944L28.9954 50.1974Z" fill="#A6A6A6"/>
<path d="M30.0197 51.9828C29.8462 51.6298 29.4454 51.0132 29.4454 51.0132C29.4252 51.0604 29.3804 51.086 29.3174 51.0782C29.4477 51.2985 29.5531 51.4464 29.7321 51.7633C29.8363 51.9481 30.0193 52.2555 30.1048 52.6883C30.1227 52.7789 30.1599 52.9281 30.2312 52.9719C30.3025 53.0156 30.2969 52.9744 30.2823 52.8474C30.2672 52.7199 30.1932 52.3357 30.0197 51.9828Z" fill="#FFBB00"/>
<path d="M29.5376 51.158C29.4822 51.0709 29.4458 51.0145 29.445 51.0132L29.5297 50.9243C29.5297 50.9243 29.5666 50.9807 29.6224 51.0691C29.6224 51.0691 29.6022 51.1273 29.5376 51.158Z" fill="#F09300"/>
<path d="M30.0197 51.9829C29.8985 51.7366 29.6668 51.362 29.5376 51.1577L29.4727 51.1846C29.4576 51.1907 29.4576 51.2136 29.4723 51.2366C29.5662 51.3836 29.8862 51.8927 30.0137 52.2023C30.0838 52.3719 30.2106 52.7712 30.2019 52.9455C30.211 52.9559 30.2209 52.9646 30.2312 52.9711C30.3025 53.0149 30.2969 52.9737 30.2823 52.8467C30.2672 52.72 30.1932 52.3359 30.0197 51.9829Z" fill="#1C72D9"/>
<path d="M30.2724 52.9884C30.2989 52.988 30.293 52.9412 30.2823 52.8471C30.2676 52.72 30.1932 52.3354 30.0197 51.9824C29.8989 51.7361 29.6668 51.3615 29.5376 51.1573C29.6026 51.1265 29.6224 51.0684 29.6224 51.0684C29.7515 51.2726 29.9832 51.6473 30.1044 51.8935C30.2779 52.2465 30.352 52.6311 30.367 52.7582C30.3746 52.8241 30.3762 52.8657 30.3702 52.8861C30.3623 52.913 30.3041 52.9884 30.2724 52.9884Z" fill="#0258BF"/>
<path d="M31.9161 53.3478V55.7805L31.751 55.6764L27.3524 52.896L27.1873 52.7919V50.3589L31.9161 53.3478Z" fill="#DE3222"/>
<path d="M32.8141 51.2312C32.866 51.1089 32.9487 51.0035 33.0363 50.9485C33.1099 50.9016 33.1801 50.8947 33.2316 50.9276C33.2415 50.9337 33.2502 50.9415 33.2585 50.9506L34.1564 51.9319V54.3645L31.9161 55.7807V53.3481L32.8141 51.2312Z" fill="#FB4432"/>
<path d="M32.9067 51.5384C32.978 51.5835 33.0941 51.5102 33.1654 51.3749C33.2367 51.2392 33.2367 51.0931 33.1654 51.048C33.0941 51.0029 32.978 51.0762 32.9067 51.2115C32.8354 51.3467 32.8354 51.4933 32.9067 51.5384Z" fill="#404040"/>
<path d="M27.4808 50.3823L27.3524 50.4634L31.751 53.2438L31.8052 53.1159L27.4808 50.3823Z" fill="#FB4432"/>
<path opacity="0.5" d="M31.8052 53.1158L31.751 53.2437V53.0815L31.8052 53.1158Z" fill="black"/>
<path d="M28.3422 48.3263C28.4139 48.1902 28.53 48.1169 28.6021 48.1624C28.6702 48.2054 32.4691 50.6068 32.8584 50.8526C32.7753 50.9099 32.6984 51.0105 32.6489 51.1271L32.5653 51.324C32.1665 51.072 28.41 48.6975 28.3422 48.6546C28.2705 48.6095 28.2705 48.4625 28.3422 48.3263Z" fill="#2B2B2B"/>
<path opacity="0.3" d="M32.6557 51.1115L28.3209 48.3719C28.3272 48.3567 28.3343 48.3415 28.3422 48.3263C28.3644 48.2839 28.3914 48.2474 28.4195 48.2192L32.7499 50.9563C32.7139 51.0014 32.6814 51.0543 32.6557 51.1115Z" fill="white"/>
<path d="M32.172 11.2487C32.2306 11.286 32.3257 11.2257 32.3843 11.1142C32.4429 11.0028 32.4429 10.8827 32.3843 10.8458C32.3257 10.809 32.2306 10.8688 32.172 10.9803C32.1134 11.0913 32.1134 11.2118 32.172 11.2487Z" fill="#363636"/>
<path d="M32.1162 10.9451C32.1748 10.8337 32.2698 10.7738 32.3285 10.8107C32.3455 10.8215 32.3843 10.8458 32.3843 10.8458C32.3257 10.8089 32.2306 10.8688 32.172 10.9802C32.1134 11.0917 32.1134 11.2118 32.172 11.2486C32.172 11.2486 32.1371 11.2265 32.1162 11.2135C32.0575 11.1767 32.0575 11.0565 32.1162 10.9451Z" fill="#666666"/>
<path d="M31.8318 10.7659C31.8516 10.7286 31.8833 10.7087 31.9027 10.7208C31.9027 10.7208 32.0417 10.8084 32.1581 10.8821C32.1431 10.9008 32.1288 10.922 32.1166 10.9455C32.1039 10.9693 32.0948 10.9932 32.0876 11.017C31.9712 10.9433 31.8322 10.8553 31.8322 10.8553C31.812 10.8431 31.812 10.8028 31.8318 10.7659Z" fill="#363636"/>
<path opacity="0.1" d="M34.4012 37.6323L28.7847 41.1824L38.6956 47.4495L39.7326 47.4513L40.1041 47.3806L44.9593 44.3084L34.4012 37.6323ZM32.6113 42.5878L36.8094 39.9344L37.3588 40.2818L33.1607 42.9351L32.6113 42.5878ZM34.2265 43.6085L38.4247 40.9552L38.9741 41.3025L34.7759 43.9558L34.2265 43.6085ZM35.8418 44.6297L40.0399 41.9763L40.5893 42.3237L36.3912 44.977L35.8418 44.6297ZM38.0064 45.9977L37.457 45.6504L41.6552 42.9971L42.2046 43.3444L38.0064 45.9977Z" fill="black"/>
<path d="M34.724 38.1252L34.3006 37.6196L39.5302 26.0766C39.542 26.0501 39.5587 26.031 39.5785 26.0185C39.6442 25.9773 39.746 26.0137 39.8363 26.1212C39.9532 26.2609 40.0059 26.4673 39.9536 26.5822L34.724 38.1252Z" fill="#C9C9C9"/>
<path d="M40.0597 25.9809C39.9694 25.8729 39.8672 25.8365 39.8015 25.8781C39.7821 25.8902 39.5789 26.019 39.5789 26.019C39.6446 25.9778 39.7464 26.0143 39.8367 26.1218C39.9536 26.2614 40.0062 26.4678 39.954 26.5827L34.724 38.1257L34.947 37.9848L40.1766 26.4418C40.2288 26.3269 40.1766 26.1205 40.0597 25.9809Z" fill="#A1A1A1"/>
<path d="M44.3446 44.5362L44.768 44.5657L38.3205 22.1848C38.2686 22.004 38.1316 21.8509 38.0147 21.8431C37.9878 21.8413 37.9644 21.847 37.945 21.8596C37.8793 21.9012 37.8571 22.0165 37.8975 22.1557L44.3446 44.5362Z" fill="#C9C9C9"/>
<path d="M39.5132 26.6574C39.5132 26.758 39.4486 26.7983 39.3694 26.7485C39.2898 26.6982 39.2256 26.5763 39.2256 26.4757C39.2256 26.3751 39.2902 26.3348 39.3694 26.3846C39.449 26.4349 39.5132 26.5572 39.5132 26.6574Z" fill="#666666"/>
<path d="M38.6925 21.9494C38.6406 21.7686 38.5035 21.6155 38.3867 21.6077C38.3601 21.606 38.3372 21.6116 38.3177 21.6238C38.2516 21.665 37.945 21.8592 37.945 21.8592C37.9644 21.8471 37.9878 21.841 38.0147 21.8428C38.1316 21.851 38.2686 22.0041 38.3205 22.1844L44.768 44.5654L45.14 44.3304L38.6925 21.9494Z" fill="#F7F7F7"/>
<path d="M36.8388 32.7834L33.3778 30.5958L37.6179 27.916L41.0789 30.1032L36.8388 32.7834Z" fill="#D46D17"/>
<path opacity="0.4" d="M36.4229 29.5584C37.4947 28.8811 38.9234 28.6859 39.6145 29.1226C40.3057 29.5592 39.9968 30.4625 38.925 31.1398C37.8531 31.8171 36.4244 32.0122 35.7333 31.5756C35.0421 31.1389 35.351 30.2357 36.4229 29.5584Z" fill="black"/>
<path d="M36.8388 33.2594L33.3778 31.0718V30.5957L36.8388 32.7833V33.2594Z" fill="#A14D02"/>
<path d="M34.282 31.2766C34.2258 31.1699 34.1347 31.1127 34.0788 31.1482C34.0226 31.1838 33.9212 31.2475 33.9212 31.2475L34.0464 31.6825C34.0464 31.6825 34.2258 31.5693 34.282 31.5337C34.3383 31.4982 34.3383 31.3828 34.282 31.2766Z" fill="#303030"/>
<path d="M36.8388 33.2594L41.0789 30.5791V30.103L36.8388 32.7832V33.2594Z" fill="#BF5902"/>
<path d="M37.5473 35.4748L36.2007 34.6236L40.4408 31.9434L41.7875 32.7946L37.5473 35.4748Z" fill="#D46D17"/>
<path d="M37.5473 35.9426L36.2007 35.0914V34.6235L37.5473 35.4747V35.9426Z" fill="#A14D02"/>
<path d="M37.5474 35.942L41.7875 33.2618V32.7939L37.5474 35.4742V35.942Z" fill="#BF5902"/>
<path d="M38.536 38.9054L37.1893 38.0542L41.4294 35.374L42.7761 36.2252L38.536 38.9054Z" fill="#D46D17"/>
<path d="M38.536 39.3733L37.1893 38.5221V38.0542L38.536 38.9054V39.3733Z" fill="#A14D02"/>
<path d="M38.536 39.3732L42.7761 36.693V36.2251L38.536 38.9053V39.3732Z" fill="#BF5902"/>
<path d="M39.5246 42.3357L38.1779 41.4845L42.4181 38.8047L43.7648 39.6559L39.5246 42.3357Z" fill="#D46D17"/>
<path d="M39.5246 42.8034L38.1779 41.9523V41.4844L39.5246 42.3356V42.8034Z" fill="#A14D02"/>
<path d="M39.5247 42.8034L43.7648 40.1236V39.6558L39.5247 42.3356V42.8034Z" fill="#BF5902"/>
<path d="M40.5133 45.7668L39.1666 44.9156L43.4071 42.2354L44.7538 43.0866L40.5133 45.7668Z" fill="#D46D17"/>
<path d="M40.5133 46.2346L39.1666 45.3834V44.9155L40.5133 45.7667V46.2346Z" fill="#A14D02"/>
<path d="M40.5133 46.235L44.7538 43.5548V43.0869L40.5133 45.7671V46.235Z" fill="#BF5902"/>
<path d="M35.4655 36.2508L35.1692 35.897L30.9739 38.5486L30.6305 39.307L35.4655 36.2508Z" fill="#E3E3E3"/>
<path d="M30.6305 39.3071L35.4655 36.251L35.3106 36.5931L30.4756 39.6493L30.6305 39.3071Z" fill="#C9C9C9"/>
<path d="M34.0804 24.8644L34.1259 25.0227C34.1259 25.0227 38.1684 22.4678 38.2417 22.4214C38.315 22.375 38.315 22.225 38.2417 22.0858C38.1684 21.947 38.0496 21.8716 37.9763 21.918C37.9034 21.9644 33.8598 24.5201 33.8324 24.5371C33.933 24.5808 34.0364 24.7131 34.0804 24.8644Z" fill="#404040"/>
<path opacity="0.2" d="M34.063 24.8215L38.271 22.1617C38.2627 22.1365 38.2544 22.1113 38.2413 22.0862C38.2286 22.0619 38.2132 22.0424 38.1981 22.0225L33.9909 24.6819C34.0202 24.7235 34.044 24.7708 34.063 24.8215Z" fill="white"/>
<path d="M39.7326 47.4517L40.156 47.4812L33.7085 25.1003C33.6566 24.9195 33.5196 24.7668 33.4027 24.7586C33.3758 24.7569 33.3524 24.7629 33.3326 24.7751C33.2673 24.8167 33.2451 24.9316 33.2851 25.0708L39.7326 47.4517Z" fill="#E3E3E3"/>
<path d="M35.8573 32.8703C35.8573 32.9704 35.7927 33.0112 35.7135 32.9613C35.6339 32.911 35.5697 32.7892 35.5697 32.6886C35.5697 32.588 35.6343 32.5477 35.7135 32.5975C35.7927 32.6478 35.8573 32.7701 35.8573 32.8703Z" fill="#666666"/>
<path d="M34.0804 24.8649C34.0285 24.6841 33.8915 24.531 33.7747 24.5232C33.7473 24.5215 33.7236 24.5276 33.7038 24.5406C33.6388 24.5831 33.3326 24.7752 33.3326 24.7752C33.352 24.7626 33.3758 24.7565 33.4027 24.7587C33.5196 24.7669 33.6566 24.92 33.7085 25.1004L40.156 47.4813L40.528 47.2463L34.0804 24.8649Z" fill="#F7F7F7"/>
<path d="M29.5167 41.4167L29.0933 40.9111L34.3232 29.3681C34.3351 29.3416 34.3517 29.3226 34.3711 29.31C34.4369 29.2688 34.5391 29.3052 34.629 29.4127C34.7458 29.5524 34.7985 29.7588 34.7466 29.8737L29.5167 41.4167Z" fill="#E3E3E3"/>
<path d="M34.8524 29.2724C34.7628 29.1653 34.6615 29.1284 34.5957 29.1688C34.5755 29.1809 34.3711 29.3106 34.3711 29.3106C34.4369 29.2694 34.5391 29.3058 34.629 29.4133C34.7458 29.5529 34.7985 29.7594 34.7466 29.8743L29.5167 41.4173L29.7401 41.2763L34.9696 29.7333C35.0219 29.6184 34.9692 29.412 34.8524 29.2724Z" fill="#C9C9C9"/>
<path d="M34.6781 29.7135C34.6781 29.8141 34.6136 29.8545 34.5343 29.8046C34.4547 29.7543 34.3906 29.6324 34.3906 29.5318C34.3906 29.4312 34.4551 29.3909 34.5343 29.4408C34.6136 29.4911 34.6781 29.6134 34.6781 29.7135Z" fill="#666666"/>
<path d="M33.7291 31.8075C33.7291 31.9081 33.6645 31.9485 33.5853 31.8986C33.5057 31.8483 33.4415 31.7265 33.4415 31.6259C33.4415 31.5257 33.5057 31.4849 33.5853 31.5352C33.6649 31.5851 33.7291 31.7074 33.7291 31.8075Z" fill="#666666"/>
<path d="M33.0929 13.006L33.2795 12.895L32.3459 13.7102C32.3269 13.7267 32.3063 13.7419 32.2849 13.7545L32.2354 13.7839C32.2164 13.7952 32.1942 13.8056 32.1716 13.8104L33.0929 13.006Z" fill="#962121"/>
<path d="M32.0195 13.5467L32.9266 12.7549L33.0929 13.0068L32.172 13.8112C32.1399 13.8177 32.1075 13.8116 32.0833 13.7752L32.0057 13.6573C31.9827 13.6221 31.9886 13.5736 32.0195 13.5467Z" fill="#C92C2C"/>
<path d="M33.0929 13.006L33.2795 12.895L33.1131 12.6431L32.9266 12.7545L33.0929 13.006Z" fill="#B22727"/>
<path d="M33.8455 12.3497L34.0324 12.2383L33.8657 11.9863L33.6791 12.0973L33.8455 12.3497Z" fill="#B7A771"/>
<path d="M33.6792 12.0967L32.9266 12.7545L33.0929 13.006L33.8455 12.349L33.6792 12.0967Z" fill="#EFE1BC"/>
<path d="M33.0929 13.0067L33.2795 12.8957L34.0324 12.2383L33.8455 12.3497L33.0929 13.0067Z" fill="#D9CCB9"/>
<path d="M34.2638 12.7619L34.4503 12.6509L34.4725 12.6313L34.286 12.7428L34.2638 12.7619Z" fill="#303030"/>
<path d="M34.2859 12.7427L34.4725 12.6312L34.3473 12.2236L34.1608 12.3351L34.2859 12.7427Z" fill="#666666"/>
<path d="M33.7124 11.6572L33.5476 11.8012C33.5251 11.8211 33.5203 11.8571 33.5373 11.8827L33.6791 12.0969L33.8459 12.3489L33.9548 12.5145L34.2638 12.7621L34.2859 12.7426L34.1608 12.335L33.7124 11.6572Z" fill="#363636"/>
<path d="M34.1608 12.3348L34.3474 12.2238L33.9271 11.5886C33.9109 11.5643 33.8812 11.5569 33.857 11.5712L33.7124 11.6575L34.1608 12.3348Z" fill="#4A4A4A"/>
<path d="M34.1077 12.1218L34.1616 12.0889C34.1782 12.0784 34.1834 12.0546 34.1719 12.0377L34.0428 11.8426C34.0333 11.8282 34.0154 11.8239 34.0012 11.8326L33.9473 11.8655C33.9307 11.8759 33.9255 11.8998 33.937 11.9167L34.0661 12.1118C34.0756 12.1261 34.0935 12.1305 34.1077 12.1218Z" fill="#CFBD80"/>
<path d="M34.4848 12.4262C34.488 12.4188 34.4915 12.4114 34.4975 12.4067C34.5046 12.4006 34.5145 12.3997 34.5236 12.3997C34.6199 12.3997 34.7058 12.4765 34.7498 12.5701C34.7684 12.6092 34.7803 12.6508 34.789 12.6937C34.7886 12.6105 34.7934 12.5276 34.7831 12.4453C34.7696 12.3364 34.7533 12.2762 34.6896 12.1495C34.6555 12.0815 34.608 12.0099 34.623 11.934C34.6262 11.9184 34.6321 11.9028 34.6424 11.8915C34.6626 11.869 34.6947 11.8664 34.7232 11.8681C34.8187 11.8737 34.9839 11.9041 35.1162 12.0051C35.2714 12.1239 35.4116 12.2389 35.5031 12.6694C35.5344 12.8177 35.5277 12.9734 35.5087 13.1243C35.4893 13.2748 35.4382 13.4239 35.3423 13.5341C35.3308 13.5471 35.2631 13.5835 35.2417 13.5866C35.1463 13.5996 35.0453 13.6013 34.9585 13.5558C34.9221 13.5367 34.8896 13.5098 34.8591 13.4807C34.6995 13.329 34.5953 13.1096 34.5731 12.8793C34.568 12.8238 34.5668 12.767 34.5462 12.7163C34.5296 12.6751 34.5014 12.6408 34.4848 12.5996C34.4614 12.5454 34.4618 12.4804 34.4848 12.4262Z" fill="#FFCEA1"/>
<path d="M34.7319 13.4093C34.7838 13.2948 34.8654 13.1951 34.9732 13.1253C35.0971 13.0451 35.2358 13.0169 35.3681 13.0351C35.4291 13.0433 35.4889 13.0616 35.5451 13.0889C35.6592 13.1444 35.759 13.238 35.8275 13.3642C35.8275 13.3642 37.0487 15.6195 37.0491 15.6204C37.3212 16.1234 36.8946 16.7656 36.3721 16.6333C36.207 16.5917 36.0624 16.4755 35.9761 16.3159L34.7549 14.0602C34.6432 13.8538 34.642 13.6097 34.7319 13.4093Z" fill="#D9B9AE"/>
<path d="M36.2803 15.3615C35.9669 15.5176 35.8283 15.9222 35.9709 16.2656C36.1135 16.6086 36.5932 16.7105 36.9065 16.5548L38.8386 15.5332C39.1519 15.3771 39.2905 14.9726 39.1479 14.6296C39.0053 14.2866 38.6358 14.1348 38.3221 14.2909L36.2803 15.3615Z" fill="#D9B9AE"/>
<path d="M37.8306 28.9195C37.8306 28.5401 38.239 28.3302 38.8454 28.5063L39.4617 28.3515C39.6657 28.3003 39.8597 28.4698 39.8597 28.6988V29.5881L39.8542 29.5864C39.8625 29.6705 39.8205 29.756 39.7187 29.8201C39.5306 29.9389 39.226 29.9389 39.0379 29.8201L37.9716 29.1463C37.8738 29.0843 37.8294 29.0023 37.8338 28.9212L37.8306 28.9195Z" fill="black"/>
<path d="M39.4252 24.5562L37.7517 24.5805L37.7509 24.5402L37.7252 22.4306L37.6923 19.7552L39.2838 19.7305C39.2838 19.7305 39.5524 20.2738 39.5524 21.2742C39.5524 22.1319 39.3987 22.6414 39.4201 24.1651L39.4252 24.5562Z" fill="#0258BF"/>
<path d="M37.7522 24.5406C37.7874 24.211 38.0072 23.6486 38.3015 23.5684C38.5451 23.5021 38.797 23.6239 39.0141 23.7627C39.1682 23.8611 39.331 24.3906 39.4256 24.5562C39.4411 25.3541 39.6617 26.9277 39.9405 28.6392C39.9536 28.7719 39.8863 28.9141 39.7362 29.0342C39.4355 29.2744 38.9163 29.3356 38.5756 29.1708C38.4053 29.0884 38.3122 28.9648 38.2996 28.8322C38.2362 28.6479 37.7169 24.8702 37.7522 24.5406Z" fill="#0258BF"/>
<path d="M39.7647 27.5268L39.7112 27.1704C39.7259 27.3044 39.6724 27.444 39.5219 27.5672C39.2209 27.8135 38.6972 27.8815 38.3518 27.7194C38.1851 27.6409 38.096 27.5229 38.077 27.3942L38.1253 27.738C38.1447 27.8746 38.2263 27.9947 38.399 28.0758C38.7444 28.238 39.2684 28.1699 39.569 27.9236C39.7195 27.8005 39.7857 27.6643 39.7647 27.5268Z" fill="#FFC50C"/>
<path opacity="0.2" d="M38.5305 22.1162C38.1447 22.6483 37.892 24.0411 37.8896 25.9659C37.8405 25.472 37.7763 25.2617 37.751 24.5397L37.7252 22.4302C38.0156 22.4302 38.3063 22.3191 38.5305 22.1162Z" fill="#1D1D1B"/>
<path d="M35.6592 30.3049C35.6592 29.9255 36.0676 29.7156 36.674 29.8912L37.1802 29.7642C37.4404 29.6987 37.6884 29.9151 37.6884 30.2074V30.9731L37.6828 30.9714C37.6912 31.0555 37.6492 31.1409 37.5474 31.2051C37.3592 31.3239 37.0547 31.3239 36.8665 31.2051L35.8002 30.5313C35.702 30.4693 35.658 30.3873 35.6624 30.3062L35.6592 30.3049Z" fill="black"/>
<path d="M36.4279 20.5856L35.9439 25.3828L37.6073 25.584L38.0914 20.7867L36.4279 20.5856Z" fill="#0258BF"/>
<path d="M35.9321 25.4267C35.9915 25.1011 36.2379 24.853 36.5373 24.7993C36.7853 24.7546 37.0273 24.8986 37.2333 25.0555C37.3794 25.1674 37.5169 25.415 37.5989 25.5885C37.5383 26.5251 37.6888 28.5679 37.7763 30.0769C37.7684 30.21 37.6801 30.3375 37.5133 30.4277C37.1794 30.6081 36.6581 30.5703 36.3488 30.3444C36.1939 30.2312 36.1218 30.0925 36.1298 29.9589C36.0799 29.7703 35.8727 25.7519 35.9321 25.4267Z" fill="#0258BF"/>
<path d="M37.6848 28.5659C37.6836 28.7046 37.6155 28.8416 37.4515 28.9457C37.124 29.1539 36.5956 29.1482 36.272 28.9323C36.1155 28.8282 36.0395 28.7081 36.0312 28.5615L36.0514 28.924C36.0597 29.068 36.1151 29.195 36.2779 29.303C36.6039 29.519 37.1359 29.525 37.4658 29.3165C37.631 29.2124 37.7126 29.0806 37.7066 28.9414L37.6848 28.5659Z" fill="#FFC50C"/>
<path d="M39.3492 20.0264C39.4569 20.9071 36.4007 22.0649 36.373 21.0185C36.327 19.2936 36.1515 18.5257 36.0834 17.511C36.0082 16.5791 35.9483 15.8285 35.9483 15.8285C36.0921 15.4036 36.3646 15.0523 37.3636 14.5667C37.9189 14.2965 38.1779 14.2532 38.5843 14.2718C39.3258 14.3061 39.3959 15.2939 39.4213 15.9122C39.4494 16.5891 39.365 17.2365 39.3135 17.9073C39.2596 18.6133 39.2894 19.3222 39.3492 20.0264Z" fill="#0258BF"/>
<path d="M36.815 15.4151C37.3481 15.7273 37.2582 16.4511 37.2626 17.0993C37.2669 17.7476 36.8411 17.804 36.3658 17.6366C36.2648 17.6019 36.1401 17.5594 36.085 17.5104C36.0094 16.5798 35.9488 15.8279 35.9488 15.8279C35.9927 15.6983 36.0525 15.5751 36.1373 15.4529C36.3155 15.321 36.5433 15.2564 36.815 15.4151Z" fill="#E4C6BB"/>
<path opacity="0.1" d="M36.9065 16.6992C36.7013 16.7634 36.4605 16.887 36.327 17.0045C36.1935 17.122 36.0648 17.2789 36.085 17.5114L36.0026 16.4976L36.9065 16.6992Z" fill="#1D1D1B"/>
<path d="M36.4256 15.1434C36.6348 14.9652 36.9271 14.7792 37.3636 14.5667C37.6884 14.4089 37.911 14.3334 38.1217 14.2979C38.1641 14.3221 38.2061 14.3473 38.2504 14.3672C38.6802 14.558 38.8663 14.9552 38.9404 15.3524C38.9764 15.5462 38.8857 15.7422 38.7293 15.8411L38.4235 16.0345C38.1217 16.2253 37.7169 16.1217 37.5236 15.8038L37.4178 15.6299C37.2004 15.2744 36.8986 15.0762 36.5096 15.1213C36.4807 15.1243 36.4538 15.1365 36.4256 15.1434Z" fill="#E4C6BB"/>
<path d="M38.0385 13.0089C38.0286 13.2105 38.0183 13.4135 37.9767 13.6103C37.9351 13.8072 37.8602 13.9993 37.7351 14.148C37.5941 14.3149 37.3917 14.4151 37.1849 14.4277C37.1199 14.432 37.055 14.4277 36.9908 14.4138C36.927 14.3999 36.8637 14.377 36.8114 14.3349C36.7294 14.2699 36.6831 14.1667 36.6498 14.06V14.0595C36.6423 14.0357 36.6355 14.0119 36.6292 13.988C36.5543 13.7061 36.5119 13.4156 36.4929 13.1221C36.4866 13.0241 36.5306 12.9555 36.529 12.8571C36.5278 12.7825 36.4807 12.678 36.4818 12.6039C36.4838 12.4994 36.4878 12.3949 36.4941 12.2908C36.4989 12.2067 36.5052 12.1208 36.5294 12.0402C36.6007 11.8021 36.8237 11.6451 37.051 11.6144C37.2784 11.5836 37.5073 11.659 37.7145 11.7661C37.7711 11.7956 37.8281 11.8281 37.8733 11.8758C37.9165 11.9214 37.9474 11.9786 37.9874 12.028C38.0365 12.0883 38.0535 12.7053 38.0385 13.0089Z" fill="#FFCEA1"/>
<path opacity="0.1" d="M37.2241 13.9519C37.2245 14.0737 37.2217 14.1952 37.219 14.317C37.2182 14.343 37.2178 14.3703 37.2079 14.3942C37.2027 14.4072 37.1944 14.4185 37.1853 14.4276C37.1203 14.4319 37.0554 14.4276 36.9912 14.4137C36.9274 14.3998 36.8641 14.3768 36.8118 14.3348C36.7298 14.2697 36.6835 14.1665 36.6502 14.0599V14.0594C36.8641 14.2853 37.0011 14.0928 37.0514 13.4502C37.0879 13.7507 37.2241 13.6479 37.2241 13.9519Z" fill="#1D1D1B"/>
<path d="M38.3403 12.9043V14.7311C38.3403 14.8356 38.2773 14.9401 38.1514 15.0199C37.8995 15.1795 37.4915 15.1795 37.2396 15.0199C37.1136 14.9401 37.0506 14.8356 37.0506 14.7311V12.9043H38.3403Z" fill="#FFCEA1"/>
<path opacity="0.1" d="M38.3403 14.1838C38.3403 14.2875 38.2856 14.3829 38.1985 14.4236C38.0607 14.4882 37.8979 14.5225 37.7838 14.5242C37.6301 14.5264 37.4689 14.5182 37.3366 14.4327C37.1806 14.3317 37.0891 14.1877 37.0506 14.0061V13.5698H38.3399V14.1838H38.3403Z" fill="#1D1D1B"/>
<path d="M36.7603 12.4754C36.95 12.596 37.0356 12.8223 37.0558 13.0612C37.076 13.3006 37.0435 13.5421 37.0629 13.7815C37.0823 14.0208 37.1778 14.2051 37.3667 14.3274C37.499 14.4128 37.6602 14.4211 37.8139 14.4189C38.0151 14.4159 38.3684 14.3118 38.4682 14.118C39.4291 11.6129 37.9886 11.3996 37.6206 11.3727C36.9742 11.3254 36.1876 11.7534 36.4929 12.3102C36.5397 12.3952 36.6953 12.4338 36.7603 12.4754Z" fill="#2F2F2F"/>
<path d="M37.1053 12.9044C37.0344 12.9074 36.9817 12.9716 36.9595 13.0328C36.9318 13.1095 36.9318 13.1902 36.9326 13.2695C36.9334 13.3701 36.935 13.4746 36.9845 13.5626C36.9975 13.5861 37.0158 13.6095 37.0431 13.619C37.0843 13.6333 37.135 13.6116 37.1635 13.5787C37.192 13.5457 37.2035 13.5041 37.2122 13.4642C37.238 13.348 37.2506 13.23 37.2503 13.113C37.2499 13.0661 37.2475 13.018 37.2253 12.9768C37.2035 12.9352 37.1576 12.9022 37.1053 12.9044Z" fill="#FFCEA1"/>
<path d="M36.9065 16.699L34.1172 16.7472C34.0325 16.7489 33.9513 16.732 33.8768 16.6999C33.6831 16.6158 33.5362 16.4289 33.4946 16.1995C33.4875 16.16 33.4835 16.1188 33.4827 16.0768C33.4791 15.8756 33.556 15.6926 33.6808 15.5651C33.7893 15.4541 33.9342 15.3847 34.0943 15.3817L36.4894 15.334C37.1006 15.334 37.4333 16.6917 36.9065 16.699Z" fill="#E4C6BB"/>
<path d="M33.0347 13.2126C33.0656 13.1047 33.0882 13.0661 33.1278 13.008C33.1599 12.9611 33.2003 12.9087 33.2518 12.8944C33.2803 12.8865 33.3211 12.9056 33.3405 12.9295C33.3643 12.9585 33.3532 13.0041 33.3405 13.0405C33.3163 13.1112 33.2922 13.1823 33.2676 13.253C33.2407 13.3314 33.1832 13.4342 33.1642 13.5526C33.0977 13.4806 33.0066 13.3111 33.0347 13.2126Z" fill="#FFCEA1"/>
<path d="M32.5447 14.0365C32.7665 14.1306 32.8184 13.9975 32.9741 13.8839C33.0482 13.8297 33.1032 13.6944 33.144 13.6077C33.1927 13.5045 33.1797 13.377 33.1361 13.2712C33.0921 13.1654 33.0204 13.0769 32.9499 12.9902C32.902 12.9308 32.8402 12.802 32.7911 12.7435C32.6525 12.5787 32.5178 12.8012 32.4552 12.8484C32.3926 12.8953 32.3178 12.9629 32.2283 13.0635C32.1732 13.1251 32.0987 13.3219 32.1304 13.4499C32.1526 13.5396 32.1966 13.6576 32.2485 13.7443C32.3701 13.9472 32.4239 13.9854 32.5447 14.0365Z" fill="#FFCEA1"/>
<path d="M33.5813 16.4271L32.5392 14.6089C32.3566 14.2894 32.3229 14.0817 32.5047 13.8935C32.5047 13.8935 33.1971 13.1411 33.5187 13.7447L34.6381 15.7021V15.7025C34.7668 15.9276 34.7613 16.2034 34.644 16.4167C34.5949 16.506 34.5264 16.5841 34.4404 16.6431C34.1489 16.8434 33.7639 16.7467 33.5813 16.4271Z" fill="#E4C6BB"/>
<path d="M36.1904 11.2634C36.3777 11.1559 36.5932 11.0618 36.8562 11.1207C37.1192 11.1797 37.1105 11.2062 37.7169 11.5132L36.9885 12.8739L35.923 12.305C35.5954 12.1241 35.7689 11.5054 36.1904 11.2634Z" fill="#186FD9"/>
<path d="M36.6621 12.6777C36.8336 12.8343 37.055 12.9578 37.2938 13.0381C37.7343 13.1864 38.2076 13.1335 38.4991 12.9678C38.8806 12.751 38.9392 12.5771 38.856 12.0589C38.774 11.5468 38.2951 11.0495 37.9304 11.0018C37.4879 10.9441 36.9588 11.059 36.7342 11.4553C36.4327 11.987 36.4003 12.2068 36.4894 12.4232C36.5357 12.5364 36.6054 12.6179 36.6621 12.6777Z" fill="#0258BF"/>
<path d="M38.2753 12.9439C38.3015 12.9391 38.3177 12.9348 38.3383 12.9283C38.3874 12.9127 38.4346 12.891 38.4805 12.8663C38.5665 12.8203 38.6489 12.7609 38.7138 12.6833C38.7261 12.6681 38.7396 12.6538 38.7487 12.6356C38.761 12.6104 38.7566 12.5762 38.7554 12.5484C38.7542 12.5242 38.7514 12.4999 38.7447 12.4765C38.7352 12.4426 38.717 12.4105 38.6873 12.3949C38.6322 12.3659 38.5649 12.3967 38.5166 12.4279C38.5043 12.4357 38.4924 12.4435 38.4801 12.4504C38.3443 12.5311 38.2405 12.7041 38.2409 12.8984C38.2405 12.927 38.2496 12.9487 38.2753 12.9439Z" fill="#2F2F2F"/>
<path opacity="0.1" d="M36.9077 11.7593C36.8257 12.0962 36.8035 12.3382 36.8356 12.5246C36.8724 12.7401 36.9869 12.8824 37.2487 13.0233C37.0273 12.9426 36.8225 12.8251 36.6621 12.6786C36.6078 12.6213 36.5417 12.5437 36.4949 12.4379C36.6716 12.6061 36.7528 12.1998 36.9077 11.7593Z" fill="black"/>
<path d="M19.2706 17.7444C19.2904 17.7072 19.3221 17.6872 19.3415 17.6994C19.3415 17.6994 19.4806 17.7869 19.597 17.8607C19.582 17.8793 19.5677 17.9005 19.5554 17.924C19.5427 17.9478 19.5336 17.9717 19.5265 17.9955C19.4101 17.9218 19.2706 17.8338 19.2706 17.8338C19.2508 17.8221 19.2508 17.7817 19.2706 17.7444Z" fill="#363636"/>
<path d="M16.2596 21.0451C16.2331 21.0451 16.2069 21.033 16.1875 21.0096C16.153 20.9662 16.1566 20.8998 16.1958 20.8617L19.1578 17.9994C19.353 17.8112 19.5606 17.6806 19.7582 17.6217L22.7202 16.7397C22.7705 16.7241 22.824 16.7575 22.8378 16.813C22.8513 16.8689 22.8216 16.9266 22.7705 16.9417L19.8085 17.8237C19.6386 17.8745 19.4576 17.9894 19.2841 18.1563L16.3226 21.0187C16.3047 21.0364 16.2818 21.0451 16.2596 21.0451Z" fill="#404040"/>
<path d="M19.6109 18.2278C19.6695 18.2647 19.7646 18.2049 19.8232 18.0934C19.8818 17.982 19.8818 17.8619 19.8232 17.825C19.7646 17.7877 19.6695 17.848 19.6109 17.9594C19.5523 18.0709 19.5523 18.1905 19.6109 18.2278Z" fill="#363636"/>
<path d="M19.555 17.9236C19.6136 17.8122 19.7087 17.7523 19.7673 17.7892C19.7844 17.8 19.8232 17.8243 19.8232 17.8243C19.7645 17.787 19.6695 17.8473 19.6109 17.9587C19.5523 18.0702 19.5523 18.1903 19.6109 18.2271C19.6109 18.2271 19.576 18.205 19.555 18.192C19.4964 18.1552 19.4964 18.0351 19.555 17.9236Z" fill="#666666"/>
<path opacity="0.5" d="M14.3833 22.1784L14.3841 31.5538L24.3528 25.2533L24.3521 15.8779L14.3833 22.1784Z" fill="black"/>
<path d="M14.8618 21.9877L14.6515 21.855L14.6523 30.9571L14.8626 31.0898L14.8618 21.9877Z" fill="#A14D02"/>
<path d="M24.3303 15.7378L14.6515 21.8549L14.8618 21.9876L24.5402 15.8705L24.3303 15.7378Z" fill="#BF5902"/>
<path d="M14.8618 21.9877L14.8626 31.0899L24.541 24.9728L24.5402 15.8706L14.8618 21.9877Z" fill="#D46D17"/>
<path d="M15.4005 22.3282L15.1193 22.1509L15.1197 30.5978L15.4005 29.5632V22.3282Z" fill="#A14D02"/>
<path d="M23.6051 24.3779L15.4005 29.5632L15.1197 30.5978L24.2828 24.8063L23.6051 24.3779Z" fill="#BF5902"/>
<path d="M23.6047 17.1429L24.2828 16.3594L15.1193 22.1508L15.4005 22.3282L23.6047 17.1429Z" fill="#914502"/>
<path d="M23.6047 17.1429L23.6051 24.3779L24.2828 24.8063V16.3594L23.6047 17.1429Z" fill="#A14D02"/>
<path d="M15.4005 29.5628L23.6051 24.3775L23.6047 17.1426L15.4005 22.3278V29.5628Z" fill="#D9CCB9"/>
<path d="M24.1941 35.6025L25.9115 44.699L25.233 44.2932L23.7972 36.6879L24.1941 35.6025Z" fill="#A14D02"/>
<path d="M25.233 44.2935L25.9115 44.6993L16.1123 50.8927L16.5123 49.8057L25.233 44.2935Z" fill="#BF5902"/>
<path d="M23.7972 36.688L25.233 44.2933L16.5123 49.8055L15.0765 42.1997L23.7972 36.688Z" fill="#E3D6C1"/>
<path d="M14.3952 41.7964L15.0765 42.1997L16.5123 49.8054L16.1123 50.8925L14.3952 41.7964Z" fill="#A14D02"/>
<path d="M14.1873 41.6728L24.3192 35.269L26.1222 44.82L15.9903 51.2237L14.1873 41.6728ZM25.9115 44.699L24.194 35.6025L14.3952 41.7959L16.1127 50.8924L25.9115 44.699Z" fill="#D46D17"/>
<path d="M24.194 35.6025L23.7972 36.6879L15.0765 42.1996L14.3952 41.7964L24.194 35.6025Z" fill="#914502"/>
<path d="M14.1873 41.6733L13.992 41.6156L24.1239 35.2114L24.3192 35.2695L14.1873 41.6733Z" fill="#984902"/>
<path d="M15.9903 51.2243L15.795 51.1662L13.992 41.6152L14.1873 41.6729L15.9903 51.2243Z" fill="#A14D02"/>
<path opacity="0.2" d="M15.4167 49.1465L13.6117 50.2873L15.795 51.1663L15.4167 49.1465Z" fill="black"/>
<path opacity="0.5" d="M14.0066 41.6152L13.6117 50.2872L15.4167 49.1464L14.0066 41.6152Z" fill="black"/>
</svg>
