<svg width="105" height="71" viewBox="0 0 105 71" fill="none" xmlns="http://www.w3.org/2000/svg">
<path fill-rule="evenodd" clip-rule="evenodd" d="M105 11.268C89.2734 17.395 81.4102 24.594 81.4102 32.8655C88.1133 33.4782 93.6562 35.6481 98.0391 39.3753C102.422 43.1026 104.613 47.4169 104.613 52.3185C104.613 57.5264 102.486 61.9173 98.2324 65.4914C93.9785 69.0655 88.6289 70.8525 82.1836 70.8525C74.9648 70.8525 68.7129 68.5294 63.4277 63.8831C58.1426 59.2368 55.5 53.595 55.5 46.9574C55.5 27.0448 69.5506 11.4723 97.6524 0.239502L105 11.268ZM49.5 11.268C33.6445 17.395 25.7168 24.594 25.7168 32.8655C32.5489 33.4782 38.1562 35.6481 42.5391 39.3753C46.9219 43.1026 49.1133 47.4169 49.1133 52.3185C49.1133 57.5264 46.9541 61.9173 42.6357 65.4914C38.3174 69.0655 32.9356 70.8525 26.4902 70.8525C19.2714 70.8525 13.0518 68.5294 7.83106 63.8831C2.61033 59.2368 0 53.595 0 46.9574C0 27.0448 13.9862 11.4723 41.959 0.239502L49.5 11.268Z" fill="#5584E5"/>
</svg>
