<svg width="25" height="16" viewBox="0 0 25 16" fill="none" xmlns="http://www.w3.org/2000/svg">
<path d="M0.5 4.5C0.5 3.09987 0.5 2.3998 0.772484 1.86502C1.01217 1.39462 1.39462 1.01217 1.86502 0.772484C2.3998 0.5 3.09987 0.5 4.5 0.5H14C15.4001 0.5 16.1002 0.5 16.635 0.772484C17.1054 1.01217 17.4878 1.39462 17.7275 1.86502C18 2.3998 18 3.09987 18 4.5V11.5C18 12.9001 18 13.6002 17.7275 14.135C17.4878 14.6054 17.1054 14.9878 16.635 15.2275C16.1002 15.5 15.4001 15.5 14 15.5H4.5C3.09987 15.5 2.3998 15.5 1.86502 15.2275C1.39462 14.9878 1.01217 14.6054 0.772484 14.135C0.5 13.6002 0.5 12.9001 0.5 11.5V4.5Z" fill="#1461F0"/>
<path d="M24.25 7.2997V8.7003C24.25 10.574 24.25 11.5108 23.8578 12.1258C23.5144 12.6641 22.9781 13.0507 22.3588 13.2062C21.6875 13.3748 20.8527 13.1165 19.25 12.5833V3.41672C20.8527 2.88349 21.6875 2.62525 22.3588 2.79384C22.9781 2.94933 23.5144 3.33588 23.8578 3.87419C24.25 4.48916 24.25 5.42601 24.25 7.2997Z" fill="#1461F0"/>
</svg>
