<svg width="20" height="22" viewBox="0 0 20 22" fill="none" xmlns="http://www.w3.org/2000/svg">
<path d="M2 21.0125C1.45 21.0125 0.979167 20.8167 0.5875 20.425C0.195833 20.0334 0 19.5625 0 19.0125V5.01255C0 4.46255 0.195833 3.99172 0.5875 3.60005C0.979167 3.20838 1.45 3.01255 2 3.01255H10.925L8.925 5.01255H2V19.0125H16V12.0625L18 10.0625V19.0125C18 19.5625 17.8042 20.0334 17.4125 20.425C17.0208 20.8167 16.55 21.0125 16 21.0125H2ZM6 15.0125V10.7625L15.175 1.58755C15.375 1.38755 15.6 1.23755 15.85 1.13755C16.1 1.03755 16.35 0.987549 16.6 0.987549C16.8667 0.987549 17.1208 1.03755 17.3625 1.13755C17.6042 1.23755 17.825 1.38755 18.025 1.58755L19.425 3.01255C19.6083 3.21255 19.75 3.43338 19.85 3.67505C19.95 3.91672 20 4.16255 20 4.41255C20 4.66255 19.9542 4.90838 19.8625 5.15005C19.7708 5.39172 19.625 5.61255 19.425 5.81255L10.25 15.0125H6ZM8 13.0125H9.4L15.2 7.21255L14.5 6.51255L13.775 5.81255L8 11.5875V13.0125Z" fill="#1461F0"/>
</svg>
