<svg width="21" height="21" viewBox="0 0 21 21" fill="none" xmlns="http://www.w3.org/2000/svg">
<path d="M4.25 12.5H12.25V10.5H4.25V12.5ZM4.25 9.5H16.25V7.5H4.25V9.5ZM4.25 6.5H16.25V4.5H4.25V6.5ZM0.25 20.5V2.5C0.25 1.95 0.445833 1.47917 0.8375 1.0875C1.22917 0.695833 1.7 0.5 2.25 0.5H18.25C18.8 0.5 19.2708 0.695833 19.6625 1.0875C20.0542 1.47917 20.25 1.95 20.25 2.5V14.5C20.25 15.05 20.0542 15.5208 19.6625 15.9125C19.2708 16.3042 18.8 16.5 18.25 16.5H4.25L0.25 20.5ZM3.4 14.5H18.25V2.5H2.25V15.625L3.4 14.5Z" fill="#939393"/>
</svg>
