<svg width="22" height="22" viewBox="0 0 22 22" fill="none" xmlns="http://www.w3.org/2000/svg">
<path d="M6.22532 7.19394C7.02025 8.84961 8.1039 10.4014 9.47627 11.7737C10.8486 13.1461 12.4004 14.2297 14.0561 15.0247C14.1985 15.0931 14.2697 15.1272 14.3598 15.1535C14.68 15.2468 15.0732 15.1798 15.3444 14.9856C15.4207 14.931 15.4859 14.8657 15.6165 14.7351C16.0158 14.3358 16.2154 14.1362 16.4162 14.0057C17.1733 13.5134 18.1494 13.5134 18.9065 14.0057C19.1072 14.1362 19.3069 14.3358 19.7062 14.7351L19.9288 14.9577C20.5357 15.5647 20.8392 15.8682 21.0041 16.1941C21.332 16.8424 21.332 17.6079 21.0041 18.2561C20.8392 18.5821 20.5357 18.8856 19.9288 19.4925L19.7487 19.6726C19.1438 20.2775 18.8414 20.5799 18.4302 20.8109C17.9739 21.0672 17.2652 21.2515 16.7418 21.25C16.2702 21.2486 15.9479 21.1571 15.3032 20.9741C11.8386 19.9908 8.56941 18.1354 5.842 15.408C3.1146 12.6806 1.25923 9.41138 0.275881 5.94682C0.0929027 5.30215 0.00141253 4.97981 9.79795e-06 4.50817C-0.00154774 3.98482 0.18275 3.27613 0.439069 2.81984C0.670064 2.40863 0.972515 2.10618 1.57742 1.50128L1.75746 1.32124C2.36444 0.714257 2.66793 0.410767 2.99387 0.245905C3.64211 -0.0819684 4.40764 -0.0819684 5.05588 0.245905C5.38182 0.410766 5.68531 0.714256 6.29229 1.32124L6.51486 1.54381C6.91416 1.9431 7.11381 2.14275 7.24434 2.34352C7.73659 3.10063 7.73659 4.07668 7.24434 4.83379C7.11381 5.03455 6.91416 5.2342 6.51486 5.6335C6.3843 5.76406 6.31902 5.82934 6.26438 5.90565C6.0702 6.17683 6.00316 6.57002 6.09649 6.89022C6.12276 6.98032 6.15695 7.05153 6.22532 7.19394Z" fill="#1461F0"/>
</svg>
