<svg width="41" height="40" viewBox="0 0 41 40" fill="none" xmlns="http://www.w3.org/2000/svg">
<rect x="0.5" width="40" height="40" rx="20" fill="#FDCEB0"/>
<circle cx="20.5" cy="20" r="16" fill="#FC9554"/>
<path d="M15.6667 25.3334C15.3 25.3334 14.9862 25.203 14.7253 24.9421C14.4644 24.6812 14.3338 24.3672 14.3333 24.0001V21.7501C14.3333 21.6279 14.3722 21.5223 14.45 21.4334C14.5278 21.3445 14.6278 21.289 14.75 21.2667C15.0167 21.1779 15.2362 21.0167 15.4087 20.7834C15.5811 20.5501 15.6671 20.289 15.6667 20.0001C15.6662 19.7112 15.5802 19.4501 15.4087 19.2167C15.2371 18.9834 15.0176 18.8223 14.75 18.7334C14.6278 18.7112 14.5278 18.6556 14.45 18.5667C14.3722 18.4779 14.3333 18.3723 14.3333 18.2501V16.0001C14.3333 15.6334 14.464 15.3196 14.7253 15.0587C14.9867 14.7979 15.3004 14.6672 15.6667 14.6667H26.3333C26.7 14.6667 27.014 14.7974 27.2753 15.0587C27.5367 15.3201 27.6671 15.6339 27.6667 16.0001V18.2501C27.6667 18.3723 27.6278 18.4779 27.55 18.5667C27.4722 18.6556 27.3722 18.7112 27.25 18.7334C26.9833 18.8223 26.764 18.9834 26.592 19.2167C26.42 19.4501 26.3338 19.7112 26.3333 20.0001C26.3329 20.289 26.4191 20.5501 26.592 20.7834C26.7649 21.0167 26.9842 21.1779 27.25 21.2667C27.3722 21.289 27.4722 21.3445 27.55 21.4334C27.6278 21.5223 27.6667 21.6279 27.6667 21.7501V24.0001C27.6667 24.3667 27.5362 24.6807 27.2753 24.9421C27.0144 25.2034 26.7004 25.3339 26.3333 25.3334H15.6667ZM15.6667 24.0001H26.3333V22.3001C25.9222 22.0556 25.5971 21.7307 25.358 21.3254C25.1189 20.9201 24.9995 20.4783 25 20.0001C25.0004 19.5219 25.12 19.0803 25.3587 18.6754C25.5973 18.2705 25.9222 17.9454 26.3333 17.7001V16.0001H15.6667V17.7001C16.0778 17.9445 16.4029 18.2696 16.642 18.6754C16.8811 19.0812 17.0004 19.5227 17 20.0001C16.9996 20.4774 16.8802 20.9192 16.642 21.3254C16.4038 21.7316 16.0787 22.0565 15.6667 22.3001V24.0001ZM21 23.3334C21.1889 23.3334 21.3473 23.2694 21.4753 23.1414C21.6033 23.0134 21.6671 22.8552 21.6667 22.6667C21.6662 22.4783 21.6022 22.3201 21.4747 22.1921C21.3471 22.0641 21.1889 22.0001 21 22.0001C20.8111 22.0001 20.6529 22.0641 20.5253 22.1921C20.3978 22.3201 20.3338 22.4783 20.3333 22.6667C20.3329 22.8552 20.3969 23.0136 20.5253 23.1421C20.6538 23.2705 20.812 23.3343 21 23.3334ZM21 20.6667C21.1889 20.6667 21.3473 20.6027 21.4753 20.4747C21.6033 20.3467 21.6671 20.1885 21.6667 20.0001C21.6662 19.8116 21.6022 19.6534 21.4747 19.5254C21.3471 19.3974 21.1889 19.3334 21 19.3334C20.8111 19.3334 20.6529 19.3974 20.5253 19.5254C20.3978 19.6534 20.3338 19.8116 20.3333 20.0001C20.3329 20.1885 20.3969 20.347 20.5253 20.4754C20.6538 20.6039 20.812 20.6676 21 20.6667ZM21 18.0001C21.1889 18.0001 21.3473 17.9361 21.4753 17.8081C21.6033 17.6801 21.6671 17.5219 21.6667 17.3334C21.6662 17.145 21.6022 16.9867 21.4747 16.8587C21.3471 16.7307 21.1889 16.6667 21 16.6667C20.8111 16.6667 20.6529 16.7307 20.5253 16.8587C20.3978 16.9867 20.3338 17.145 20.3333 17.3334C20.3329 17.5219 20.3969 17.6803 20.5253 17.8087C20.6538 17.9372 20.812 18.001 21 18.0001Z" fill="#FAFAFA"/>
</svg>
